{"glyphs":{"0":{"ha":868,"x_min":0,"x_max":0,"o":"m 434 1128 b 0 694 194 1128 0 934 l 0 350 b 434 -84 0 110 194 -84 b 868 350 674 -84 868 110 l 868 694 b 434 1128 868 934 674 1128 z m 694 347 b 434 87 694 204 578 87 b 174 347 290 87 174 204 l 174 694 b 434 955 174 838 290 955 b 694 694 578 955 694 838 l 694 347 z "},"1":{"ha":694,"x_min":0,"x_max":0,"o":"m 694 0 b 608 -87 694 -48 656 -87 l 87 -87 b 0 0 39 -87 0 -48 b 87 87 0 48 39 87 l 260 87 l 260 879 l 135 796 b 15 820 95 769 41 780 b 39 940 -12 860 -1 914 l 299 1114 b 388 1118 326 1132 360 1133 b 434 1042 416 1103 434 1074 l 434 87 l 608 87 b 694 0 656 87 694 48 z "},"2":{"ha":868,"x_min":0,"x_max":0,"o":"m 868 0 b 781 -87 868 -48 829 -87 l 87 -87 b 6 -32 51 -87 19 -65 b 27 63 -7 1 1 38 l 552 565 b 568 872 637 647 644 782 b 408 952 527 920 471 949 b 240 890 346 955 286 933 l 145 804 b 23 810 110 771 55 774 b 28 932 -10 845 -7 900 l 122 1017 b 417 1125 200 1091 307 1131 b 700 984 527 1119 630 1068 b 672 440 836 824 823 585 l 303 87 l 781 87 b 868 0 829 87 868 48 z "},"3":{"ha":868,"x_min":0,"x_max":0,"o":"m 868 282 b 499 -87 868 79 703 -87 l 281 -87 b 7 113 155 -87 44 -7 b 62 222 -8 158 16 207 b 171 167 107 238 156 213 b 283 87 188 119 232 87 l 499 87 b 694 282 607 87 694 174 b 499 477 694 390 607 477 l 217 477 b 136 533 181 477 149 499 b 158 628 123 566 132 604 l 515 955 l 87 955 b 0 1042 39 955 0 994 b 87 1128 0 1090 39 1128 l 738 1128 b 819 1073 774 1128 806 1107 b 797 978 832 1040 823 1002 l 440 651 l 499 651 b 868 282 700 651 868 486 z "},"4":{"ha":1042,"x_min":0,"x_max":0,"o":"m 1042 309 b 955 222 1042 261 1003 222 l 868 222 l 868 0 b 781 -87 868 -48 829 -87 b 694 0 733 -87 694 -48 l 694 222 l 87 222 b 13 262 57 222 29 237 b 8 346 -2 287 -4 319 l 356 1079 b 471 1120 376 1122 428 1141 b 512 1004 515 1100 533 1048 l 224 396 l 694 396 l 694 781 b 781 868 694 829 733 868 b 868 781 829 868 868 829 l 868 396 l 955 396 b 1042 309 1003 396 1042 356 z "},"5":{"ha":868,"x_min":0,"x_max":0,"o":"m 868 280 b 501 -87 868 78 703 -87 l 284 -87 b 5 115 157 -87 45 -6 b 59 224 -11 160 14 209 b 169 169 105 240 154 215 b 284 87 186 120 232 87 l 501 87 b 695 280 608 87 695 174 b 501 474 695 387 608 474 l 87 474 b 20 505 61 474 37 485 b 1 576 4 525 -3 551 l 88 1057 b 174 1128 96 1098 132 1128 l 694 1128 b 781 1042 742 1128 781 1090 b 694 955 781 994 742 955 l 246 955 l 191 648 l 501 648 b 868 280 703 648 868 485 z "},"6":{"ha":868,"x_min":0,"x_max":0,"o":"m 455 779 l 630 985 b 620 1108 661 1022 657 1077 b 564 1128 604 1122 584 1128 b 498 1098 540 1128 515 1118 b 0 347 103 633 0 549 b 434 -87 0 108 195 -87 b 868 347 673 -87 868 108 b 455 779 868 579 684 768 z m 434 87 b 174 347 290 87 174 204 b 434 605 174 491 290 605 b 694 347 578 605 694 488 b 434 87 694 206 578 87 z "},"7":{"ha":868,"x_min":0,"x_max":0,"o":"m 856 998 l 248 -44 b 173 -87 232 -71 203 -87 b 130 -75 159 -87 144 -83 b 99 44 88 -51 74 2 l 630 955 l 87 955 b 0 1042 39 955 0 994 b 87 1128 0 1090 39 1128 l 781 1128 b 857 1085 812 1128 841 1112 b 856 998 872 1058 872 1025 z "},"8":{"ha":868,"x_min":0,"x_max":0,"o":"m 726 539 b 825 781 787 602 825 687 b 477 1128 825 973 669 1128 l 391 1128 b 43 781 199 1128 43 973 b 142 539 43 687 81 602 b 0 260 57 476 0 375 b 347 -87 0 69 156 -87 l 521 -87 b 868 260 712 -87 868 69 b 726 539 868 375 812 476 z m 391 955 l 477 955 b 651 781 573 955 651 877 b 477 608 651 685 573 608 l 391 608 b 217 781 295 608 217 685 b 391 955 217 877 295 955 z m 521 87 l 347 87 b 174 260 251 87 174 165 b 347 434 174 356 251 434 l 521 434 b 694 260 617 434 694 356 b 521 87 694 165 617 87 z "},"9":{"ha":868,"x_min":0,"x_max":0,"o":"m 434 1128 b 0 694 195 1128 0 934 b 413 263 0 462 184 274 l 238 56 b 248 -66 207 20 211 -35 b 304 -87 264 -80 284 -87 b 370 -56 328 -87 353 -76 b 868 694 765 408 868 492 b 434 1128 868 934 673 1128 z m 434 434 b 174 692 290 434 174 551 b 434 952 174 833 290 952 b 694 692 578 952 694 836 b 434 434 694 548 578 434 z "}," ":{"ha":521,"x_min":0,"x_max":0,"o":""},"!":{"ha":347,"x_min":0,"x_max":0,"o":"m 174 260 b 260 345 222 260 260 299 l 260 1042 b 174 1128 260 1090 222 1128 b 87 1042 126 1128 87 1090 l 87 350 b 174 260 87 299 126 260 z m 174 130 b 65 22 114 130 65 82 b 174 -84 65 -38 114 -84 b 282 22 234 -84 282 -36 b 174 130 282 79 234 130 z "},"#":{"ha":1215,"x_min":0,"x_max":0,"o":"m 1128 870 l 971 870 l 997 1030 b 926 1130 1005 1077 973 1122 b 826 1058 878 1138 834 1106 l 795 870 l 537 870 l 563 1030 b 492 1130 571 1077 539 1122 b 392 1058 444 1138 400 1106 l 361 870 l 174 870 b 87 784 126 870 87 832 b 174 697 87 733 126 697 l 332 697 l 274 350 l 87 350 b 0 263 39 350 0 311 b 87 178 0 215 39 178 l 245 178 l 218 19 b 290 -81 210 -28 242 -73 b 304 -87 294 -87 299 -87 b 389 -14 345 -87 382 -57 l 421 174 l 679 174 l 652 14 b 723 -86 644 -33 676 -78 b 738 -87 728 -87 733 -87 b 823 -14 780 -87 816 -57 l 855 174 l 1042 174 b 1128 258 1090 174 1128 212 b 1042 345 1128 306 1090 345 l 884 345 l 942 692 l 1128 692 b 1215 776 1176 692 1215 731 b 1128 870 1215 829 1176 870 z m 708 350 l 450 350 l 508 697 l 766 697 l 708 350 z "},"$":{"ha":868,"x_min":0,"x_max":0,"o":"m 434 1215 b 521 1128 482 1215 521 1176 l 521 1032 b 534 1030 525 1031 529 1030 b 683 1003 562 1026 648 1012 b 746 897 727 991 758 944 b 640 834 734 851 687 823 b 508 858 615 843 538 854 b 295 845 421 871 346 865 b 220 769 246 826 225 799 b 223 713 214 740 218 723 b 258 677 228 702 238 690 b 457 605 302 648 369 628 l 464 602 b 706 509 541 582 636 556 b 802 402 744 484 780 449 b 819 244 825 353 830 299 b 641 34 801 138 727 69 b 521 4 604 18 564 9 l 521 -87 b 434 -174 521 -135 482 -174 b 347 -87 386 -174 347 -135 l 347 8 b 344 8 346 8 345 11 l 343 8 b 95 80 277 19 168 47 b 51 194 51 99 31 151 b 163 238 70 238 122 258 b 369 180 222 213 315 189 b 576 194 456 167 528 175 b 649 273 622 213 643 240 b 645 329 654 302 650 318 b 610 365 640 339 630 352 b 411 437 566 394 499 413 l 404 439 b 162 532 327 460 232 486 b 66 640 124 558 88 592 b 49 800 43 688 38 742 b 233 1007 68 906 144 973 b 347 1034 269 1021 307 1029 l 347 1128 b 434 1215 347 1176 386 1215 l 434 1215 z "},"%":{"ha":1042,"x_min":0,"x_max":0,"o":"m 1016 1016 b 893 1016 982 1050 927 1050 l 25 148 b 25 25 -9 114 -9 59 b 87 0 42 8 65 0 b 148 25 109 0 131 8 l 1016 893 b 1016 1016 1050 927 1050 982 z m 174 694 b 347 868 269 694 347 772 b 174 1042 347 964 269 1042 b 0 868 78 1042 0 964 b 174 694 0 772 78 694 z m 868 347 b 694 174 772 347 694 269 b 868 0 694 78 772 0 b 1042 174 964 0 1042 78 b 868 347 1042 269 964 347 z "},"*":{"ha":1215,"x_min":0,"x_max":0,"o":"m 1131 217 b 1056 174 1115 189 1086 174 b 1013 185 1041 174 1027 177 l 694 371 l 694 0 b 610 -87 694 -48 656 -87 b 521 0 565 -87 521 -48 l 521 371 l 200 185 b 157 174 186 177 171 174 b 81 217 127 174 97 189 b 113 336 57 259 72 312 l 432 521 l 113 706 b 79 825 72 730 57 783 b 167 868 99 856 134 872 b 200 856 178 866 190 862 l 521 671 l 521 1042 b 608 1128 521 1090 560 1128 b 694 1042 656 1128 694 1090 l 694 671 l 1015 856 b 1048 867 1026 862 1037 866 b 1131 825 1082 872 1116 856 b 1100 706 1155 783 1141 730 l 781 521 l 1102 336 b 1131 217 1144 312 1158 259 z "},"+":{"ha":1215,"x_min":0,"x_max":0,"o":"m 1172 521 b 1085 434 1172 473 1133 434 l 694 434 l 694 43 b 608 -43 694 -5 656 -43 b 521 43 560 -43 521 -5 l 521 434 l 130 434 b 43 521 82 434 43 473 b 130 608 43 569 82 608 l 521 608 l 521 998 b 608 1085 521 1046 560 1085 b 694 998 656 1085 694 1046 l 694 608 l 1085 608 b 1172 521 1133 608 1172 569 z "},"-":{"ha":868,"x_min":0,"x_max":0,"o":"m 781 434 l 87 434 b 0 521 39 434 0 473 b 87 608 0 569 39 608 l 781 608 b 868 521 829 608 868 569 b 781 434 868 473 829 434 z "},"<":{"ha":1042,"x_min":0,"x_max":0,"o":"m 952 0 b 914 9 939 0 926 3 l 46 443 b 0 521 19 458 0 488 b 48 598 0 554 19 584 l 916 1032 b 1033 994 959 1054 1011 1037 b 994 877 1054 951 1037 899 l 281 521 l 994 164 b 1032 48 1037 143 1054 91 b 952 0 1017 18 987 0 z "},"=":{"ha":1215,"x_min":0,"x_max":0,"o":"m 130 694 l 1085 694 b 1172 781 1133 694 1172 733 b 1085 866 1172 829 1133 866 l 130 866 b 43 781 82 866 43 827 b 130 694 43 736 82 694 z m 1085 347 l 130 347 b 43 263 82 347 43 308 b 130 176 43 217 82 176 l 1085 176 b 1172 263 1133 176 1172 215 b 1085 347 1172 311 1133 347 z "},">":{"ha":1042,"x_min":0,"x_max":0,"o":"m 87 0 b 9 48 55 0 24 18 b 48 164 -12 91 5 143 l 761 521 l 48 877 b 9 994 5 899 -12 951 b 126 1032 31 1037 83 1054 l 994 598 b 1042 521 1023 584 1042 554 b 994 443 1042 488 1023 458 l 126 9 b 87 0 113 3 100 0 z "},"?":{"ha":868,"x_min":0,"x_max":0,"o":"m 554 1128 l 260 1128 b 0 868 117 1128 0 1012 b 87 784 0 820 39 784 b 174 868 135 784 174 823 b 260 955 174 916 213 955 l 554 955 b 694 814 632 955 694 892 b 612 686 694 761 665 713 l 347 531 b 304 456 318 515 304 486 l 304 347 b 391 260 304 299 343 260 b 477 347 439 260 477 299 l 477 406 l 694 534 b 868 814 802 587 868 695 b 554 1128 868 988 727 1128 z m 391 130 b 282 22 331 130 282 82 b 391 -84 282 -38 331 -84 b 499 22 451 -84 499 -36 b 391 130 499 79 451 130 z "},"@":{"ha":1389,"x_min":0,"x_max":0,"o":"m 564 1159 b 56 652 310 1109 106 905 b 597 -122 -19 269 243 -71 b 695 -36 648 -130 695 -89 l 695 -35 b 622 50 695 8 664 44 b 217 523 393 85 217 284 b 742 998 217 802 457 1026 b 1172 501 990 974 1172 751 l 1172 458 b 1063 349 1172 398 1123 349 b 955 458 1004 349 955 398 l 955 783 b 911 827 955 807 935 827 l 825 827 b 784 795 805 827 789 813 b 550 809 716 828 637 840 b 350 566 445 772 365 676 b 651 219 325 379 469 219 b 840 286 723 219 788 245 b 1137 184 905 201 1017 154 b 1343 463 1262 213 1345 336 l 1343 520 b 564 1159 1343 925 980 1241 z m 649 390 b 518 520 577 390 518 448 b 649 650 518 592 577 650 b 779 520 720 650 779 592 b 649 390 779 448 723 390 z "},"A":{"ha":1042,"x_min":0,"x_max":0,"o":"m 1035 33 l 601 1075 b 521 1128 588 1107 556 1128 b 441 1075 486 1128 454 1107 l 7 33 b 53 -80 -12 -11 9 -62 b 167 -33 98 -99 149 -78 l 253 174 l 788 174 l 875 -33 b 955 -87 889 -67 921 -87 b 988 -80 966 -87 977 -85 b 1035 33 1032 -62 1053 -11 z m 323 347 l 521 816 l 716 347 l 323 347 z "},"B":{"ha":868,"x_min":0,"x_max":0,"o":"m 697 558 b 781 781 749 618 781 696 b 434 1128 781 973 625 1128 l 87 1128 b 0 1042 39 1128 0 1090 l 0 0 b 87 -87 0 -48 39 -87 l 521 -87 b 868 260 712 -87 868 69 b 697 558 868 387 799 497 z m 174 955 l 434 955 b 608 781 530 955 608 877 b 434 608 608 685 530 608 l 174 608 l 174 955 z m 521 87 l 174 87 l 174 434 l 521 434 b 694 260 617 434 694 356 b 521 87 694 165 617 87 z "},"C":{"ha":1042,"x_min":0,"x_max":0,"o":"m 955 239 b 1039 152 1016 239 1039 186 b 593 -87 1039 90 858 -87 b -2 521 221 -87 -2 233 b 593 1126 -2 802 214 1126 b 1039 887 863 1126 1039 947 b 952 800 1039 853 1013 800 b 593 952 867 800 828 952 b 171 521 327 952 171 723 b 593 87 171 320 324 87 b 955 239 831 87 869 239 z "},"D":{"ha":1042,"x_min":0,"x_max":0,"o":"m 434 1128 l 87 1128 b 0 1042 39 1128 0 1090 l 0 0 b 87 -87 0 -48 39 -87 l 434 -87 b 1042 521 769 -87 1042 186 b 434 1128 1042 856 769 1128 z m 434 87 l 174 87 l 174 955 l 434 955 b 868 523 673 955 868 760 b 434 87 868 286 673 87 z "},"E":{"ha":868,"x_min":0,"x_max":0,"o":"m 868 0 b 781 -87 868 -48 829 -87 l 87 -87 b 0 0 39 -87 0 -48 l 0 1042 b 87 1128 0 1090 39 1128 l 781 1128 b 868 1042 829 1128 868 1090 b 781 955 868 994 829 955 l 174 955 l 174 608 l 608 608 b 694 521 656 608 694 569 b 608 434 694 473 656 434 l 174 434 l 174 87 l 781 87 b 868 0 829 87 868 48 z "},"F":{"ha":868,"x_min":0,"x_max":0,"o":"m 868 1042 b 781 955 868 994 829 955 l 174 955 l 174 608 l 608 608 b 694 523 656 608 694 569 b 608 436 694 478 656 436 l 174 436 l 174 2 b 87 -84 174 -46 135 -84 b 0 2 39 -84 0 -46 l 0 1044 b 87 1128 0 1090 39 1128 l 781 1128 b 868 1042 829 1128 868 1090 z "},"G":{"ha":1215,"x_min":0,"x_max":0,"o":"m 1215 521 b 605 -82 1215 132 894 -82 b 2 521 246 -82 2 206 b 608 1128 2 859 276 1128 b 1063 889 838 1128 1063 979 b 976 802 1063 840 1022 802 b 608 955 892 802 849 955 b 176 521 370 955 176 763 b 608 90 176 427 250 90 b 1037 434 823 90 1000 240 l 673 434 b 586 521 625 434 586 473 b 673 605 586 569 625 605 l 1128 605 b 1215 521 1176 608 1215 569 z "},"H":{"ha":1042,"x_min":0,"x_max":0,"o":"m 1042 1042 l 1042 0 b 955 -87 1042 -48 1003 -87 b 868 0 907 -87 868 -48 l 868 521 l 174 521 l 174 0 b 87 -87 174 -48 135 -87 b 0 0 39 -87 0 -48 l 0 1042 b 87 1128 0 1090 39 1128 b 174 1042 135 1128 174 1090 l 174 694 l 868 694 l 868 1042 b 955 1128 868 1090 907 1128 b 1042 1042 1003 1128 1042 1090 z "},"I":{"ha":868,"x_min":0,"x_max":0,"o":"m 868 0 b 781 -87 868 -48 829 -87 l 87 -87 b 0 0 39 -87 0 -48 b 87 87 0 48 39 87 l 347 87 l 347 955 l 87 955 b 0 1042 39 955 0 994 b 87 1128 0 1090 39 1128 l 781 1128 b 868 1042 829 1128 868 1090 b 781 955 868 994 829 955 l 521 955 l 521 87 l 781 87 b 868 0 829 87 868 48 z "},"J":{"ha":868,"x_min":0,"x_max":0,"o":"m 868 1042 l 868 338 b 434 -87 868 104 673 -87 b 0 338 195 -87 0 104 l 0 434 b 87 521 0 482 39 521 b 174 434 135 521 174 482 l 174 338 b 434 87 174 199 290 87 b 694 338 578 87 694 199 l 694 1042 b 781 1128 694 1090 733 1128 b 868 1042 829 1128 868 1090 z "},"K":{"ha":868,"x_min":0,"x_max":0,"o":"m 853 49 b 831 -71 880 10 870 -44 b 781 -87 816 -82 798 -87 b 710 -49 754 -87 727 -74 l 347 474 l 174 296 l 174 0 b 87 -87 174 -48 135 -87 b 0 0 39 -87 0 -48 l 0 1042 b 87 1128 0 1090 39 1128 b 174 1042 135 1128 174 1090 l 174 544 l 719 1102 b 842 1104 753 1137 808 1137 b 843 981 876 1070 877 1015 l 471 600 l 853 49 z "},"L":{"ha":868,"x_min":0,"x_max":0,"o":"m 868 0 b 781 -87 868 -48 829 -87 l 174 -87 b 87 0 126 -87 87 -48 l 87 1042 b 174 1128 87 1090 126 1128 b 260 1042 222 1128 260 1090 l 260 87 l 781 87 b 868 0 829 87 868 48 z "},"M":{"ha":1215,"x_min":0,"x_max":0,"o":"m 1215 1042 l 1215 0 b 1128 -87 1215 -48 1176 -87 b 1042 0 1080 -87 1042 -48 l 1042 755 l 680 212 b 535 212 648 164 568 164 l 174 755 l 174 0 b 87 -87 174 -48 135 -87 b 0 0 39 -87 0 -48 l 0 1042 b 62 1125 0 1080 25 1114 b 159 1090 98 1136 138 1122 l 608 417 l 1056 1090 b 1154 1125 1078 1122 1117 1136 b 1215 1042 1190 1114 1215 1080 z "},"N":{"ha":1042,"x_min":0,"x_max":0,"o":"m 1042 1042 l 1042 0 b 984 -82 1042 -37 1019 -69 b 955 -87 975 -85 965 -87 b 888 -56 930 -87 905 -76 l 174 802 l 174 0 b 87 -87 174 -48 135 -87 b 0 0 39 -87 0 -48 l 0 1042 b 57 1123 0 1078 23 1111 b 154 1097 91 1136 130 1125 l 868 240 l 868 1042 b 955 1128 868 1090 907 1128 b 1042 1042 1003 1128 1042 1090 z "},"O":{"ha":1215,"x_min":0,"x_max":0,"o":"m 608 1128 b 0 521 273 1128 0 856 b 608 -87 0 186 273 -87 b 1215 521 943 -87 1215 186 b 608 1128 1215 856 943 1128 z m 608 87 b 174 521 368 87 174 282 b 608 952 174 760 368 952 b 1042 521 847 952 1042 758 b 608 87 1042 284 847 87 z "},"P":{"ha":868,"x_min":0,"x_max":0,"o":"m 434 1128 l 87 1128 b 0 1042 39 1128 0 1090 l 0 0 b 87 -87 0 -48 39 -87 b 174 0 135 -87 174 -48 l 174 260 l 434 260 b 868 692 673 260 868 455 b 434 1128 868 929 673 1128 z m 434 434 l 174 434 l 174 955 l 434 955 b 694 694 578 955 694 838 b 434 434 694 551 578 434 z "},"Q":{"ha":1215,"x_min":0,"x_max":0,"o":"m 1066 123 b 1215 521 1159 230 1215 369 b 610 1128 1215 856 943 1128 b 0 521 278 1128 0 856 b 605 -87 0 186 273 -87 b 933 10 726 -87 838 -51 l 1059 -142 b 1126 -174 1077 -163 1101 -174 b 1213 -87 1184 -174 1213 -124 b 1193 -31 1213 -67 1206 -48 l 1066 123 z m 608 87 b 174 521 368 87 174 282 b 608 952 174 760 368 952 b 1042 521 847 952 1042 758 b 952 260 1042 423 1008 333 l 761 490 b 694 521 744 510 719 521 b 608 434 637 521 608 471 b 628 379 608 414 614 395 l 822 146 b 608 87 758 109 686 87 z "},"R":{"ha":868,"x_min":0,"x_max":0,"o":"m 620 375 b 868 738 765 432 868 573 b 477 1128 868 953 693 1128 l 87 1128 b 0 1042 39 1128 0 1090 l 0 0 b 87 -87 0 -48 39 -87 b 174 0 135 -87 174 -48 l 174 347 l 427 347 l 711 -50 b 781 -87 727 -74 754 -87 b 832 -71 799 -87 816 -82 b 852 50 871 -43 880 11 l 620 375 z m 174 955 l 477 955 b 694 738 597 955 694 857 b 477 523 694 618 597 523 l 174 523 l 174 955 z "},"S":{"ha":1042,"x_min":0,"x_max":0,"o":"m 949 187 b 795 -36 932 88 879 11 b 568 -87 728 -73 649 -87 b 141 9 400 -87 227 -27 b 93 122 97 27 75 77 b 207 169 111 166 162 188 b 711 116 417 84 615 63 b 778 216 749 137 770 169 b 497 437 798 331 729 370 b 93 854 305 492 43 568 b 231 1063 107 941 157 1015 b 791 1084 355 1142 543 1149 b 853 978 838 1071 865 1024 b 747 916 841 931 793 904 b 325 917 499 982 381 953 b 264 825 291 895 270 864 b 545 604 244 710 313 671 b 949 187 736 549 998 473 z "},"T":{"ha":1042,"x_min":0,"x_max":0,"o":"m 1042 1042 b 955 955 1042 994 1003 955 l 608 955 l 608 0 b 521 -87 608 -48 569 -87 b 434 0 473 -87 434 -48 l 434 955 l 87 955 b 0 1042 39 955 0 994 b 87 1128 0 1090 39 1128 l 955 1128 b 1042 1042 1003 1128 1042 1090 z "},"U":{"ha":1042,"x_min":0,"x_max":0,"o":"m 1042 1042 l 1042 429 b 521 -87 1042 147 808 -87 b 0 429 234 -87 0 145 l 0 1042 b 87 1128 0 1090 39 1128 b 174 1042 135 1128 174 1090 l 174 429 b 521 87 174 240 329 87 b 868 429 712 87 868 241 l 868 1042 b 955 1128 868 1090 907 1128 b 1042 1042 1003 1128 1042 1090 z "},"V":{"ha":1042,"x_min":0,"x_max":0,"o":"m 1035 1008 l 601 -33 b 521 -87 588 -66 556 -87 b 441 -33 486 -87 454 -66 l 7 1008 b 53 1122 -12 1052 9 1103 b 167 1075 98 1140 149 1119 l 521 226 l 875 1075 b 988 1122 893 1119 944 1140 b 1035 1008 1032 1103 1053 1052 z "},"W":{"ha":1563,"x_min":0,"x_max":0,"o":"m 1555 1011 l 1164 -31 b 1083 -87 1151 -65 1119 -87 b 1079 -87 1082 -87 1081 -87 b 999 -24 1042 -85 1010 -60 l 781 732 l 561 -24 b 481 -87 550 -60 518 -86 b 396 -31 443 -88 409 -66 l 6 1011 b 56 1123 -11 1056 11 1106 b 168 1072 101 1140 151 1117 l 467 277 l 698 1068 b 781 1128 709 1103 743 1128 b 865 1066 820 1128 854 1103 l 1095 275 l 1394 1070 b 1506 1121 1411 1115 1461 1137 b 1555 1011 1551 1106 1574 1056 z "},"X":{"ha":1042,"x_min":0,"x_max":0,"o":"m 1022 56 b 1010 -67 1052 19 1047 -36 b 955 -87 994 -80 975 -87 b 888 -56 930 -87 905 -76 l 521 388 l 154 -53 b 87 -84 136 -74 112 -84 b 31 -64 67 -84 48 -78 b 20 58 -6 -34 -10 21 l 408 523 l 20 986 b 31 1108 -11 1023 -6 1078 b 153 1097 68 1139 123 1134 l 521 656 l 888 1097 b 1010 1108 919 1134 974 1139 b 1021 986 1047 1078 1052 1023 l 634 521 l 1022 56 z "},"Y":{"ha":1042,"x_min":0,"x_max":0,"o":"m 1025 991 l 608 406 l 608 0 b 521 -85 608 -48 569 -85 b 434 0 473 -85 434 -48 l 434 406 l 16 991 b 36 1112 -12 1030 -3 1084 b 157 1092 75 1140 130 1131 l 521 586 l 882 1094 b 1003 1115 910 1133 964 1142 b 1025 991 1042 1084 1053 1030 z "},"Z":{"ha":1042,"x_min":0,"x_max":0,"o":"m 1042 0 b 955 -87 1042 -48 1003 -87 l 87 -87 b 8 -37 53 -87 22 -67 b 20 56 -6 -6 -1 30 l 770 955 l 87 955 b 0 1042 39 955 0 994 b 87 1128 0 1090 39 1128 l 955 1128 b 1033 1078 989 1128 1019 1109 b 1022 986 1048 1048 1043 1012 l 272 87 l 955 87 b 1042 0 1003 87 1042 48 z "},"\"":{"ha":0,"x_min":0,"x_max":0,"o":""},"":{"ha":1389,"x_min":0,"x_max":0,"o":"m 955 521 l 850 521 b 694 597 808 557 754 583 l 694 726 l 608 735 l 521 726 l 521 597 b 365 521 461 583 408 557 l 43 521 b 0 477 19 521 0 502 l 0 217 b 43 174 0 193 19 174 l 295 174 b 608 0 351 71 469 0 b 920 174 746 0 864 71 l 955 174 b 1042 87 1003 174 1042 135 b 1128 0 1042 39 1081 0 l 1302 0 b 1389 87 1350 0 1389 39 b 955 521 1389 326 1195 521 z m 221 782 l 608 822 l 994 782 b 1042 827 1020 779 1042 800 l 1042 909 b 994 954 1042 936 1020 957 l 694 923 l 694 998 b 651 1042 694 1022 675 1042 l 564 1042 b 521 998 540 1042 521 1022 l 521 923 l 221 954 b 174 909 196 957 174 936 l 174 827 b 221 782 174 800 196 779 z "},"":{"ha":1389,"x_min":0,"x_max":0,"o":"m 1128 -87 b 1215 -174 1128 -135 1167 -174 b 1302 -87 1263 -174 1302 -135 b 1215 87 1302 -39 1215 87 b 1128 -87 1215 87 1128 -39 z m 955 694 l 850 694 b 694 770 808 731 754 757 l 694 899 l 608 909 l 521 899 l 521 770 b 365 694 461 757 408 731 l 43 694 b 0 651 19 694 0 675 l 0 391 b 43 347 0 366 19 347 l 295 347 b 608 174 351 245 469 174 b 920 347 746 174 864 245 l 955 347 b 1042 261 1003 347 1042 308 b 1128 174 1042 213 1081 174 l 1302 174 b 1389 260 1350 174 1389 213 b 955 694 1389 500 1195 694 z m 221 955 l 608 996 l 994 955 b 1042 1001 1020 952 1042 974 l 1042 1083 b 994 1128 1042 1110 1020 1131 l 694 1097 l 694 1172 b 651 1215 694 1196 675 1215 l 564 1215 b 521 1172 540 1215 521 1196 l 521 1097 l 221 1128 b 174 1083 196 1131 174 1110 l 174 1001 b 221 955 174 974 196 952 z "},"":{"ha":1563,"x_min":0,"x_max":0,"o":"m 1562 522 b 1475 435 1562 473 1521 435 l 1388 435 l 1390 1 b 1217 -174 1391 -95 1313 -174 l 347 -174 b 174 0 252 -174 174 -96 l 174 435 l 87 435 b 0 522 38 435 0 473 b 27 587 0 547 8 568 l 723 1194 b 782 1215 742 1213 763 1215 b 840 1196 801 1215 823 1210 l 1128 942 l 1128 1042 b 1215 1128 1128 1090 1167 1128 l 1302 1128 b 1389 1042 1350 1128 1389 1090 l 1389 713 l 1532 587 b 1562 522 1554 568 1565 547 l 1562 522 z m 673 694 b 608 629 637 694 608 665 l 608 412 b 673 347 608 376 637 347 l 890 347 b 955 412 926 347 955 376 l 955 629 b 890 694 955 665 926 694 l 673 694 z "},"":{"ha":1563,"x_min":0,"x_max":0,"o":"m 853 1192 b 970 1192 886 1223 937 1223 l 1535 671 b 1557 576 1561 647 1570 609 b 1476 521 1544 543 1512 521 l 1389 521 l 1389 217 b 1259 87 1389 145 1331 87 l 804 87 b 263 630 740 354 530 567 b 288 671 267 645 276 660 l 853 1192 z m 825 694 b 779 651 801 694 779 675 l 779 477 b 825 434 779 454 801 434 l 998 434 b 1042 477 1022 434 1042 454 l 1042 651 b 998 694 1042 675 1022 694 l 825 694 z m 694 -109 b 629 -174 694 -145 665 -174 b 564 -109 593 -174 564 -145 b 65 391 564 167 341 391 b 0 456 29 391 0 420 b 65 521 0 492 29 521 b 694 -109 413 521 694 239 z m 0 -87 b 87 0 0 -39 39 0 b 174 -87 135 0 174 -39 b 87 -174 174 -135 135 -174 b 0 -87 39 -174 0 -135 z m 0 195 b 65 260 0 231 29 260 b 434 -109 269 260 434 95 b 369 -174 434 -145 405 -174 b 304 -109 333 -174 304 -145 b 65 130 304 23 197 130 b 0 195 29 130 0 159 z "},"":{"ha":1389,"x_min":0,"x_max":0,"o":"m 432 339 l 432 391 b 391 436 432 415 415 436 b 350 393 367 436 350 417 l 347 339 b 262 195 288 318 252 257 b 391 87 273 132 327 87 b 519 195 454 87 508 132 b 432 339 530 257 491 318 z m 692 911 b 391 1215 692 1079 559 1215 b 87 911 223 1215 87 1079 l 87 460 b 0 217 33 393 0 309 b 391 -174 0 1 175 -174 b 779 217 606 -174 779 1 b 692 460 779 309 746 393 l 692 911 z m 597 148 b 391 2 565 59 484 2 b 185 151 297 2 214 62 b 260 390 155 237 186 334 l 260 911 b 391 1042 260 983 319 1042 b 518 911 463 1042 518 983 l 518 390 b 597 148 595 334 626 237 z m 1354 285 b 1232 271 1317 315 1262 309 l 1215 247 l 1215 1042 b 1128 1128 1215 1090 1176 1128 b 1042 1042 1081 1128 1042 1090 l 1042 247 l 1020 271 b 898 285 990 309 936 315 b 885 163 861 255 855 200 l 1058 -54 b 1128 -87 1077 -75 1102 -87 b 1196 -54 1155 -87 1180 -75 l 1370 163 b 1354 285 1400 200 1394 255 z "},"":{"ha":1389,"x_min":0,"x_max":0,"o":"m 432 339 l 432 911 b 391 955 432 936 415 955 b 347 911 366 955 347 936 l 347 339 b 262 195 288 318 252 257 b 391 87 273 132 327 87 b 519 195 454 87 508 132 b 432 339 530 257 491 318 z m 692 911 b 391 1215 692 1079 559 1215 b 87 911 223 1215 87 1079 l 87 460 b 0 217 33 393 0 309 b 391 -174 0 1 175 -174 b 779 217 606 -174 779 1 b 692 460 779 309 746 393 l 692 911 z m 597 148 b 391 2 565 59 484 2 b 185 151 297 2 214 62 b 260 390 155 237 186 334 l 260 911 b 391 1042 260 983 319 1042 b 518 911 463 1042 518 983 l 518 390 b 597 148 595 334 626 237 z m 1367 879 l 1194 1096 b 1058 1096 1161 1137 1091 1137 l 885 879 b 898 757 855 841 861 787 b 1020 770 936 727 990 733 l 1042 794 l 1042 0 b 1128 -87 1042 -48 1081 -87 b 1215 0 1176 -87 1215 -48 l 1215 794 l 1234 770 b 1302 738 1251 749 1277 738 b 1356 757 1321 738 1340 744 b 1367 879 1394 787 1400 841 z "},"":{"ha":1736,"x_min":0,"x_max":0,"o":"m 1345 1128 b 1476 998 1417 1128 1476 1070 l 1476 347 l 1649 347 b 1736 260 1697 347 1736 308 b 1649 174 1736 212 1697 174 l 778 174 b 477 434 757 321 630 434 b 177 174 324 434 198 321 l 130 174 b 0 304 58 174 0 232 l 0 998 b 130 1128 0 1070 58 1128 l 1345 1128 z m 174 911 l 174 499 b 260 556 200 521 229 540 l 260 911 b 217 955 260 935 241 955 b 174 911 193 955 174 935 l 174 911 z m 477 608 b 521 606 492 608 506 607 l 521 911 b 477 955 521 935 501 955 b 434 911 454 955 434 935 l 434 606 b 477 608 448 607 463 608 z m 694 556 b 781 499 725 540 755 521 l 781 911 b 738 955 781 935 762 955 b 694 911 714 955 694 935 l 694 556 z m 955 911 l 955 391 b 998 347 955 367 974 347 b 1042 391 1022 347 1042 367 l 1042 911 b 998 955 1042 935 1022 955 b 955 911 974 955 955 935 z m 1302 911 b 1259 955 1302 935 1283 955 b 1215 911 1235 955 1215 935 l 1215 391 b 1259 347 1215 367 1235 347 b 1302 391 1283 347 1302 367 l 1302 911 z m 260 130 b 477 347 260 250 358 347 b 694 130 597 347 694 250 b 477 -87 694 10 597 -87 b 260 130 358 -87 260 10 z m 477 43 b 564 130 525 43 564 82 b 477 217 564 178 525 217 b 391 130 429 217 391 178 b 477 43 391 82 429 43 z "},"":{"ha":1736,"x_min":0,"x_max":0,"o":"m 1702 599 b 1734 658 1727 606 1742 633 b 1674 691 1726 686 1697 698 l 1644 682 b 1545 778 1622 723 1587 757 l 1553 808 b 1506 868 1558 827 1548 868 b 1459 832 1484 868 1465 854 l 1451 802 b 1319 765 1430 803 1378 804 l 1296 789 b 1227 790 1285 800 1254 816 b 1226 722 1208 772 1208 741 l 1251 697 b 1208 570 1219 646 1223 620 b 1163 586 1186 580 1177 586 b 1119 559 1145 586 1127 576 b 1142 495 1108 535 1118 506 l 1166 484 b 1072 392 1126 424 1073 393 l 1061 416 b 997 441 1050 440 1022 451 b 973 377 973 430 962 401 l 984 352 b 858 306 939 340 908 341 l 831 331 b 763 327 812 348 782 348 b 767 260 745 308 747 277 l 793 236 b 761 105 770 197 758 152 l 729 96 b 697 36 704 88 689 61 b 757 3 704 10 731 -4 l 787 13 b 886 -84 810 -30 844 -63 l 878 -113 b 913 -172 872 -139 887 -165 b 972 -138 939 -179 965 -163 l 980 -108 b 1025 -105 995 -109 1010 -108 b 1115 -83 1056 -100 1085 -92 l 1124 -109 b 1186 -138 1133 -134 1161 -147 b 1215 -76 1211 -129 1224 -102 l 1206 -50 b 1325 14 1247 -32 1287 -11 l 1342 -9 b 1410 -19 1358 -30 1388 -34 b 1419 49 1431 -3 1435 27 l 1402 72 b 1497 168 1436 101 1468 133 l 1521 151 b 1588 161 1542 135 1572 139 b 1578 228 1604 182 1599 210 l 1553 246 b 1616 365 1578 283 1598 323 l 1644 355 b 1706 385 1670 346 1697 360 b 1676 446 1714 410 1701 437 l 1648 456 b 1670 589 1663 511 1673 542 l 1702 599 z m 1128 87 b 1042 174 1081 87 1042 126 b 1128 260 1042 222 1081 260 b 1215 174 1176 260 1215 222 b 1128 87 1215 126 1176 87 z m 739 601 b 763 665 763 612 774 640 l 752 689 b 878 735 797 702 828 701 l 905 711 b 973 714 924 694 954 694 b 970 782 991 734 989 764 l 943 806 b 975 937 966 844 978 889 l 1007 946 b 1040 1006 1033 954 1047 980 b 980 1038 1032 1031 1005 1046 l 949 1029 b 850 1126 926 1071 892 1105 l 858 1155 b 823 1214 865 1181 849 1207 b 764 1179 797 1220 771 1205 l 757 1150 b 711 1147 742 1151 726 1150 b 621 1125 680 1142 649 1133 l 612 1150 b 548 1180 603 1175 576 1189 b 521 1118 525 1171 512 1143 l 531 1092 b 412 1028 489 1073 449 1052 l 394 1050 b 327 1060 378 1072 348 1076 b 317 993 305 1044 299 1014 l 334 970 b 240 874 300 940 268 908 l 216 891 b 148 881 194 907 164 902 b 159 813 132 859 137 829 l 183 796 b 120 677 159 758 138 719 l 92 687 b 31 657 67 695 39 682 b 61 596 22 632 35 604 l 89 586 b 66 452 73 530 63 500 l 35 443 b 2 383 9 436 -6 409 b 62 351 10 356 39 344 l 93 360 b 191 264 115 319 149 285 l 184 234 b 230 174 178 214 189 174 b 277 210 252 174 271 188 l 285 239 b 417 276 306 239 358 238 l 440 252 b 509 251 451 242 482 226 b 510 319 528 270 528 300 l 485 345 b 528 471 517 396 513 422 b 573 455 550 461 559 455 b 617 483 591 455 609 465 b 594 547 628 507 618 535 l 570 558 b 664 650 610 618 663 649 l 675 626 b 739 601 686 602 714 591 z m 347 521 b 260 610 299 521 260 560 b 347 697 260 658 299 697 b 434 610 395 697 434 658 b 347 521 434 560 395 521 z m 564 781 b 521 825 540 781 521 801 b 564 868 521 849 540 868 b 608 825 588 868 608 849 b 564 781 608 801 588 781 z "},"":{"ha":1563,"x_min":0,"x_max":0,"o":"m 1473 936 b 1393 979 1463 970 1427 989 l 1352 967 b 1220 1096 1322 1023 1276 1068 l 1231 1135 b 1184 1213 1240 1169 1219 1204 b 1106 1167 1150 1222 1115 1202 l 1096 1128 b 915 1096 1069 1129 1025 1128 l 903 1129 b 821 1168 891 1162 857 1180 b 782 1086 787 1156 770 1119 l 793 1053 b 634 967 738 1029 685 1000 l 613 996 b 522 1009 589 1024 551 1030 b 509 919 494 987 488 947 l 531 890 b 404 761 485 851 443 808 l 374 783 b 284 769 346 804 305 798 b 298 679 263 740 270 700 l 328 658 b 245 498 296 607 268 554 l 210 510 b 128 471 176 522 139 504 b 168 389 116 437 134 401 l 203 377 b 175 198 171 262 173 226 l 133 186 b 89 106 99 176 79 140 b 170 63 100 69 139 53 l 210 75 b 342 -53 240 20 285 -25 l 332 -93 b 394 -174 325 -117 339 -174 b 456 -126 423 -174 449 -154 l 467 -86 b 643 -37 494 -87 564 -88 l 674 -68 b 765 -70 688 -82 730 -104 b 766 21 791 -45 791 -5 l 733 55 b 777 167 755 88 770 126 b 791 223 780 186 785 205 b 851 202 820 210 832 202 b 909 239 875 202 898 215 b 878 324 925 271 911 309 l 847 339 b 973 461 901 419 971 460 l 987 429 b 1072 396 1001 397 1039 382 b 1105 481 1102 411 1119 449 l 1090 514 b 1135 525 1105 518 1120 522 b 1257 575 1181 533 1222 551 l 1293 543 b 1384 547 1319 520 1359 520 b 1380 638 1408 573 1406 614 l 1345 669 b 1387 844 1375 721 1391 781 l 1430 856 b 1473 936 1464 866 1483 902 z m 521 217 b 391 347 449 217 391 275 b 521 477 391 419 449 477 b 651 347 593 477 651 419 b 521 217 651 275 593 217 z m 738 586 b 673 651 702 586 673 615 b 738 714 673 687 702 714 b 801 651 774 714 801 685 b 738 586 801 615 774 586 z "},"":{"ha":1389,"x_min":0,"x_max":0,"o":"m 1042 434 l 1215 955 l 919 955 b 738 1085 837 955 764 1007 b 557 1215 712 1163 639 1215 l 174 1215 l 347 434 l 1042 434 z m 0 -87 b 87 -174 0 -135 39 -174 l 1302 -174 b 1389 -87 1350 -174 1389 -135 l 1389 87 l 0 87 l 0 -87 z m 1302 608 l 1191 608 l 1133 434 l 1172 434 b 1215 391 1196 434 1215 414 b 1172 347 1215 367 1196 347 l 217 347 b 174 391 193 347 174 367 b 217 434 174 414 193 434 l 258 434 l 220 608 l 87 608 b 0 521 39 608 0 569 l 0 174 l 1389 174 l 1389 521 b 1302 608 1389 569 1350 608 z "},"":{"ha":1563,"x_min":0,"x_max":0,"o":"m 1541 303 b 1390 326 1506 351 1438 362 l 1065 87 l 738 87 b 697 130 714 87 697 106 b 738 174 697 154 716 174 l 950 174 b 1041 246 991 174 1033 203 b 955 347 1049 300 1008 347 l 518 347 b 317 276 448 347 374 322 l 191 174 l 41 176 b 0 130 20 176 0 154 l 0 -130 b 41 -174 0 -154 20 -174 l 980 -174 b 1147 -119 1040 -174 1099 -154 l 1514 151 b 1541 303 1567 187 1577 255 z m 434 738 l 608 738 l 608 564 b 651 521 608 540 627 521 l 825 521 b 868 564 849 521 868 540 l 868 738 l 1042 738 b 1085 781 1066 738 1085 757 l 1085 955 b 1042 998 1085 979 1066 998 l 868 998 l 868 1172 b 825 1215 868 1196 849 1215 l 651 1215 b 608 1172 627 1215 608 1196 l 608 998 l 434 998 b 391 955 410 998 391 979 l 391 781 b 434 738 391 757 410 738 z "},"":{"ha":1736,"x_min":0,"x_max":0,"o":"m 1215 43 b 1273 137 1215 82 1238 120 l 1380 182 l 1423 284 b 1475 336 1435 308 1454 326 l 1476 868 b 1389 955 1476 916 1437 955 b 1302 868 1341 955 1302 916 l 1302 564 b 1259 521 1302 540 1283 521 b 1215 564 1235 521 1215 540 l 1215 1042 b 1128 1128 1215 1090 1176 1128 b 1042 1042 1081 1128 1042 1090 l 1041 564 b 998 521 1041 540 1022 521 b 955 564 974 521 955 540 l 955 1128 b 868 1215 955 1176 916 1215 b 781 1128 820 1215 781 1176 l 781 564 b 738 521 781 540 762 521 b 694 564 714 521 694 540 l 694 1042 b 608 1128 694 1090 656 1128 b 521 1042 560 1128 521 1090 l 521 284 l 359 446 b 282 477 338 467 310 477 b 174 369 224 477 174 431 b 205 292 174 341 184 313 l 512 -15 b 896 -174 615 -117 751 -174 l 998 -174 b 1303 -63 1114 -174 1220 -132 l 1279 -53 b 1215 43 1239 -33 1215 5 z m 949 207 l 868 176 l 834 95 b 825 87 830 90 828 87 b 815 93 821 87 817 90 l 781 176 l 700 210 b 694 219 695 211 694 213 b 700 229 694 223 697 228 l 781 260 l 815 341 b 825 347 817 347 821 347 b 834 341 828 347 833 345 l 868 260 l 949 227 b 955 219 952 225 955 221 b 949 207 955 213 952 211 z m 217 608 b 233 618 223 608 230 612 l 289 752 l 424 808 b 434 825 430 811 434 819 b 424 841 432 831 429 838 l 289 897 l 233 1032 b 217 1042 230 1037 223 1042 b 201 1032 211 1042 204 1037 l 145 897 l 10 841 b 0 827 5 838 0 831 b 10 811 0 821 5 814 l 144 755 l 201 620 b 217 608 204 612 211 608 z m 1734 43 b 1724 60 1734 50 1729 57 l 1589 116 l 1533 250 b 1519 260 1532 256 1525 260 b 1503 250 1513 260 1506 256 l 1447 116 l 1312 60 b 1302 43 1307 57 1302 50 b 1312 27 1302 37 1307 30 l 1447 -29 l 1503 -164 b 1519 -174 1506 -169 1513 -174 b 1535 -164 1525 -174 1532 -169 l 1591 -29 l 1726 27 b 1734 43 1731 30 1734 37 z "},"":{"ha":1563,"x_min":0,"x_max":0,"o":"m 1128 1042 b 1215 1126 1176 1042 1215 1081 b 1128 1213 1215 1174 1176 1213 b 1042 1126 1081 1213 1042 1174 b 1128 1042 1042 1081 1080 1042 z m 1408 304 l 977 304 b 955 326 965 304 955 314 b 977 347 955 338 965 347 l 1324 347 b 1388 425 1364 347 1396 384 b 1321 477 1382 456 1353 477 l 781 477 l 909 524 b 952 605 943 534 963 571 b 870 648 941 639 905 659 l 578 558 b 347 241 439 512 347 384 l 347 172 b 521 -41 446 151 521 64 b 504 -123 521 -70 515 -98 b 673 -174 554 -155 611 -174 l 1237 -174 b 1301 -96 1277 -174 1309 -137 b 1235 -43 1295 -65 1266 -43 l 977 -43 b 955 -22 965 -43 955 -34 b 977 0 955 -10 965 0 l 1324 0 b 1388 78 1364 0 1396 36 b 1321 130 1382 109 1353 130 l 977 130 b 955 152 965 130 955 140 b 977 174 955 164 965 174 l 1411 174 b 1474 252 1451 174 1482 210 b 1408 304 1468 283 1440 304 z m 845 731 b 890 738 860 736 875 738 b 941 729 908 738 923 734 l 983 860 b 928 945 995 899 970 940 b 858 897 896 948 868 927 l 801 718 l 845 731 z m 1345 608 b 1476 735 1417 608 1476 666 b 1345 866 1476 805 1417 866 b 1215 738 1274 866 1215 810 b 1345 608 1215 666 1274 608 z m 254 167 b 260 169 256 168 258 169 l 260 239 b 551 640 260 421 377 583 l 751 702 l 844 995 b 788 1080 856 1034 830 1075 b 719 1032 757 1083 728 1062 l 628 744 b 600 729 624 732 612 726 b 586 757 589 733 583 745 l 704 1130 b 649 1215 716 1169 691 1210 b 579 1167 618 1218 589 1197 l 449 756 b 422 742 445 744 433 738 b 408 769 410 745 402 757 l 512 1100 b 457 1184 524 1138 499 1179 b 387 1137 426 1188 397 1167 l 225 622 l 219 758 b 154 823 219 793 190 823 b 87 758 118 823 87 795 l 87 453 b 254 167 89 332 154 226 z m 304 87 b 174 -41 232 87 174 29 b 304 -171 174 -110 232 -171 b 434 -43 376 -171 434 -115 b 304 87 434 28 376 87 z "},"":{"ha":1736,"x_min":0,"x_max":0,"o":"m 973 685 l 1368 364 b 1428 261 1401 337 1421 301 l 1649 261 b 1734 348 1697 261 1734 300 l 1734 784 b 1649 870 1734 832 1695 870 l 1391 870 b 972 1044 1280 982 1129 1044 l 949 1044 b 890 1021 929 1044 906 1036 l 637 789 l 565 841 l 784 1042 l 766 1042 b 439 940 648 1042 535 1005 l 105 1201 b 65 1215 93 1211 79 1215 b 14 1190 46 1215 27 1207 b 25 1099 -8 1162 -3 1121 l 1631 -160 b 1722 -149 1659 -182 1700 -177 b 1711 -57 1744 -120 1740 -79 l 1344 231 b 1313 296 1343 255 1333 280 l 908 625 l 877 597 l 807 653 l 985 816 b 1046 816 1003 832 1030 831 b 1046 754 1060 798 1061 770 l 973 685 z m 87 870 b 2 784 39 870 2 831 l 2 350 b 87 263 2 303 42 263 l 397 263 l 642 41 b 884 67 717 -19 826 -8 l 933 25 b 1075 40 976 -8 1040 -3 l 1110 83 l 108 870 l 87 870 z "},"":{"ha":1736,"x_min":0,"x_max":0,"o":"m 1473 868 l 1473 260 b 1558 174 1473 213 1512 174 l 1731 174 l 1731 868 l 1473 868 z m 1603 260 b 1560 304 1580 260 1560 280 b 1603 345 1560 328 1580 345 b 1644 304 1627 345 1644 325 b 1603 260 1647 280 1630 260 z m 0 868 l 0 174 l 171 174 b 258 261 219 174 258 212 l 260 749 l 109 868 l 0 868 z m 0 868 z m 174 304 b 133 260 174 280 154 260 b 92 304 111 260 92 280 b 133 345 92 328 111 345 b 174 304 154 345 174 328 z m 347 261 l 397 261 l 642 39 b 884 64 717 -22 826 -10 l 933 23 b 1075 37 976 -10 1040 -6 l 1110 81 l 347 683 l 347 261 z m 1343 231 b 1312 297 1343 256 1333 280 l 908 625 l 876 597 l 807 651 l 984 814 b 1046 811 1002 829 1030 828 b 1043 749 1059 793 1061 766 l 972 685 l 1367 364 b 1388 343 1375 358 1382 351 l 1388 870 b 969 1044 1277 982 1127 1044 l 946 1044 b 888 1021 924 1044 903 1036 l 634 787 l 565 841 l 784 1042 l 766 1042 b 439 940 648 1042 535 1005 l 105 1201 b 65 1215 93 1211 79 1215 b 14 1190 46 1215 27 1207 b 25 1099 -8 1162 -3 1121 l 1628 -157 b 1720 -146 1657 -180 1698 -174 b 1709 -55 1742 -118 1737 -77 l 1343 231 z "},"":{"ha":1736,"x_min":0,"x_max":0,"o":"m 1649 241 b 1584 176 1613 241 1584 212 b 1649 111 1584 140 1613 111 b 1714 176 1685 111 1714 140 b 1649 241 1714 212 1685 241 z m 1294 469 b 1096 976 1238 597 1163 881 b 635 1215 992 1124 821 1215 l 521 1215 b 0 694 233 1215 0 982 b 174 307 0 541 67 403 l 174 -174 l 779 -174 l 779 -87 l 952 -87 b 1126 84 1048 -87 1126 -9 l 868 87 b 781 174 820 87 781 126 b 868 260 781 222 820 260 l 1128 260 l 1128 347 l 1215 347 b 1294 469 1278 347 1320 412 z m 911 608 b 825 694 864 608 825 647 b 911 781 825 742 864 781 b 998 694 959 781 998 742 b 911 608 998 647 959 608 z m 1302 241 b 1239 176 1266 241 1239 212 b 1302 111 1239 140 1269 111 b 1367 176 1336 111 1367 140 b 1302 241 1367 212 1338 241 z m 1649 371 b 1714 436 1685 371 1714 401 b 1649 502 1714 472 1685 502 b 1584 436 1613 502 1584 472 b 1649 371 1584 401 1613 371 z m 1476 371 b 1413 306 1440 371 1413 342 b 1476 241 1413 270 1442 241 b 1541 306 1509 241 1541 270 b 1476 371 1541 342 1512 371 z m 1476 111 b 1413 46 1440 111 1413 82 b 1476 -19 1413 10 1442 -19 b 1541 46 1509 -19 1541 10 b 1476 111 1541 82 1512 111 z m 1649 -19 b 1584 -84 1613 -19 1584 -48 b 1649 -149 1584 -120 1613 -149 b 1714 -84 1685 -149 1714 -120 b 1649 -19 1714 -48 1685 -19 z "},"":{"ha":1736,"x_min":0,"x_max":0,"o":"m 1647 371 b 1712 434 1683 371 1712 401 b 1647 497 1712 468 1683 497 b 1584 434 1611 497 1584 468 b 1647 371 1584 401 1613 371 z m 1647 111 b 1712 176 1683 111 1712 140 b 1647 239 1712 212 1683 239 b 1582 174 1611 239 1582 210 b 1647 111 1582 138 1613 111 z m 1711 -57 l 1195 347 l 1215 347 b 1295 467 1278 347 1320 412 b 1096 973 1240 595 1163 878 b 635 1215 992 1124 821 1215 l 521 1215 b 217 1114 407 1215 302 1177 l 105 1201 b 65 1215 93 1211 79 1215 b 14 1190 46 1215 27 1207 b 25 1099 -8 1162 -3 1121 l 1628 -157 b 1720 -146 1657 -180 1698 -174 b 1711 -57 1745 -120 1739 -79 z m 868 89 b 784 174 820 89 784 128 b 868 263 784 219 820 263 l 884 263 l 49 914 b 0 697 18 847 0 776 b 174 309 0 543 67 405 l 174 -171 l 779 -171 l 779 -87 l 952 -87 b 1124 70 1043 -87 1116 -18 l 1103 87 l 868 87 z m 868 89 z m 1473 241 b 1538 306 1509 241 1538 270 b 1473 369 1538 342 1509 369 b 1408 304 1437 369 1408 340 b 1473 241 1408 268 1440 241 z "},"":{"ha":1389,"x_min":0,"x_max":0,"o":"m 0 715 b 174 307 -6 553 62 407 l 174 -174 l 608 -174 l 608 357 l 10 792 b 0 715 5 767 1 741 z m 911 217 l 1345 217 l 1389 347 l 697 347 l 697 -174 l 1093 -174 b 1257 -55 1167 -174 1234 -126 l 1259 -43 l 914 -43 b 870 0 890 -43 870 -24 b 914 43 870 24 890 43 l 1290 43 l 1319 130 l 914 130 b 871 174 890 130 871 150 b 911 217 868 197 888 217 z m 1381 469 b 1183 976 1327 597 1250 881 b 722 1215 1079 1124 907 1215 l 543 1215 b 36 880 318 1215 115 1078 l 649 434 l 1388 434 b 1381 469 1388 446 1386 458 z m 955 608 b 868 694 907 608 868 647 b 955 781 868 742 907 781 b 1039 694 1003 781 1039 742 b 955 608 1039 647 1003 608 z "},"":{"ha":1389,"x_min":0,"x_max":0,"o":"m 564 740 b 521 697 540 740 521 721 b 562 656 521 673 540 656 b 605 699 583 656 605 675 b 564 740 608 718 588 740 z m 738 567 b 697 523 714 567 697 547 b 740 480 697 499 716 480 b 784 523 764 480 784 499 b 738 567 781 545 762 567 z m 1381 469 b 1183 976 1324 597 1250 881 b 722 1215 1079 1124 908 1215 l 521 1215 b 0 694 233 1215 0 982 b 174 307 0 540 67 402 l 174 -174 l 868 -174 l 868 0 l 1042 0 b 1213 171 1137 0 1213 78 l 1213 347 l 1300 347 b 1381 469 1365 347 1407 412 z m 998 564 l 965 564 b 904 416 888 564 849 471 l 927 393 b 927 331 944 376 944 348 b 897 319 919 323 908 319 b 866 331 885 319 874 323 l 843 355 b 694 293 788 409 694 371 l 694 260 b 651 217 694 236 675 217 b 608 260 627 217 608 236 l 608 293 b 459 355 608 371 514 409 l 436 331 b 406 319 428 323 417 319 b 375 331 394 319 383 323 b 375 393 358 348 358 376 l 398 416 b 337 564 453 471 414 564 l 304 564 b 260 608 280 564 260 584 b 304 651 260 632 280 651 l 337 651 b 398 799 414 651 453 745 l 375 822 b 375 884 358 839 358 867 b 436 884 392 901 419 901 l 460 861 b 608 922 514 806 608 845 l 608 955 b 651 998 608 979 627 998 b 694 955 675 998 694 979 l 694 922 b 843 861 694 845 788 806 l 866 884 b 927 884 883 901 910 901 b 927 822 944 867 944 839 l 904 799 b 965 651 849 745 888 651 l 998 651 b 1039 608 1022 651 1039 632 b 998 564 1039 584 1022 564 z "},"":{"ha":1563,"x_min":0,"x_max":0,"o":"m 1388 435 l 1390 1 b 1217 -174 1391 -95 1313 -174 l 347 -174 b 174 0 252 -174 174 -96 l 174 435 l 87 435 b 0 522 38 435 0 473 b 27 587 0 547 8 568 l 723 1194 b 782 1215 742 1213 763 1215 b 840 1196 801 1215 823 1210 l 1128 942 l 1128 1042 b 1215 1128 1128 1090 1167 1128 l 1302 1128 b 1389 1042 1350 1128 1389 1090 l 1389 713 l 1532 587 b 1562 522 1554 568 1565 547 b 1475 435 1562 473 1521 435 l 1388 435 z m 781 434 b 955 608 877 434 955 512 b 781 781 955 703 877 781 b 608 608 685 781 608 703 b 781 434 608 512 685 434 z m 521 87 l 1042 87 b 1085 130 1066 87 1085 106 b 868 347 1085 250 988 347 l 694 347 b 477 130 575 347 477 250 b 521 87 477 106 497 87 z "},"":{"ha":1736,"x_min":0,"x_max":0,"o":"m 592 1192 b 710 1192 626 1223 677 1223 l 1274 671 b 1302 608 1292 655 1302 632 l 911 608 b 781 549 860 608 813 585 l 781 651 b 738 694 781 675 762 694 l 564 694 b 521 651 540 694 521 675 l 521 477 b 564 434 521 454 540 434 l 735 434 l 735 87 l 304 87 b 174 217 232 87 174 145 l 174 521 l 87 521 b 6 576 51 521 19 543 b 28 671 -7 609 2 647 l 592 1192 z m 911 521 l 1519 521 b 1606 434 1567 521 1606 482 l 1606 0 l 1693 0 b 1736 -43 1717 0 1736 -20 b 1606 -174 1736 -115 1678 -174 l 822 -174 b 692 -43 753 -174 692 -115 b 735 0 692 -20 714 0 l 822 0 l 822 434 b 911 521 822 482 863 521 z m 955 391 l 955 0 l 1476 0 l 1476 391 l 955 391 z "},"":{"ha":1736,"x_min":0,"x_max":0,"o":"m 530 9 b 530 194 480 60 480 143 l 554 217 l 521 217 b 391 347 449 217 391 275 b 521 477 391 419 449 477 l 554 477 l 530 501 b 530 685 480 552 480 634 b 623 723 555 709 588 723 b 694 701 649 723 673 715 l 695 777 b 505 955 695 875 609 955 b 287 784 385 955 347 878 b 11 157 163 589 69 377 b 0 76 3 130 0 104 b 340 -164 0 -90 170 -210 l 501 -121 b 644 -27 560 -105 610 -71 b 623 -29 637 -28 630 -29 b 530 9 588 -28 555 -15 z m 931 806 l 933 1172 b 890 1215 933 1196 914 1215 l 846 1215 b 803 1172 822 1215 803 1196 l 801 806 b 863 825 820 818 842 825 b 931 806 885 825 914 818 z m 1144 71 b 1144 132 1161 88 1161 115 l 1121 156 b 1182 304 1066 210 1105 304 l 1215 304 b 1259 347 1239 304 1259 323 b 1215 391 1259 371 1239 391 l 1182 391 b 1121 539 1105 391 1066 484 l 1144 562 b 1144 624 1161 579 1161 607 b 1083 624 1127 640 1100 640 l 1060 600 b 911 662 1005 546 911 584 l 911 694 b 868 735 911 718 892 735 b 825 694 844 735 825 716 l 825 662 b 676 600 825 584 731 546 l 653 623 b 592 623 636 640 609 640 b 592 562 575 606 575 579 l 615 539 b 554 391 670 484 631 391 l 521 391 b 477 347 497 391 477 371 b 521 304 477 323 497 304 l 554 304 b 615 156 631 304 670 210 l 592 132 b 592 71 575 115 575 88 b 623 58 600 62 611 58 b 653 71 634 58 645 62 l 676 94 b 825 33 731 149 825 110 l 825 0 b 868 -43 825 -24 844 -43 b 911 0 892 -43 911 -24 l 911 33 b 1060 94 911 110 1005 149 l 1083 71 b 1114 58 1091 62 1102 58 b 1144 71 1125 58 1136 63 z m 781 393 b 738 434 757 393 738 412 b 781 480 738 456 757 480 b 825 436 805 480 825 458 b 781 393 825 415 805 393 z m 955 219 b 911 263 931 219 911 239 b 955 304 911 287 931 304 b 998 260 979 304 998 284 b 955 219 998 236 979 219 z m 1726 157 b 1449 784 1667 377 1574 589 b 1232 955 1389 878 1351 955 b 1042 777 1127 955 1042 875 l 1042 701 b 1114 723 1063 715 1088 723 b 1206 685 1148 723 1181 709 b 1206 501 1256 634 1256 552 l 1182 477 l 1215 477 b 1345 347 1287 477 1345 419 b 1215 217 1345 275 1287 217 l 1182 217 l 1206 194 b 1206 10 1256 143 1256 60 b 1114 -28 1181 -15 1148 -28 b 1093 -26 1106 -28 1099 -28 b 1235 -121 1127 -71 1176 -105 l 1396 -164 b 1736 76 1567 -210 1736 -90 b 1726 157 1736 104 1733 130 z "},"":{"ha":1563,"x_min":0,"x_max":0,"o":"m 260 390 b 297 477 260 423 274 455 l 493 662 b 508 672 498 666 503 668 b 347 781 480 736 420 781 l 174 781 b 0 608 78 781 0 703 l 0 347 b 84 260 0 299 39 260 l 87 -87 b 174 -174 87 -135 126 -174 l 347 -174 b 434 -87 395 -174 434 -135 l 434 175 l 297 304 b 260 390 272 326 260 358 z m 1302 868 b 1476 1042 1398 868 1476 946 b 1302 1215 1476 1138 1398 1215 b 1128 1042 1206 1215 1128 1138 b 1302 868 1128 946 1206 868 z m 260 868 b 434 1042 356 868 434 946 b 260 1215 434 1138 356 1215 b 87 1042 164 1215 87 1138 b 260 868 87 946 164 868 z m 1206 414 l 1010 599 b 975 605 1000 608 987 610 b 955 575 963 600 955 588 l 955 477 l 608 477 l 608 575 b 588 605 608 588 600 600 b 553 599 576 610 562 610 l 357 414 b 357 367 344 402 344 379 l 553 182 b 588 176 562 173 576 171 b 608 206 600 181 608 193 l 608 304 l 955 304 l 955 206 b 975 176 955 193 963 181 b 1010 182 987 171 1000 173 l 1205 367 b 1206 414 1219 379 1219 402 z m 1389 781 l 1215 781 b 1054 672 1144 781 1080 736 b 1069 662 1059 668 1065 666 l 1265 477 b 1302 390 1289 455 1302 423 b 1265 304 1302 357 1289 326 l 1128 175 l 1128 -87 b 1215 -174 1128 -135 1167 -174 l 1389 -174 b 1476 -87 1437 -174 1476 -135 l 1476 260 b 1563 347 1524 260 1563 299 l 1563 608 b 1389 781 1563 703 1485 781 z "},"":{"ha":1736,"x_min":0,"x_max":0,"o":"m 646 778 l 537 1160 b 578 1215 529 1188 550 1215 l 731 1215 b 806 1172 762 1215 791 1199 l 1079 694 l 1395 694 b 1649 521 1488 694 1649 616 b 1395 347 1649 423 1488 347 l 1195 347 l 1711 -57 b 1722 -149 1739 -79 1745 -120 b 1631 -160 1700 -177 1659 -182 l 25 1099 b 14 1190 -3 1121 -8 1162 b 105 1201 36 1219 77 1224 l 646 778 z m 113 866 l 983 180 l 806 -130 b 731 -174 791 -157 762 -174 l 578 -174 b 537 -118 550 -174 529 -146 l 670 350 l 391 350 l 273 191 b 239 174 265 180 252 174 l 125 174 b 87 214 104 174 87 191 b 88 222 87 215 87 219 l 174 523 l 88 819 b 87 830 87 823 87 827 b 113 866 87 847 95 861 l 113 866 z "},"":{"ha":1042,"x_min":0,"x_max":0,"o":"m 1029 960 l 911 1078 b 789 1128 876 1110 835 1128 l 608 1128 b 521 1215 608 1176 569 1215 l 345 1215 b 258 1128 297 1215 258 1176 l 260 868 l 608 868 l 608 955 l 789 955 l 906 837 b 968 837 923 820 951 820 l 1029 899 b 1029 960 1046 916 1046 943 z m 639 781 l 229 781 b 56 623 139 781 64 713 l 1 16 b 174 -174 -9 -86 72 -174 l 692 -174 b 865 16 794 -174 874 -86 l 810 623 b 639 781 804 713 729 781 z m 649 311 b 612 275 649 291 632 275 l 504 275 l 504 166 b 468 130 504 147 488 130 l 395 130 b 359 166 375 130 359 147 l 359 275 l 253 275 b 217 311 233 275 217 291 l 217 383 b 253 419 217 403 233 419 l 362 419 l 362 528 b 398 564 362 550 378 564 l 470 564 b 506 528 490 564 506 548 l 506 420 l 615 420 b 651 383 635 420 651 403 l 651 311 z m 649 311 z "},"":{"ha":1042,"x_min":0,"x_max":0,"o":"m 639 781 l 229 781 b 56 623 139 781 64 713 l 1 16 b 174 -174 -9 -86 72 -174 l 692 -174 b 865 16 794 -174 874 -86 l 810 623 b 639 781 804 713 729 781 z m 432 87 b 260 246 338 87 260 158 b 411 510 260 314 364 451 b 457 510 422 524 446 524 b 608 246 504 451 608 314 b 432 87 608 158 530 87 z m 1029 960 l 911 1078 b 789 1128 876 1110 835 1128 l 608 1128 b 521 1215 608 1176 569 1215 l 345 1215 b 258 1128 297 1215 258 1176 l 260 868 l 608 868 l 608 955 l 789 955 l 906 837 b 968 837 923 820 951 820 l 1029 899 b 1029 960 1046 916 1046 943 z "},"":{"ha":1389,"x_min":0,"x_max":0,"o":"m 781 523 b 738 480 757 523 738 504 b 781 439 738 456 757 439 b 825 480 805 439 825 458 b 781 523 825 501 805 523 z m 608 697 b 564 653 584 697 564 677 b 605 610 564 630 584 610 b 649 653 627 610 649 630 b 608 697 651 675 632 697 z m 1265 988 l 745 1205 b 695 1215 731 1211 709 1215 b 645 1205 680 1215 658 1211 l 124 988 b 43 870 75 968 43 921 b 694 -174 43 170 557 -174 b 1345 868 835 -174 1345 174 b 1265 988 1345 921 1314 968 z m 1042 523 l 1009 523 b 922 436 956 523 922 480 b 947 375 922 415 930 393 l 971 352 b 983 321 979 343 983 332 b 940 280 983 298 965 280 b 909 293 929 280 918 284 l 886 316 b 825 342 868 334 847 342 b 738 255 781 342 738 307 l 738 222 b 694 179 738 198 718 179 b 651 222 670 179 651 198 l 651 255 b 564 342 651 307 608 342 b 503 316 542 342 521 334 l 480 293 b 449 280 471 284 460 280 b 406 321 424 280 406 300 b 418 352 406 332 410 343 l 442 375 b 467 436 459 393 467 414 b 380 523 467 480 432 523 l 347 523 b 304 567 323 523 304 543 b 347 610 304 591 323 610 l 380 610 b 467 698 432 610 467 653 b 441 758 467 719 459 741 l 418 779 b 406 810 410 787 406 799 b 449 851 406 833 424 851 b 480 838 460 851 471 846 l 503 817 b 564 792 521 799 542 792 b 651 879 608 792 651 826 l 651 914 b 695 957 651 938 671 957 b 738 914 719 957 738 938 l 738 881 b 825 794 738 829 781 794 b 886 820 847 794 868 802 l 909 843 b 940 856 918 851 929 856 b 983 815 965 856 983 835 b 971 784 983 804 979 792 l 947 761 b 922 700 930 743 922 721 b 1009 613 922 655 957 613 l 1042 613 b 1085 569 1066 613 1085 593 b 1042 523 1085 545 1066 523 z "},"":{"ha":1389,"x_min":0,"x_max":0,"o":"m 1345 434 l 1085 434 l 1085 521 l 1259 521 b 1302 562 1283 521 1302 540 l 1302 603 b 1259 646 1302 627 1283 646 l 1042 651 b 955 564 994 651 955 612 l 955 436 l 781 436 l 781 957 b 868 1044 781 1005 820 1044 b 955 957 916 1044 955 1005 l 955 914 b 998 870 955 890 974 870 l 1085 870 b 1128 914 1109 870 1128 890 l 1128 957 b 816 1213 1128 1118 982 1245 b 608 945 693 1186 608 1071 l 608 434 l 434 434 l 434 564 b 347 651 434 612 395 651 l 130 651 b 87 608 106 651 87 632 l 87 567 b 130 521 87 540 106 521 l 304 521 l 304 434 l 43 434 b 0 391 19 434 0 415 l 0 304 b 43 260 0 280 19 260 l 1345 260 b 1389 304 1369 260 1389 280 l 1389 391 b 1345 434 1389 414 1369 434 z m 87 87 b 347 -174 87 -57 203 -174 l 1042 -174 b 1302 87 1185 -174 1302 -57 l 1302 174 l 87 174 l 87 87 z "},"":{"ha":1389,"x_min":0,"x_max":0,"o":"m 868 521 b 1042 694 964 521 1042 599 b 868 868 1042 790 964 868 b 694 694 772 868 694 790 b 868 521 694 599 772 521 z m 434 434 b 260 260 338 434 260 356 b 434 87 260 165 338 87 l 955 87 b 1128 260 1051 87 1128 165 b 955 434 1128 356 1051 434 l 434 434 z m 1042 1042 b 1128 1128 1090 1042 1128 1081 b 1042 1215 1128 1176 1090 1215 b 955 1128 994 1215 955 1176 b 1042 1042 955 1081 994 1042 z m 564 955 b 694 1085 636 955 694 1013 b 564 1215 694 1157 636 1215 b 434 1085 492 1215 434 1157 b 564 955 434 1013 492 955 z m 1128 694 b 1045 504 1128 619 1096 552 b 1215 260 1144 467 1215 372 b 955 0 1215 117 1099 0 l 434 0 b 174 260 290 0 174 117 b 434 521 174 404 290 521 l 675 521 b 608 694 634 569 608 627 l 260 694 b 0 434 117 694 0 580 l 0 87 b 260 -174 0 -57 117 -174 l 1128 -174 b 1389 87 1272 -174 1389 -57 l 1389 434 b 1128 694 1389 580 1272 694 z "},"":{"ha":1215,"x_min":0,"x_max":0,"o":"m 749 521 b 781 553 749 539 763 553 b 814 521 799 553 814 539 l 814 260 b 781 228 814 243 799 228 b 749 260 763 228 749 243 l 749 521 z m 738 1215 b 825 1128 786 1215 825 1176 b 738 1042 825 1081 786 1042 l 694 1042 l 694 948 b 965 827 796 933 889 890 l 1024 886 b 1146 886 1058 920 1112 920 b 1146 763 1180 852 1180 797 l 1081 698 b 1172 391 1139 610 1172 504 b 608 -174 1172 79 919 -174 b 43 391 296 -174 43 79 b 521 948 43 673 250 907 l 521 1042 l 477 1042 b 391 1128 429 1042 391 1081 b 477 1215 391 1176 429 1215 l 738 1215 z m 781 662 b 640 521 703 662 640 599 l 640 260 b 781 119 640 183 703 119 b 922 260 859 119 922 183 l 922 521 b 781 662 922 599 859 662 z m 467 519 l 467 513 b 457 487 467 503 463 494 l 350 368 b 293 216 313 326 293 272 l 293 174 b 347 119 293 144 315 119 l 521 119 b 575 174 551 119 575 144 b 521 228 575 206 551 228 l 402 228 b 432 295 404 253 415 276 l 538 414 b 573 513 562 442 573 477 l 573 519 b 433 662 573 598 511 662 b 297 565 371 662 317 623 l 296 560 b 330 493 286 531 302 500 b 396 525 359 481 389 497 l 400 530 b 433 553 405 544 418 553 b 464 519 451 553 464 538 l 467 519 z "},"":{"ha":1736,"x_min":0,"x_max":0,"o":"m 201 1126 l 222 1157 b 330 1215 246 1194 286 1215 l 1406 1215 b 1514 1157 1450 1215 1490 1194 l 1719 850 b 1736 794 1730 833 1736 814 b 1636 694 1736 739 1691 694 l 752 694 l 868 604 l 868 608 l 1042 608 l 1042 467 l 1389 198 l 1389 608 l 1563 608 l 1563 59 l 1711 -57 b 1722 -149 1739 -79 1745 -120 b 1631 -160 1700 -177 1659 -182 l 25 1099 b 14 1190 -3 1121 -8 1162 b 105 1201 36 1219 77 1224 l 201 1126 z m 0 794 b 17 850 0 814 6 833 l 57 910 l 330 694 l 100 694 b 0 794 45 694 0 739 l 0 794 z m 868 174 l 868 271 l 1042 134 l 1042 -43 b 911 -174 1042 -115 983 -174 l 304 -174 b 174 -43 232 -174 174 -115 l 174 608 l 347 608 l 347 174 l 868 174 z "},"":{"ha":1736,"x_min":0,"x_max":0,"o":"m 257 1082 l 319 1180 b 384 1215 333 1202 358 1215 l 1352 1215 b 1417 1180 1378 1215 1403 1202 l 1572 934 b 1431 610 1653 806 1581 630 b 1398 608 1420 608 1410 608 b 1222 686 1328 608 1265 639 b 1045 608 1178 639 1115 608 b 868 686 974 608 911 639 b 817 644 853 670 836 655 l 1302 263 l 1302 535 b 1398 521 1332 526 1365 521 b 1442 524 1413 521 1428 522 l 1442 524 b 1476 530 1452 525 1465 527 l 1476 127 l 1711 -57 b 1722 -149 1739 -79 1745 -120 b 1631 -160 1700 -177 1659 -182 l 25 1099 b 14 1190 -3 1121 -8 1162 b 105 1201 36 1219 77 1224 l 257 1082 z m 304 610 b 133 850 185 626 116 740 l 421 623 b 337 608 395 613 367 608 b 304 610 326 608 315 608 l 304 610 z m 434 174 l 991 174 l 1397 -146 b 1302 -174 1369 -163 1337 -174 l 434 -174 b 260 0 338 -174 260 -96 l 260 530 b 291 524 271 527 282 525 l 293 524 b 337 521 307 522 322 521 b 434 535 371 521 404 526 l 434 174 z "},"":{"ha":1736,"x_min":0,"x_max":0,"o":"m 174 697 l 174 230 b 89 -114 174 118 147 60 b 130 -169 80 -142 101 -169 l 892 -169 b 975 -109 930 -169 960 -145 b 1037 145 1002 -28 1027 47 l 180 812 b 174 697 176 774 174 735 z m 1711 -57 l 1413 176 b 1649 694 1546 201 1649 424 b 1386 1215 1647 982 1530 1215 b 1126 697 1243 1215 1126 982 b 1193 350 1126 563 1151 442 l 1039 470 l 1039 697 b 1203 1215 1039 924 1103 1113 l 432 1215 b 260 1080 367 1215 306 1164 l 105 1201 b 65 1215 93 1211 79 1215 b 14 1190 46 1215 27 1207 b 25 1099 -8 1162 -3 1121 l 1628 -157 b 1720 -146 1657 -180 1698 -174 b 1711 -57 1745 -120 1739 -79 z m 1300 697 b 1386 870 1300 793 1339 870 b 1473 697 1434 870 1473 793 b 1386 523 1473 601 1437 523 b 1300 697 1341 523 1300 598 z "},"":{"ha":1736,"x_min":0,"x_max":0,"o":"m 1389 781 b 1606 998 1509 781 1606 878 b 1389 1215 1606 1118 1509 1215 b 1172 998 1269 1215 1172 1118 b 1389 781 1172 878 1269 781 z m 1329 694 b 1232 672 1295 694 1262 686 b 1236 629 1234 658 1236 644 b 1146 391 1236 538 1202 455 l 1688 391 b 1736 441 1715 391 1736 413 b 1497 694 1736 581 1629 694 l 1329 694 z m 1076 441 b 1150 629 1121 490 1150 556 b 870 911 1150 785 1023 911 b 638 786 772 911 688 861 l 524 873 b 564 998 549 908 564 951 b 347 1215 564 1118 467 1215 b 184 1139 282 1215 224 1186 l 105 1201 b 65 1215 93 1211 79 1215 b 14 1190 46 1215 27 1207 b 25 1099 -8 1162 -3 1121 l 1628 -157 b 1720 -146 1657 -180 1698 -174 b 1709 -55 1742 -118 1737 -77 l 1076 441 z m 733 260 b 347 -101 520 260 347 98 b 424 -174 347 -141 382 -174 l 1312 -174 b 1382 -130 1343 -174 1370 -156 l 884 260 l 733 260 z m 505 556 l 330 694 l 239 694 b 0 441 107 694 0 581 b 48 391 0 413 21 391 l 589 391 b 505 556 549 437 520 493 z "},"":{"ha":1389,"x_min":0,"x_max":0,"o":"m 781 1097 b 1041 990 781 962 945 894 l 1063 1012 b 1185 1012 1097 1046 1152 1046 b 1185 889 1219 978 1219 923 l 1163 867 b 1271 608 1068 771 1136 608 l 1302 608 b 1389 521 1350 608 1389 569 b 1302 434 1389 473 1350 434 l 1271 434 b 1163 175 1136 434 1068 270 l 1185 152 b 1185 30 1219 119 1219 64 b 1063 30 1152 -4 1097 -4 l 1041 52 b 781 -56 945 148 781 80 l 781 -87 b 694 -174 781 -135 742 -174 b 608 -87 646 -174 608 -135 l 608 -56 b 348 52 608 80 444 148 l 326 30 b 203 30 292 -4 237 -4 b 203 152 169 64 169 119 l 226 175 b 118 434 321 270 253 434 l 87 434 b 0 521 39 434 0 473 b 87 608 0 569 39 608 l 118 608 b 226 867 253 608 321 771 l 203 889 b 203 1012 169 923 169 978 b 326 1012 237 1046 292 1046 l 348 990 b 608 1097 444 894 608 962 l 608 1128 b 694 1215 608 1176 646 1215 b 781 1128 742 1215 781 1176 l 781 1097 z m 608 738 b 477 608 536 738 477 680 b 608 477 477 536 536 477 b 738 608 680 477 738 536 b 608 738 738 680 680 738 z m 825 326 b 890 391 861 326 890 355 b 825 456 890 427 861 456 b 760 391 789 456 760 427 b 825 326 760 355 789 326 z "},"":{"ha":1736,"x_min":0,"x_max":0,"o":"m 307 598 l 251 598 b 174 521 208 598 174 563 b 251 444 174 478 208 444 l 309 444 b 418 180 447 444 516 277 l 377 139 b 377 30 347 109 347 60 b 432 7 392 15 412 7 b 486 30 451 7 471 15 l 527 71 b 791 -38 625 168 791 99 l 791 -97 b 868 -174 791 -139 825 -174 b 945 -97 911 -174 945 -139 l 945 -38 b 1072 113 945 43 1004 100 l 407 634 b 307 598 381 613 349 598 z m 1711 -57 l 1274 286 b 1427 444 1272 366 1333 444 l 1485 444 b 1563 521 1528 444 1563 478 b 1485 598 1563 564 1528 598 l 1427 598 b 1318 862 1289 598 1221 764 l 1359 903 b 1359 1012 1389 933 1389 982 b 1250 1012 1329 1042 1280 1042 l 1209 971 b 945 1080 1111 873 945 942 l 945 1138 b 866 1215 945 1181 911 1215 b 791 1138 825 1215 791 1181 l 791 1080 b 528 971 791 942 625 873 l 486 1012 b 377 1012 456 1042 407 1042 b 366 997 372 1007 369 1002 l 105 1201 b 65 1215 93 1211 79 1215 b 14 1190 46 1215 27 1207 b 25 1099 -8 1162 -3 1121 l 1628 -157 b 1720 -146 1657 -180 1698 -174 b 1711 -57 1745 -120 1739 -79 z m 906 573 l 718 721 b 781 738 737 732 758 738 b 909 610 853 738 909 680 b 906 573 909 596 909 585 z "},"":{"ha":1736,"x_min":0,"x_max":0,"o":"m 940 637 l 984 637 b 1042 694 1016 637 1042 662 b 984 752 1042 726 1016 752 l 940 752 b 858 950 837 752 785 877 l 889 981 b 889 1063 912 1004 912 1040 b 807 1063 867 1085 830 1085 l 776 1032 b 579 1114 703 959 579 1010 l 579 1157 b 521 1215 579 1189 553 1215 b 463 1157 489 1215 463 1189 l 463 1114 b 265 1032 463 1010 338 959 l 234 1063 b 153 1063 212 1085 175 1085 b 153 981 130 1040 130 1004 l 184 950 b 102 752 256 877 205 752 l 58 752 b 0 694 26 752 0 726 b 58 637 0 662 26 637 l 102 637 b 184 439 205 637 256 512 l 153 408 b 153 326 130 385 130 349 b 193 309 164 315 179 309 b 234 326 208 309 223 315 l 265 357 b 463 275 338 430 463 379 l 463 232 b 521 174 463 199 489 174 b 579 231 553 174 579 199 l 579 275 b 776 357 579 378 703 430 l 807 326 b 848 309 819 315 833 309 b 889 326 863 309 878 315 b 889 408 912 349 912 385 l 858 439 b 940 637 785 512 837 637 z m 434 694 b 347 781 386 694 347 733 b 434 868 347 829 386 868 b 521 781 482 868 521 829 b 434 694 521 733 482 694 z m 651 608 b 608 651 627 608 608 627 b 651 694 608 675 627 694 b 694 651 675 694 694 675 b 651 608 694 627 675 608 z m 1693 260 l 1660 260 b 1598 409 1582 260 1544 354 l 1622 432 b 1622 493 1639 449 1639 476 b 1560 493 1605 510 1577 510 l 1537 470 b 1389 531 1482 415 1389 454 l 1389 564 b 1345 608 1389 588 1369 608 b 1302 564 1322 608 1302 588 l 1302 531 b 1154 470 1302 454 1209 415 l 1131 493 b 1069 493 1114 510 1086 510 b 1069 432 1052 476 1052 449 l 1093 409 b 1031 260 1147 354 1108 260 l 998 260 b 955 217 974 260 955 241 b 998 174 955 193 974 174 l 1031 174 b 1093 25 1108 174 1147 80 l 1069 2 b 1069 -59 1052 -15 1052 -42 b 1100 -72 1078 -68 1089 -72 b 1131 -59 1111 -72 1122 -68 l 1154 -36 b 1302 -97 1208 19 1302 -20 l 1302 -130 b 1345 -174 1302 -154 1321 -174 b 1389 -130 1369 -174 1389 -154 l 1389 -97 b 1537 -36 1389 -20 1482 19 l 1560 -59 b 1591 -72 1569 -68 1580 -72 b 1622 -59 1602 -72 1613 -68 b 1622 2 1639 -42 1639 -15 l 1598 25 b 1660 174 1544 80 1583 174 l 1693 174 b 1736 217 1717 174 1736 193 b 1693 260 1736 241 1717 260 z m 1302 174 b 1215 260 1254 174 1215 212 b 1302 347 1215 308 1254 347 b 1389 260 1350 347 1389 308 b 1302 174 1389 212 1350 174 z "},"":{"ha":1215,"x_min":0,"x_max":0,"o":"m 1186 565 l 1042 781 l 1042 1128 b 955 1215 1042 1176 1003 1215 l 868 1215 b 832 1204 855 1215 843 1211 l 764 1159 b 451 1159 669 1096 546 1096 l 383 1204 b 347 1215 373 1211 360 1215 l 260 1215 b 174 1128 212 1215 174 1176 l 174 781 l 29 565 b 0 468 10 536 0 503 l 0 -87 b 87 -174 0 -135 39 -174 l 521 -174 l 521 434 b 525 461 521 443 522 453 l 562 571 l 407 1035 b 608 981 470 1000 538 981 b 808 1035 677 981 745 1000 l 608 434 l 608 -174 l 1128 -174 b 1215 -87 1176 -174 1215 -135 l 1215 468 b 1186 565 1215 503 1205 536 z m 356 208 l 226 78 b 195 65 218 69 206 65 b 165 78 184 65 173 69 b 165 139 148 95 148 122 l 295 269 b 356 269 312 286 339 286 b 356 208 373 252 373 225 z m 1051 78 b 1020 65 1042 69 1031 65 b 989 78 1009 65 998 69 l 859 208 b 859 269 842 225 842 252 b 920 269 876 286 904 286 l 1051 139 b 1051 78 1068 122 1068 95 z "},"":{"ha":1215,"x_min":0,"x_max":0,"o":"m 1186 565 l 1042 781 l 1042 1128 b 955 1215 1042 1176 1003 1215 l 868 1215 b 832 1204 855 1215 843 1211 l 764 1159 b 451 1159 669 1096 546 1096 l 383 1204 b 347 1215 373 1211 360 1215 l 260 1215 b 174 1128 212 1215 174 1176 l 174 781 l 29 565 b 0 468 10 536 0 503 l 0 -87 b 87 -174 0 -135 39 -174 l 521 -174 l 521 434 b 525 461 521 443 522 453 l 562 571 l 407 1035 b 608 981 470 1000 538 981 b 808 1035 677 981 745 1000 l 608 434 l 608 -174 l 1128 -174 b 1215 -87 1176 -174 1215 -135 l 1215 468 b 1186 565 1215 503 1205 536 z m 172 476 b 172 522 160 489 160 509 b 218 522 185 535 206 535 l 260 480 l 302 522 b 349 522 315 535 336 535 b 349 476 361 509 361 489 l 307 434 l 349 392 b 349 346 361 379 361 359 b 326 336 342 340 334 336 b 302 346 317 336 309 340 l 260 388 l 218 346 b 195 336 212 340 204 336 b 172 346 187 336 179 340 b 172 392 160 359 160 379 l 214 434 l 172 476 z m 260 -22 b 152 87 200 -22 152 27 b 260 195 152 147 200 195 b 369 87 320 195 369 147 b 260 -22 369 27 320 -22 z m 974 304 l 843 304 b 825 322 830 304 822 312 l 825 454 b 899 521 826 493 859 524 b 959 452 934 517 959 486 l 959 438 l 972 438 b 1041 378 1007 438 1038 413 b 974 304 1045 338 1014 305 z "},"":{"ha":1563,"x_min":0,"x_max":0,"o":"m 1266 260 l 868 658 l 582 373 b 460 373 548 339 493 339 l 25 807 b 25 929 -8 841 -8 895 b 148 929 59 963 114 963 l 518 557 l 807 843 b 929 843 841 876 895 876 l 1389 383 l 1389 610 b 1476 697 1389 656 1428 697 b 1562 610 1524 697 1562 656 l 1562 174 b 1476 87 1562 126 1524 87 l 1042 87 b 955 174 994 87 955 126 b 1042 260 955 222 994 260 l 1266 260 z "},"":{"ha":1563,"x_min":0,"x_max":0,"o":"m 1042 781 b 955 868 994 781 955 820 b 1042 955 955 916 994 955 l 1476 955 b 1563 868 1524 955 1563 916 l 1563 434 b 1476 347 1563 386 1524 347 b 1389 434 1428 347 1389 386 l 1389 658 l 929 199 b 807 199 895 165 841 165 l 518 485 l 148 112 b 25 112 114 78 59 78 b 25 235 -8 146 -8 201 l 460 669 b 582 669 493 703 548 703 l 868 383 l 1266 784 l 1042 781 z "},"":{"ha":1215,"x_min":0,"x_max":0,"o":"m 1042 260 l 1042 87 b 955 0 1042 39 1003 0 l 260 0 b 174 87 212 0 174 39 l 174 260 b 87 347 174 308 135 347 b 0 260 39 347 0 308 l 0 87 b 260 -174 0 -57 117 -174 l 955 -174 b 1215 87 1099 -174 1215 -57 l 1215 260 b 1128 347 1215 308 1176 347 b 1042 260 1081 347 1042 308 z m 546 1190 l 199 843 b 199 720 165 809 165 754 b 322 720 233 686 288 686 l 521 919 l 521 347 b 608 260 521 299 560 260 b 694 347 656 260 694 299 l 694 919 l 894 720 b 1016 720 927 686 982 686 b 1016 842 1050 754 1050 809 l 669 1190 b 546 1190 635 1224 580 1224 z "},"":{"ha":1215,"x_min":0,"x_max":0,"o":"m 882 608 l 1128 608 b 1215 521 1176 608 1215 569 b 1128 434 1215 473 1176 434 l 955 434 l 991 347 l 1128 347 b 1215 260 1176 347 1215 308 b 1128 174 1215 212 1176 174 l 1063 174 l 1122 33 b 1075 -80 1140 -11 1119 -62 b 962 -33 1028 -98 980 -78 l 875 174 l 340 174 l 254 -33 b 140 -80 235 -78 184 -98 b 93 33 96 -62 75 -11 l 152 174 l 87 174 b 0 260 39 174 0 212 b 87 347 0 308 39 347 l 224 347 l 260 434 l 87 434 b 0 521 39 434 0 473 b 87 608 0 569 39 608 l 333 608 l 528 1075 b 608 1128 541 1107 573 1128 b 688 1075 643 1128 674 1107 l 882 608 z m 694 608 l 605 816 l 518 608 l 694 608 z m 448 434 l 410 347 l 803 347 l 767 434 l 448 434 z "},"":{"ha":868,"x_min":0,"x_max":0,"o":"m 477 1128 l 477 1042 b 781 738 645 1042 781 906 b 725 562 781 672 760 611 b 868 304 811 508 868 413 b 564 0 868 136 732 0 l 477 0 l 477 -87 b 391 -174 477 -135 439 -174 b 304 -87 343 -174 304 -135 l 304 0 l 113 0 b 0 113 51 0 0 51 l 0 940 b 102 1042 0 996 46 1042 l 304 1042 l 304 1128 b 391 1215 304 1176 343 1215 b 477 1128 439 1215 477 1176 l 477 1128 z m 304 868 l 174 868 l 174 608 l 304 608 l 304 868 z m 608 738 b 477 868 608 810 549 868 l 477 608 b 608 738 549 608 608 666 z m 304 434 l 174 434 l 174 174 l 304 174 l 304 434 z m 564 174 b 694 304 636 174 694 232 b 564 434 694 376 636 434 l 477 434 l 477 174 l 564 174 z "},"":{"ha":868,"x_min":0,"x_max":0,"o":"m 130 1128 b 217 1215 130 1176 169 1215 b 304 1128 265 1215 304 1176 l 304 1042 l 391 1042 l 391 1128 b 477 1215 391 1176 429 1215 b 564 1128 525 1215 564 1176 l 564 1042 b 563 1029 564 1037 564 1033 b 781 738 689 992 781 876 b 725 562 781 672 760 611 b 868 304 811 508 868 413 b 564 0 868 136 732 0 l 564 -87 b 477 -174 564 -135 525 -174 b 391 -87 429 -174 391 -135 l 391 0 l 304 0 l 304 -87 b 217 -174 304 -135 265 -174 b 130 -87 169 -174 130 -135 l 130 0 l 113 0 b 0 113 51 0 0 51 l 0 940 b 102 1042 0 996 46 1042 l 130 1042 l 130 1128 z m 477 608 b 608 738 549 608 608 666 b 477 868 608 810 549 868 l 174 868 l 174 608 l 477 608 z m 174 434 l 174 174 l 564 174 b 694 304 636 174 694 232 b 564 434 694 376 636 434 l 174 434 z "},"":{"ha":1042,"x_min":0,"x_max":0,"o":"m 1034 747 b 977 781 1023 768 1001 781 l 552 781 l 690 1126 b 683 1187 698 1146 695 1169 b 629 1215 671 1205 649 1215 l 152 1215 b 87 1159 119 1215 92 1191 l 1 508 b 16 456 -2 489 4 470 b 65 434 28 442 46 434 l 462 434 l 349 -93 b 387 -166 342 -123 358 -154 b 412 -174 395 -172 404 -174 b 466 -145 433 -174 454 -163 l 1030 679 b 1034 747 1044 699 1045 725 z "},"":{"ha":1215,"x_min":0,"x_max":0,"o":"m 1215 304 l 1215 1085 b 1085 1215 1215 1157 1157 1215 l 955 1215 l 955 697 b 887 663 955 661 913 640 l 738 781 l 589 661 b 521 697 563 638 521 658 l 521 1215 l 260 1215 b 0 955 117 1215 0 1099 l 0 87 b 260 -174 0 -57 117 -174 l 1128 -174 b 1215 -87 1176 -174 1215 -135 b 1172 -13 1215 -55 1197 -28 l 1172 207 b 1215 304 1198 231 1215 265 z m 1042 0 l 260 0 b 174 87 212 0 174 39 b 260 174 174 135 212 174 l 1042 174 l 1042 0 z "},"":{"ha":1389,"x_min":0,"x_max":0,"o":"m 1259 955 l 1020 955 l 986 1044 b 865 1128 967 1095 919 1128 l 524 1128 b 402 1044 470 1128 421 1095 l 369 955 l 130 955 b 0 825 58 955 0 897 l 0 43 b 130 -87 0 -28 58 -87 l 1259 -87 b 1389 43 1331 -87 1389 -28 l 1389 825 b 1259 955 1389 897 1331 955 z m 968 220 b 694 87 902 135 802 87 b 465 175 608 87 528 119 l 413 123 b 347 150 388 99 347 116 l 347 357 b 374 384 347 372 359 384 l 583 384 b 609 319 616 384 633 343 l 556 267 b 694 217 595 235 643 217 b 866 301 762 217 824 247 b 957 312 888 329 929 334 b 968 220 985 290 990 249 z m 1042 511 b 1015 484 1042 496 1030 484 l 806 484 b 780 549 773 485 756 525 l 832 601 b 694 651 794 633 746 651 b 523 568 627 651 565 621 b 432 556 501 539 460 534 b 421 648 404 578 398 619 b 694 781 487 733 587 781 b 924 693 781 781 861 749 l 976 745 b 1042 718 1000 769 1042 752 l 1042 511 z "},"":{"ha":868,"x_min":0,"x_max":0,"o":"m 608 1034 b 833 938 691 1020 768 986 b 851 816 872 909 879 854 b 729 799 819 777 767 770 b 608 857 693 825 652 846 l 608 187 b 729 243 652 196 693 216 b 851 226 767 272 819 264 b 833 104 879 187 872 135 b 608 7 768 55 691 21 l 608 -87 b 521 -174 608 -135 569 -174 b 434 -87 473 -174 434 -135 l 434 7 b 0 521 188 49 0 263 b 434 1034 0 779 188 993 l 434 1128 b 521 1215 434 1176 473 1215 b 608 1128 569 1215 608 1176 l 608 1034 z m 434 857 b 174 523 284 819 174 683 b 434 187 174 359 284 223 l 434 857 z "},"":{"ha":1389,"x_min":0,"x_max":0,"o":"m 87 1128 b 174 1042 135 1128 174 1090 l 174 130 b 217 87 174 106 193 87 l 1302 87 b 1389 0 1350 87 1389 48 b 1302 -87 1389 -48 1350 -87 l 217 -87 b 0 130 97 -87 0 10 l 0 1042 b 87 1128 0 1090 39 1128 z m 434 608 b 521 521 482 608 521 569 l 521 347 b 434 260 521 299 482 260 b 347 347 386 260 347 299 l 347 521 b 434 608 347 569 386 608 z m 781 347 b 694 260 781 299 742 260 b 608 347 646 260 608 299 l 608 781 b 694 868 608 829 646 868 b 781 781 742 868 781 829 l 781 347 z m 955 694 b 1042 608 1003 694 1042 656 l 1042 347 b 955 260 1042 299 1003 260 b 868 347 907 260 868 299 l 868 608 b 955 694 868 656 907 694 z m 1302 347 b 1215 260 1302 299 1263 260 b 1128 347 1167 260 1128 299 l 1128 955 b 1215 1042 1128 1003 1167 1042 b 1302 955 1263 1042 1302 1003 l 1302 347 z "},"":{"ha":1389,"x_min":0,"x_max":0,"o":"m 87 1128 b 174 1042 135 1128 174 1090 l 174 130 b 217 87 174 106 193 87 l 1302 87 b 1389 0 1350 87 1389 48 b 1302 -87 1389 -48 1350 -87 l 217 -87 b 0 130 97 -87 0 10 l 0 1042 b 87 1128 0 1090 39 1128 z m 347 868 b 434 955 347 916 386 955 l 694 955 b 781 868 742 955 781 916 b 694 781 781 820 742 781 l 434 781 b 347 868 386 781 347 820 z m 955 694 b 1042 608 1003 694 1042 656 b 955 521 1042 560 1003 521 l 608 521 b 521 608 560 521 521 560 b 608 694 521 656 560 694 l 955 694 z m 1215 434 b 1302 347 1263 434 1302 395 b 1215 260 1302 299 1263 260 l 1042 260 b 955 347 994 260 955 299 b 1042 434 955 395 994 434 l 1215 434 z "},"":{"ha":1389,"x_min":0,"x_max":0,"o":"m 885 781 l 1230 1127 b 1215 1128 1225 1127 1220 1128 l 982 1128 l 635 781 l 885 781 z m 451 781 l 798 1128 l 548 1128 l 200 781 l 451 781 z m 1350 1063 l 1069 781 l 1389 781 l 1389 955 b 1350 1063 1389 996 1374 1033 z m 364 1128 l 174 1128 b 0 955 78 1128 0 1051 l 0 781 l 16 781 l 364 1128 z m 0 87 b 174 -87 0 -9 78 -87 l 1215 -87 b 1389 87 1311 -87 1389 -9 l 1389 694 l 0 694 l 0 87 z "},"":{"ha":1389,"x_min":0,"x_max":0,"o":"m 1389 395 b 1215 222 1389 300 1310 222 b 882 333 1109 222 974 284 b 993 1 932 241 993 106 b 820 -173 993 -95 916 -173 b 695 -119 771 -173 727 -152 b 569 -174 664 -153 618 -174 b 395 1 473 -174 395 -95 b 506 333 395 106 457 241 b 174 222 415 284 280 222 b 1 395 79 222 1 299 b 54 520 1 444 21 489 b 0 646 21 552 0 597 b 174 820 0 742 79 820 b 506 709 280 820 415 758 b 396 1041 457 803 396 936 b 569 1214 396 1137 473 1214 b 694 1161 618 1214 662 1194 b 820 1215 725 1194 768 1215 b 993 1041 916 1215 993 1137 b 882 709 993 936 932 800 b 1214 820 974 758 1109 820 b 1388 647 1310 820 1388 742 b 1335 521 1388 597 1367 553 b 1389 395 1368 490 1389 447 z "},"":{"ha":1389,"x_min":0,"x_max":0,"o":"m 868 -109 b 830 -168 868 -134 853 -158 b 759 -157 806 -178 776 -174 l 542 39 b 521 87 529 51 521 68 b 542 135 521 105 529 123 l 759 330 b 830 342 776 348 806 352 b 868 282 853 331 868 308 l 868 174 l 911 174 b 1085 347 1007 174 1085 251 l 1085 799 b 955 998 1008 835 955 909 b 1172 1215 955 1118 1052 1215 b 1389 998 1292 1215 1389 1118 b 1259 799 1389 909 1335 835 l 1259 347 b 911 0 1259 155 1103 0 l 868 0 l 868 -109 z m 1237 1001 b 1172 1066 1237 1034 1208 1066 b 1107 1001 1136 1066 1107 1034 b 1172 936 1107 962 1136 936 b 1237 1001 1208 936 1237 962 z m 521 1150 b 559 1210 521 1176 536 1199 b 630 1199 583 1220 610 1216 l 847 1003 b 868 955 860 991 868 973 b 847 907 868 936 860 919 l 630 711 b 559 700 610 694 583 690 b 521 760 536 710 521 734 l 521 868 l 477 868 b 304 694 382 868 304 790 l 304 242 b 434 43 381 209 434 132 b 217 -174 434 -76 337 -174 b 0 43 97 -174 0 -76 b 130 242 0 132 54 209 l 130 694 b 477 1042 130 886 286 1042 l 521 1042 l 521 1150 z m 152 43 b 217 -22 152 7 181 -22 b 282 43 253 -22 282 7 b 217 109 282 79 253 109 b 152 43 181 109 152 79 z "},"":{"ha":1215,"x_min":0,"x_max":0,"o":"m 434 998 b 304 799 434 909 381 835 l 304 694 b 391 608 304 646 343 608 l 825 608 b 911 694 873 608 911 646 l 911 799 b 781 998 835 835 781 909 b 998 1215 781 1118 878 1215 b 1215 998 1118 1215 1215 1118 b 1085 799 1215 909 1162 835 l 1085 694 b 825 434 1085 551 968 434 l 694 434 l 694 242 b 825 43 771 209 825 132 b 608 -174 825 -76 728 -174 b 391 43 488 -174 391 -76 b 521 242 391 132 444 209 l 521 434 l 391 434 b 130 694 247 434 130 551 l 130 799 b 0 998 54 835 0 909 b 217 1215 0 1118 97 1215 b 434 998 337 1215 434 1118 l 434 998 z m 217 933 b 282 998 253 933 282 962 b 217 1063 282 1034 253 1063 b 152 998 181 1063 152 1034 b 217 933 152 962 181 933 z m 998 933 b 1063 998 1034 933 1063 962 b 998 1063 1063 1034 1034 1063 b 933 998 962 1063 933 1034 b 998 933 933 962 962 933 z m 608 109 b 543 43 572 109 543 79 b 608 -22 543 7 572 -22 b 673 43 644 -22 673 7 b 608 109 673 79 644 109 z "},"":{"ha":1389,"x_min":0,"x_max":0,"o":"m 830 1210 b 868 1150 853 1199 868 1176 l 868 1042 l 911 1042 b 1259 694 1103 1042 1259 886 l 1259 242 b 1389 43 1335 209 1389 132 b 1172 -174 1389 -76 1292 -174 b 955 43 1052 -174 955 -76 b 1085 242 955 132 1008 209 l 1085 694 b 911 868 1085 790 1007 868 l 868 868 l 868 760 b 830 700 868 734 853 710 b 759 711 806 690 776 694 l 542 907 b 521 955 529 919 521 936 b 542 1003 521 973 529 991 l 759 1199 b 830 1210 776 1216 806 1220 l 830 1210 z m 1172 -22 b 1237 43 1208 -22 1237 7 b 1172 109 1237 79 1208 109 b 1107 43 1136 109 1107 79 b 1172 -22 1107 7 1136 -22 z m 304 242 b 434 43 381 209 434 132 b 217 -174 434 -76 337 -174 b 0 43 97 -174 0 -76 b 130 242 0 132 54 209 l 130 799 b 0 998 54 835 0 909 b 217 1215 0 1118 97 1215 b 434 998 337 1215 434 1118 b 304 799 434 909 381 835 l 304 242 z m 217 1063 b 152 998 181 1063 152 1034 b 217 933 152 962 181 933 b 282 998 253 933 282 962 b 217 1063 282 1034 253 1063 z m 217 109 b 152 43 181 109 152 79 b 217 -22 152 7 181 -22 b 282 43 253 -22 282 7 b 217 109 282 79 253 109 z "},"":{"ha":868,"x_min":0,"x_max":0,"o":"m 588 1037 b 665 1021 614 1034 640 1029 l 695 1150 b 802 1213 709 1196 756 1224 b 865 1107 849 1201 877 1154 l 822 944 b 833 938 828 942 831 940 b 851 816 872 909 879 854 b 782 784 834 794 809 782 l 637 193 b 729 243 670 205 701 222 b 851 226 767 272 819 264 b 833 104 879 187 872 135 b 590 5 764 52 680 17 l 562 -108 b 456 -171 550 -154 503 -183 b 391 -66 410 -160 382 -112 l 413 11 b 337 34 386 17 361 24 l 301 -108 b 196 -171 290 -154 242 -183 b 133 -66 149 -160 121 -112 l 181 126 b 0 521 70 222 0 363 b 407 1029 0 769 174 977 l 434 1150 b 542 1213 448 1196 495 1224 b 605 1107 588 1201 617 1154 l 588 1037 z m 356 827 b 174 521 247 770 174 653 b 231 329 174 450 195 384 l 356 827 z m 455 180 l 623 853 b 545 867 598 860 572 868 l 379 204 b 455 180 403 193 428 185 l 455 180 z "},"":{"ha":1042,"x_min":0,"x_max":0,"o":"m 432 123 l 432 521 b 518 608 432 569 473 608 b 576 588 542 608 561 600 b 671 608 605 601 637 608 b 802 568 718 608 763 594 l 830 550 b 853 429 869 523 880 469 b 733 405 827 389 771 379 l 706 423 b 671 434 695 430 683 434 b 608 371 636 434 608 406 l 608 87 b 897 197 716 87 820 129 b 1019 190 933 229 988 226 b 1013 70 1051 155 1048 100 b 608 -87 905 -28 763 -87 b 0 521 272 -87 0 185 b 608 1128 0 856 272 1128 b 1013 974 763 1128 905 1070 b 1019 851 1048 942 1051 887 b 897 844 988 815 933 812 b 608 955 820 913 716 955 b 171 521 368 955 171 761 b 432 123 171 343 281 192 l 432 123 z "},"":{"ha":1563,"x_min":0,"x_max":0,"o":"m 1432 1215 l 130 1215 b 0 1085 58 1215 0 1157 l 0 217 b 130 87 0 145 58 87 l 651 87 l 608 -43 l 412 -43 b 347 -109 377 -43 347 -73 b 412 -174 347 -144 377 -174 l 1150 -174 b 1215 -109 1186 -174 1215 -144 b 1150 -43 1215 -73 1186 -43 l 955 -43 l 911 87 l 1432 87 b 1563 217 1504 87 1563 145 l 1563 1085 b 1432 1215 1563 1157 1504 1215 z m 1389 260 l 174 260 l 174 1042 l 1389 1042 l 1389 260 z "},"":{"ha":1042,"x_min":0,"x_max":0,"o":"m 868 1042 b 955 955 916 1042 955 1003 b 868 868 955 907 916 868 l 868 174 b 781 87 868 126 829 87 b 702 138 746 87 716 108 b 521 87 649 106 587 87 b 174 434 329 87 174 242 b 521 781 174 626 329 781 b 694 735 584 781 643 764 l 694 868 l 608 868 b 521 955 560 868 521 907 b 608 1042 521 1003 560 1042 l 694 1042 b 781 1128 694 1090 733 1128 b 868 1042 829 1128 868 1090 l 868 1042 z m 694 434 b 521 608 694 530 617 608 b 347 434 425 608 347 530 b 521 260 347 338 425 260 b 694 434 617 260 694 338 z m 955 0 b 1042 -87 1003 0 1042 -39 b 955 -174 1042 -135 1003 -174 l 87 -174 b 0 -87 39 -174 0 -135 b 87 0 0 -39 39 0 l 955 0 z "},"":{"ha":1389,"x_min":0,"x_max":0,"o":"m 214 955 l 567 955 b 604 978 583 955 598 964 b 597 1021 611 993 608 1009 l 420 1203 b 361 1203 405 1219 376 1219 l 184 1021 b 177 978 173 1009 171 993 b 214 955 183 964 198 955 z m 968 967 b 1028 967 984 951 1013 951 l 1204 1149 b 1212 1192 1215 1161 1218 1177 b 1175 1215 1206 1206 1188 1215 l 822 1215 b 785 1192 806 1215 791 1206 b 792 1149 778 1178 781 1161 l 968 967 z m 1215 868 l 174 868 b 0 697 78 868 0 790 l 0 5 b 174 -174 0 -96 78 -174 l 1215 -174 b 1389 -2 1311 -174 1389 -96 l 1389 694 b 1215 868 1389 790 1311 868 z m 955 608 b 1085 477 1027 607 1085 549 b 955 347 1085 406 1027 347 b 825 477 883 347 825 406 b 955 608 825 549 883 607 z m 434 608 b 564 477 506 607 564 549 b 434 347 564 406 506 347 b 304 477 362 347 304 406 b 434 608 304 549 362 607 z m 651 0 l 217 0 l 217 130 b 347 260 217 202 275 260 l 521 260 b 651 130 593 260 651 202 l 651 0 z m 1172 0 l 738 0 l 738 130 b 868 260 738 202 796 260 l 1042 260 b 1172 130 1114 260 1172 202 l 1172 0 z "},"":{"ha":1563,"x_min":0,"x_max":0,"o":"m 10 1153 b 109 1215 28 1191 67 1215 l 1280 1215 b 1378 1153 1322 1215 1360 1191 b 1362 1038 1396 1115 1391 1071 l 1075 685 b 692 217 858 640 692 448 b 742 9 692 143 712 72 b 729 17 737 12 733 14 l 556 148 b 521 217 534 164 521 190 l 521 432 l 25 1038 b 10 1153 -2 1071 -8 1115 l 10 1153 z m 779 217 b 1172 608 779 433 956 608 b 1563 217 1388 608 1563 433 b 1172 -174 1563 1 1388 -174 b 779 217 956 -174 779 1 z m 1333 317 b 1333 378 1350 333 1350 361 b 1271 378 1316 395 1288 395 l 1172 278 l 1072 378 b 1011 378 1056 395 1028 395 b 1011 317 994 361 994 333 l 1111 217 l 1011 117 b 1011 56 994 101 994 73 b 1072 56 1028 39 1056 39 l 1172 156 l 1271 56 b 1333 56 1288 39 1316 39 b 1333 117 1350 73 1350 101 l 1233 217 l 1333 317 z "},"":{"ha":1042,"x_min":0,"x_max":0,"o":"m 955 1128 b 1042 1042 1003 1128 1042 1090 b 955 955 1042 994 1003 955 l 854 955 b 773 901 818 955 787 934 l 651 608 l 868 608 b 955 521 916 608 955 569 b 868 434 955 473 916 434 l 579 434 l 428 74 b 188 -87 388 -24 293 -87 l 87 -87 b 0 0 39 -87 0 -48 b 87 87 0 48 39 87 l 188 87 b 268 140 223 87 255 108 l 391 434 l 174 434 b 87 521 126 434 87 473 b 174 608 87 569 126 608 l 463 608 l 613 968 b 854 1128 651 1065 748 1128 l 955 1128 z "},"":{"ha":1389,"x_min":0,"x_max":0,"o":"m 1259 955 l 738 955 l 564 1128 l 130 1128 b 0 998 58 1128 0 1070 l 0 781 l 1389 781 l 1389 825 b 1259 955 1389 897 1331 955 z m 0 43 b 130 -87 0 -28 58 -87 l 1259 -87 b 1389 43 1331 -87 1389 -28 l 1389 694 l 0 694 l 0 43 z "},"":{"ha":868,"x_min":0,"x_max":0,"o":"m 781 1128 b 868 1042 829 1128 868 1090 b 781 955 868 994 829 955 l 304 955 l 304 694 l 694 694 b 781 608 742 694 781 656 b 694 521 781 560 742 521 l 304 521 l 304 347 l 521 347 b 608 260 569 347 608 308 b 521 174 608 212 569 174 l 304 174 l 304 0 b 217 -87 304 -48 265 -87 b 130 0 169 -87 130 -48 l 130 174 l 87 174 b 0 260 39 174 0 212 b 87 347 0 308 39 347 l 130 347 l 130 1042 b 217 1128 130 1090 169 1128 l 781 1128 z "},"":{"ha":1042,"x_min":0,"x_max":0,"o":"m 608 1128 l 608 1034 b 885 893 715 1016 811 966 b 887 770 920 859 920 804 b 764 769 853 736 798 738 b 608 857 721 811 668 842 l 608 608 l 955 608 b 1042 521 1003 608 1042 569 b 608 7 1042 263 854 49 l 608 -87 b 521 -174 608 -135 569 -174 b 434 -87 473 -174 434 -135 l 434 7 b 0 521 188 49 0 263 b 434 1034 0 779 188 993 l 434 1128 b 521 1215 434 1176 473 1215 b 608 1128 569 1215 608 1176 l 608 1128 z m 434 857 b 174 521 284 819 174 683 b 434 187 174 359 284 223 l 434 857 z m 608 187 b 855 434 727 216 826 314 l 608 434 l 608 187 z "},"":{"ha":1563,"x_min":0,"x_max":0,"o":"m 1476 1042 l 1432 1042 l 1432 1063 b 1367 1128 1432 1099 1403 1128 b 1302 1063 1331 1128 1302 1099 l 1302 1042 l 117 1042 b 0 924 52 1042 0 989 l 0 681 b 117 564 0 617 52 564 b 201 454 175 564 216 509 l 90 24 b 174 -87 74 -31 116 -87 l 455 -87 b 539 -24 494 -87 528 -61 l 614 260 l 871 260 b 1015 364 936 260 994 302 l 1081 564 l 1179 564 b 1241 590 1202 564 1224 573 l 1302 651 l 1476 651 b 1563 738 1524 651 1563 690 l 1563 955 b 1476 1042 1563 1003 1524 1042 z m 891 405 b 870 391 888 397 880 391 l 649 391 l 694 564 l 944 564 l 891 405 z m 1302 781 l 174 781 l 174 868 l 1302 868 l 1302 781 z "},"":{"ha":1389,"x_min":0,"x_max":0,"o":"m 868 955 b 911 998 892 955 911 974 l 911 1172 b 868 1215 911 1196 892 1215 b 825 1172 844 1215 825 1196 l 825 998 b 868 955 825 974 844 955 z m 1040 955 b 1076 974 1054 955 1068 962 l 1164 1104 b 1172 1128 1169 1112 1172 1120 b 1128 1172 1172 1153 1152 1172 b 1092 1153 1115 1172 1101 1165 l 1004 1023 b 997 998 999 1015 997 1007 b 1040 955 997 974 1016 955 z m 1042 245 l 1042 690 b 955 781 1042 706 1029 781 b 868 697 907 781 868 743 l 868 488 l 459 897 b 413 916 446 910 429 916 b 348 851 376 916 348 886 b 367 805 348 834 354 818 l 609 563 b 621 534 617 555 621 545 b 609 506 621 524 617 514 b 581 494 601 498 591 494 b 552 506 570 494 560 498 l 260 798 b 214 817 247 811 231 817 b 149 752 177 817 149 786 b 168 706 149 735 155 718 l 460 414 b 472 388 468 406 472 396 b 460 359 472 377 468 367 b 431 347 452 351 442 347 b 403 359 421 347 411 351 l 161 599 b 115 618 148 612 131 618 b 50 553 78 618 50 588 b 69 507 50 536 56 520 l 311 265 b 323 236 319 257 323 247 b 311 208 323 226 319 216 b 283 196 303 200 293 196 b 254 208 272 196 262 200 l 111 351 b 65 370 98 363 82 370 b 0 304 28 370 0 339 b 19 259 0 288 6 271 b 630 -174 305 -28 410 -174 b 1042 245 863 -174 1042 19 z m 660 974 b 696 955 668 962 682 955 b 739 998 720 955 739 974 b 732 1023 739 1007 737 1015 l 644 1153 b 605 1172 635 1165 621 1172 b 562 1128 582 1172 562 1153 b 569 1104 562 1120 564 1112 l 660 974 z m 1302 781 b 1215 694 1254 781 1215 742 l 1215 488 l 1128 575 l 1128 245 b 916 -167 1128 -10 957 -138 b 977 -174 936 -171 956 -174 b 1389 245 1210 -174 1389 19 l 1389 695 b 1302 781 1389 742 1350 781 z "},"":{"ha":1563,"x_min":0,"x_max":0,"o":"m 1562 522 b 1475 435 1562 473 1521 435 l 1388 435 l 1390 1 b 1217 -174 1391 -95 1313 -174 l 347 -174 b 174 0 252 -174 174 -96 l 174 435 l 87 435 b 0 522 38 435 0 473 b 27 587 0 547 8 568 l 723 1194 b 782 1215 742 1213 763 1215 b 840 1196 801 1215 823 1210 l 1532 587 b 1562 522 1554 568 1565 547 l 1562 522 z m 781 781 b 608 608 685 781 608 703 b 781 434 608 512 685 434 b 955 608 877 434 955 512 b 781 781 955 703 877 781 z m 694 347 b 477 130 575 347 477 250 b 521 87 477 106 497 87 l 1042 87 b 1085 130 1066 87 1085 106 b 868 347 1085 250 988 347 l 694 347 z "},"":{"ha":868,"x_min":0,"x_max":0,"o":"m 0 1042 b 87 1128 0 1090 39 1128 l 781 1128 b 868 1042 829 1128 868 1090 b 781 955 868 994 829 955 l 629 955 b 685 825 655 916 674 872 l 781 825 b 868 738 829 825 868 786 b 781 651 868 690 829 651 l 685 651 b 353 350 649 493 517 371 l 745 73 b 765 -50 782 43 793 -11 b 644 -71 737 -87 683 -98 l 36 363 b 4 461 6 388 -7 425 b 87 521 16 499 49 521 l 304 521 b 503 651 393 521 469 574 l 87 651 b 0 738 39 651 0 690 b 87 825 0 786 39 825 l 503 825 b 304 955 469 901 393 955 l 87 955 b 0 1042 39 955 0 994 l 0 1042 z "},"":{"ha":1042,"x_min":0,"x_max":0,"o":"m 495 608 l 955 608 b 1042 521 1003 608 1042 569 b 955 434 1042 473 1003 434 l 495 434 l 924 66 b 934 -56 961 35 965 -20 b 812 -66 903 -93 848 -97 l 347 332 l 347 0 b 260 -87 347 -48 308 -87 b 174 0 212 -87 174 -48 l 174 434 l 87 434 b 0 521 39 434 0 473 b 87 608 0 569 39 608 l 174 608 l 174 1042 b 260 1128 174 1090 212 1128 b 347 1042 308 1128 347 1090 l 347 710 l 812 1108 b 934 1098 848 1139 903 1135 b 924 976 965 1062 961 1007 l 495 608 z "},"":{"ha":1042,"x_min":0,"x_max":0,"o":"m 391 1128 b 477 1042 439 1128 477 1090 l 477 953 b 521 955 492 954 506 955 b 564 953 535 955 550 954 l 564 1042 b 651 1128 564 1090 603 1128 b 738 1042 699 1128 738 1090 l 738 908 b 1031 538 887 839 998 703 b 964 436 1041 493 1010 445 b 861 503 916 426 868 457 b 738 705 845 585 800 655 l 738 521 b 651 434 738 473 699 434 b 564 521 603 434 564 473 l 564 781 b 521 781 550 780 535 781 b 477 781 506 781 492 780 l 477 521 b 391 434 477 473 439 434 b 304 521 343 434 304 473 l 304 705 b 174 434 224 642 174 544 b 521 87 174 242 329 87 l 955 87 b 1042 0 1003 87 1042 48 b 955 -87 1042 -48 1003 -87 l 87 -87 b 0 0 39 -87 0 -48 b 87 87 0 48 39 87 l 133 87 b 0 434 50 179 0 301 b 304 908 0 644 125 825 l 304 1042 b 391 1128 304 1090 343 1128 l 391 1128 z "},"":{"ha":1042,"x_min":0,"x_max":0,"o":"m 347 685 l 671 778 b 778 718 717 791 765 764 b 718 611 791 672 764 624 l 347 505 l 347 87 l 955 87 b 1042 0 1003 87 1042 48 b 955 -87 1042 -48 1003 -87 l 260 -87 b 174 0 212 -87 174 -48 l 174 455 l 111 437 b 3 497 65 424 17 451 b 63 604 -10 543 17 591 l 174 636 l 174 1042 b 260 1128 174 1090 212 1128 b 347 1042 308 1128 347 1090 l 347 685 z "},"":{"ha":1042,"x_min":0,"x_max":0,"o":"m 608 1042 l 608 948 b 1042 434 854 906 1042 692 l 1042 0 b 955 -87 1042 -48 1003 -87 b 868 0 907 -87 868 -48 l 868 434 b 608 770 868 596 757 732 l 608 0 b 521 -87 608 -48 569 -87 b 434 0 473 -87 434 -48 l 434 770 b 174 434 284 732 174 596 l 174 0 b 87 -87 174 -48 135 -87 b 0 0 39 -87 0 -48 l 0 434 b 434 948 0 692 188 906 l 434 1042 b 521 1128 434 1090 473 1128 b 608 1042 569 1128 608 1090 z "},"":{"ha":1736,"x_min":0,"x_max":0,"o":"m 1075 979 l 1176 912 b 1321 868 1219 883 1269 868 l 1584 868 b 1736 716 1668 868 1736 800 l 1736 486 b 1490 170 1736 336 1634 206 l 1197 96 b 868 0 1102 38 989 0 b 540 96 747 0 634 38 l 247 170 b 0 486 102 206 0 336 l 0 716 b 152 868 0 800 68 868 l 416 868 b 560 912 467 868 517 883 l 661 979 b 868 1042 722 1020 794 1042 b 1075 979 942 1042 1014 1020 z m 359 276 b 260 608 297 371 260 485 l 260 738 l 152 738 b 130 716 140 738 130 728 l 130 486 b 278 296 130 396 191 318 l 359 276 z m 1606 486 l 1606 716 b 1584 738 1606 728 1596 738 l 1476 738 l 1476 608 b 1377 276 1476 485 1439 371 l 1458 296 b 1606 486 1545 318 1606 396 l 1606 486 z m 564 608 l 1172 608 b 1215 651 1196 608 1215 627 b 1172 694 1215 675 1196 694 l 564 694 b 521 651 540 694 521 675 b 564 608 521 627 540 608 z m 564 521 b 521 477 540 521 521 501 b 564 434 521 454 540 434 l 1172 434 b 1215 477 1196 434 1215 454 b 1172 521 1215 501 1196 521 l 564 521 z m 651 260 l 1085 260 b 1128 304 1109 260 1128 280 b 1085 347 1128 328 1109 347 l 651 347 b 608 304 627 347 608 328 b 651 260 608 280 627 260 z "},"":{"ha":1042,"x_min":0,"x_max":0,"o":"m 767 953 b 1042 651 921 939 1042 809 l 1042 87 b 955 0 1042 39 1003 0 b 868 87 907 0 868 39 l 868 651 b 738 781 868 723 810 781 b 704 777 726 781 715 780 l 608 506 l 608 87 b 521 0 608 39 569 0 b 444 47 487 0 458 21 l 385 -116 b 275 -168 369 -161 320 -185 b 222 -58 229 -152 206 -103 l 434 536 l 434 651 b 304 781 434 723 376 781 b 174 651 232 781 174 723 l 174 87 b 87 0 174 39 135 0 b 0 87 39 0 0 39 l 0 868 b 87 955 0 916 39 955 b 158 918 116 955 142 940 b 304 955 201 944 251 955 b 521 864 389 955 466 920 b 562 900 534 877 549 889 l 656 1158 b 767 1210 672 1203 722 1226 b 819 1099 812 1194 836 1144 l 767 953 z "},"":{"ha":1736,"x_min":0,"x_max":0,"o":"m 260 955 b 434 1128 260 1051 338 1128 l 1563 1128 b 1736 955 1658 1128 1736 1051 l 1736 347 b 1563 174 1736 251 1658 174 l 434 174 b 260 347 338 174 260 251 l 260 955 z m 434 347 l 608 347 b 434 521 608 443 530 521 l 434 347 z m 434 955 l 434 781 b 608 955 530 781 608 859 l 434 955 z m 1563 521 b 1389 347 1467 521 1389 443 l 1563 347 l 1563 521 z m 1389 955 b 1563 781 1389 859 1467 781 l 1563 955 l 1389 955 z m 998 868 b 781 651 878 868 781 771 b 998 434 781 531 878 434 b 1215 651 1118 434 1215 531 b 998 868 1215 771 1118 868 z m 130 239 b 326 43 130 131 218 43 l 1411 43 b 1476 -22 1447 43 1476 14 b 1411 -87 1476 -58 1447 -87 l 326 -87 b 0 239 146 -87 0 59 l 0 890 b 65 955 0 926 29 955 b 130 890 101 955 130 926 l 130 239 z "},"":{"ha":1215,"x_min":0,"x_max":0,"o":"m 712 521 l 868 521 l 868 1042 b 955 1128 868 1090 907 1128 b 1042 1042 1003 1128 1042 1090 l 1042 521 l 1128 521 b 1215 434 1176 521 1215 482 b 1128 347 1215 386 1176 347 l 1042 347 l 1042 0 b 980 -83 1042 -38 1017 -72 b 883 -48 943 -94 904 -80 l 619 347 l 347 347 l 347 0 b 260 -87 347 -48 308 -87 b 174 0 212 -87 174 -48 l 174 347 l 87 347 b 0 434 39 347 0 386 b 87 521 0 482 39 521 l 174 521 l 174 1042 b 235 1125 174 1080 199 1114 b 333 1090 272 1136 311 1122 l 712 521 z m 828 347 l 868 287 l 868 347 l 828 347 z m 503 521 l 347 755 l 347 521 l 503 521 z "},"":{"ha":1736,"x_min":0,"x_max":0,"o":"m 1568 1036 b 168 1036 1112 899 624 899 b 0 911 84 1061 0 999 l 0 44 b 168 -81 0 -44 82 -106 b 1568 -81 624 56 1109 56 b 1736 46 1650 -106 1736 -44 l 1736 911 b 1568 1036 1736 999 1652 1061 z m 347 608 b 260 694 299 608 260 646 b 347 781 260 742 299 781 b 434 694 395 781 434 742 b 347 608 434 647 395 608 z m 1287 161 b 868 195 1149 184 1009 195 b 460 163 731 195 595 184 b 418 230 422 157 395 199 l 551 416 b 586 434 559 428 572 434 b 621 416 600 434 613 427 l 709 295 l 962 673 b 998 694 970 687 984 694 b 1034 675 1013 694 1026 687 l 1330 227 b 1287 161 1351 196 1324 155 z "},"":{"ha":1042,"x_min":0,"x_max":0,"o":"m 521 1128 b 946 781 731 1128 904 979 l 955 781 b 1042 694 1003 781 1042 742 b 955 608 1042 646 1003 608 l 946 608 b 521 260 904 410 731 260 l 260 260 l 260 0 b 174 -87 260 -48 222 -87 b 87 0 126 -87 87 -48 l 87 608 b 0 694 39 608 0 646 b 87 781 0 742 39 781 l 87 1042 b 174 1128 87 1090 126 1128 l 521 1128 z m 766 781 b 521 955 731 882 634 955 l 260 955 l 260 781 l 766 781 z m 260 608 l 260 434 l 521 434 b 766 608 634 434 731 506 l 260 608 z "},"":{"ha":1042,"x_min":0,"x_max":0,"o":"m 477 1128 b 903 868 663 1128 824 1023 l 955 868 b 1042 781 1003 868 1042 829 b 955 694 1042 733 1003 694 l 953 694 b 955 651 954 680 955 666 b 953 608 955 636 954 622 l 955 608 b 1042 521 1003 608 1042 569 b 955 434 1042 473 1003 434 l 903 434 b 477 174 824 282 663 174 l 260 174 l 260 0 b 174 -87 260 -48 222 -87 b 87 0 126 -87 87 -48 l 87 434 b 0 521 39 434 0 473 b 87 608 0 569 39 608 l 87 694 b 0 781 39 694 0 733 b 87 868 0 829 39 868 l 87 1042 b 174 1128 87 1090 126 1128 l 477 1128 z m 690 868 b 477 955 635 922 560 955 l 260 955 l 260 868 l 690 868 z m 260 694 l 260 608 l 778 608 b 781 651 780 622 781 636 b 778 694 781 666 780 680 l 260 694 z m 690 434 l 260 434 l 260 347 l 477 347 b 690 434 560 347 635 380 z "},"":{"ha":1389,"x_min":0,"x_max":0,"o":"m 521 961 b 694 1215 521 1054 600 1215 b 868 961 792 1215 868 1054 l 868 781 l 1350 460 b 1389 388 1375 444 1389 417 l 1389 234 b 1332 195 1389 204 1360 183 l 868 350 l 868 130 l 1024 13 b 1042 -22 1035 5 1042 -6 l 1042 -133 b 1001 -174 1042 -157 1025 -174 b 993 -172 1000 -174 997 -173 l 694 -87 l 396 -172 b 385 -174 392 -173 389 -174 b 347 -133 364 -174 347 -157 l 347 -22 b 365 13 347 -6 354 5 l 521 130 l 521 350 l 57 195 b 0 234 29 183 0 204 l 0 388 b 39 460 0 417 15 444 l 521 781 l 521 961 z "},"":{"ha":1389,"x_min":0,"x_max":0,"o":"m 0 1042 b 87 1128 0 1090 39 1128 l 304 1128 b 694 738 519 1128 694 954 b 462 381 694 578 599 441 l 601 32 b 553 -81 619 -12 598 -63 b 440 -32 509 -98 458 -77 l 288 347 l 174 347 l 174 0 b 87 -87 174 -48 135 -87 b 0 0 39 -87 0 -48 l 0 1042 z m 174 521 l 304 521 b 521 738 424 521 521 618 b 304 955 521 858 424 955 l 174 955 l 174 521 z m 1085 781 b 1389 477 1253 781 1389 645 b 1085 174 1389 310 1253 174 l 955 174 l 955 -87 b 868 -174 955 -135 916 -174 b 781 -87 820 -174 781 -135 l 781 694 b 868 781 781 742 820 781 l 1085 781 z m 1215 477 b 1085 608 1215 549 1157 608 l 955 608 l 955 347 l 1085 347 b 1215 477 1157 347 1215 406 z "},"":{"ha":1563,"x_min":0,"x_max":0,"o":"m 1563 1042 b 1476 955 1563 994 1524 955 l 1215 955 l 1215 694 b 1128 608 1215 647 1176 608 l 868 608 l 868 347 b 781 260 868 299 829 260 l 521 260 l 521 0 b 434 -87 521 -48 482 -87 l 87 -87 b 0 0 39 -87 0 -48 b 87 87 0 48 39 87 l 347 87 l 347 347 b 434 434 347 395 386 434 l 694 434 l 694 694 b 781 781 694 742 733 781 l 1042 781 l 1042 1042 b 1128 1128 1042 1090 1080 1128 l 1476 1128 b 1563 1042 1524 1128 1563 1090 z "},"":{"ha":1736,"x_min":0,"x_max":0,"o":"m 434 608 l 1302 608 l 1302 756 b 1172 955 1225 792 1172 866 b 1389 1172 1172 1075 1269 1172 b 1606 955 1509 1172 1606 1075 b 1476 756 1606 866 1552 792 l 1476 608 l 1649 608 b 1736 521 1697 608 1736 569 b 1649 434 1736 473 1697 434 l 955 434 l 955 286 b 1085 87 1032 252 1085 176 b 868 -130 1085 -33 988 -130 b 651 87 748 -130 651 -33 b 781 286 651 176 704 252 l 781 434 l 87 434 b 0 521 39 434 0 473 b 87 608 0 569 39 608 l 260 608 l 260 756 b 130 955 184 792 130 866 b 347 1172 130 1075 227 1172 b 564 955 467 1172 564 1075 b 434 756 564 866 511 792 l 434 608 z m 347 890 b 412 955 383 890 412 919 b 347 1020 412 991 383 1020 b 282 955 311 1020 282 991 b 347 890 282 919 311 890 z m 1389 1020 b 1324 955 1353 1020 1324 991 b 1389 890 1324 919 1353 890 b 1454 955 1425 890 1454 919 b 1389 1020 1454 991 1425 1020 z m 868 22 b 933 87 904 22 933 51 b 868 152 933 123 904 152 b 803 87 832 152 803 123 b 868 22 803 51 832 22 z "},"":{"ha":1389,"x_min":0,"x_max":0,"o":"m 0 998 b 217 1215 0 1118 97 1215 l 1172 1215 b 1389 998 1292 1215 1389 1118 l 1389 217 b 1302 43 1389 146 1355 83 l 1302 -87 b 1215 -174 1302 -135 1263 -174 l 1128 -174 b 1042 -87 1080 -174 1042 -135 l 1042 0 l 347 0 l 347 -87 b 260 -174 347 -135 308 -174 l 174 -174 b 87 -87 126 -174 87 -135 l 87 43 b 0 217 34 83 0 146 l 0 998 z m 352 802 l 304 608 l 1085 608 l 1037 802 b 952 868 1027 843 992 868 l 434 868 b 352 802 397 868 362 843 l 352 802 z m 260 434 b 174 347 212 434 174 395 b 260 260 174 299 212 260 b 347 347 308 260 347 299 b 260 434 347 395 308 434 z m 1128 260 b 1215 347 1176 260 1215 299 b 1128 434 1215 395 1176 434 b 1042 347 1080 434 1042 395 b 1128 260 1042 299 1080 260 z "},"":{"ha":1042,"x_min":0,"x_max":0,"o":"m 260 1128 b 347 1042 308 1128 347 1090 l 347 946 l 671 1038 b 778 979 717 1051 765 1025 b 718 871 791 933 764 885 l 347 765 l 347 685 l 671 778 b 778 718 717 791 765 764 b 718 611 791 672 764 624 l 347 505 l 347 87 l 520 87 b 867 417 705 87 858 232 l 868 438 b 959 521 870 486 911 523 b 1039 430 1007 518 1044 478 l 1041 408 b 520 -87 1027 131 798 -87 l 260 -87 b 174 0 212 -87 174 -48 l 174 455 l 111 437 b 3 497 65 424 17 451 b 63 604 -10 543 17 591 l 174 636 l 174 716 l 111 698 b 3 757 65 685 17 711 b 63 865 -10 803 17 852 l 174 896 l 174 1042 b 260 1128 174 1090 212 1128 l 260 1128 z "},"":{"ha":1563,"x_min":0,"x_max":0,"o":"m 391 564 b 608 781 391 684 488 781 b 825 564 728 781 825 684 b 608 347 825 444 728 347 b 391 564 488 347 391 444 z m 1389 1215 b 1563 1042 1485 1215 1563 1138 l 1563 87 b 1389 -87 1563 -9 1485 -87 l 1345 -87 l 1302 -174 l 1128 -174 l 1085 -87 l 477 -87 l 434 -174 l 260 -174 l 217 -87 l 174 -87 b 0 87 78 -87 0 -9 l 0 1042 b 174 1215 0 1138 78 1215 l 1389 1215 z m 608 130 b 1042 564 847 130 1042 324 b 608 998 1042 804 847 998 b 174 564 368 998 174 804 b 608 130 174 324 368 130 z m 1302 615 b 1389 738 1353 633 1389 681 b 1259 868 1389 810 1331 868 b 1128 738 1187 868 1128 810 b 1215 615 1128 681 1165 633 l 1215 304 b 1259 260 1215 280 1235 260 b 1302 304 1283 260 1302 280 l 1302 615 z "},"":{"ha":1563,"x_min":0,"x_max":0,"o":"m 675 1202 b 694 1215 678 1210 686 1215 b 714 1202 703 1215 711 1210 l 752 1100 l 854 1061 b 868 1042 863 1058 868 1050 b 854 1022 868 1033 863 1025 l 752 984 l 714 882 b 694 868 711 873 703 868 b 675 882 686 868 678 873 l 637 984 l 532 1022 b 521 1042 524 1025 521 1033 b 532 1061 521 1050 524 1058 l 637 1100 l 675 1202 z m 1159 1177 b 1344 1177 1210 1228 1293 1228 l 1437 1083 b 1437 899 1488 1032 1488 950 l 403 -135 b 219 -135 352 -186 270 -186 l 125 -42 b 125 143 74 9 74 92 l 1159 1177 z m 1252 1054 l 967 770 l 1030 706 l 1315 991 l 1252 1054 z m 20 897 l 174 955 l 231 1108 b 260 1128 236 1120 247 1128 b 290 1108 273 1128 285 1120 l 347 955 l 500 897 b 521 868 513 893 521 881 b 500 839 521 855 513 843 l 347 781 l 290 628 b 260 608 285 616 273 608 b 231 628 247 608 236 616 l 174 781 l 20 839 b 0 868 8 843 0 855 b 20 897 0 881 8 893 z m 975 203 l 1128 260 l 1186 414 b 1215 434 1191 428 1202 434 b 1245 414 1228 434 1240 428 l 1302 260 l 1455 203 b 1476 174 1468 198 1476 187 b 1455 144 1476 161 1468 149 l 1302 87 l 1245 -66 b 1215 -87 1240 -79 1228 -87 b 1186 -66 1202 -87 1191 -79 l 1128 87 l 975 144 b 955 174 961 149 955 161 b 975 203 955 187 961 198 z "},"":{"ha":1389,"x_min":0,"x_max":0,"o":"m 1129 868 b 1039 868 1106 840 1064 840 b 1039 957 1014 891 1014 932 l 1278 1196 b 1367 1196 1303 1222 1344 1222 b 1367 1104 1395 1171 1395 1130 l 1129 868 z m 888 591 l 801 507 b 1013 405 878 497 954 464 l 1072 343 l 1013 282 b 645 282 911 180 746 180 l 611 315 l 525 228 b 736 128 600 221 677 188 l 798 67 l 736 6 b 368 6 635 -96 470 -96 l 335 39 l 148 -148 b 25 -148 114 -182 59 -182 b 25 -25 -8 -114 -8 -59 l 212 161 l 184 190 b 184 558 82 291 82 456 l 246 620 l 307 558 b 406 355 364 501 397 429 l 489 438 l 460 466 b 460 834 359 568 359 733 l 522 896 l 581 834 b 682 631 638 777 673 706 l 765 714 l 736 742 b 736 1110 635 844 635 1009 l 798 1172 l 859 1110 b 893 1072 872 1098 883 1085 l 1017 1196 b 1107 1196 1043 1222 1084 1222 b 1107 1104 1135 1171 1135 1130 l 951 946 b 948 769 965 888 964 827 b 1117 775 1003 785 1061 789 l 1278 936 b 1367 936 1303 961 1344 961 b 1367 846 1395 910 1395 869 l 1245 718 b 1289 681 1260 707 1275 695 l 1350 620 l 1289 558 b 921 558 1187 456 1022 456 l 888 591 z "},"":{"ha":1215,"x_min":0,"x_max":0,"o":"m 1128 1085 b 998 955 1128 1013 1070 955 b 868 1085 926 955 868 1013 b 998 1215 868 1157 926 1215 b 1128 1085 1070 1215 1128 1157 z m 469 1068 b 558 1077 495 1087 529 1090 l 874 928 b 915 723 953 891 974 788 l 811 608 l 1128 608 b 1195 576 1155 608 1179 596 b 1214 504 1212 556 1219 529 l 1127 70 b 1025 2 1117 23 1072 -8 b 956 104 978 11 947 57 l 1020 434 l 832 434 b 868 260 855 381 868 322 b 434 -174 868 21 674 -174 b 0 260 194 -174 0 21 b 434 694 0 500 194 694 b 522 685 464 694 491 691 l 669 833 l 531 897 l 399 799 b 278 816 361 770 307 778 b 295 938 249 854 257 909 l 469 1068 z m 434 0 b 694 260 578 0 694 117 b 434 521 694 407 578 521 b 174 260 288 521 174 407 b 434 0 174 117 288 0 z "},"":{"ha":1563,"x_min":0,"x_max":0,"o":"m 564 1020 b 629 1085 564 1056 593 1085 l 673 1085 b 738 1020 709 1085 738 1056 b 673 955 738 984 709 955 l 629 955 b 564 1020 593 955 564 984 z m 564 803 b 629 868 564 839 593 868 l 673 868 b 738 803 709 868 738 839 b 673 738 738 767 709 738 l 629 738 b 564 803 593 738 564 767 z m 43 586 b 109 651 43 622 73 651 l 152 651 b 217 586 188 651 217 622 b 152 521 217 550 188 521 l 109 521 b 43 586 73 521 43 550 z m 1445 434 b 1519 360 1486 434 1519 401 b 1212 -65 1519 162 1391 -6 b 1215 -87 1214 -72 1215 -79 b 1128 -174 1215 -135 1176 -174 l 434 -174 b 347 -87 386 -174 347 -135 b 350 -65 347 -79 348 -72 b 43 360 172 -6 43 162 b 118 434 43 401 77 434 l 1445 434 z m 673 651 b 738 586 709 651 738 622 b 673 521 738 550 709 521 l 629 521 b 564 586 593 521 564 550 b 629 651 564 622 593 651 l 673 651 z m 412 651 b 477 586 448 651 477 622 b 412 521 477 550 448 521 l 369 521 b 304 586 333 521 304 550 b 369 651 304 622 333 651 l 412 651 z m 304 803 b 369 868 304 839 333 868 l 412 868 b 477 803 448 868 477 839 b 412 738 477 767 448 738 l 369 738 b 304 803 333 738 304 767 z m 933 651 b 998 586 969 651 998 622 b 933 521 998 550 969 521 l 890 521 b 825 586 854 521 825 550 b 890 651 825 622 854 651 l 933 651 z m 825 803 b 890 868 825 839 854 868 l 933 868 b 998 803 969 868 998 839 b 933 738 998 767 969 738 l 890 738 b 825 803 854 738 825 767 z m 1194 651 b 1259 586 1230 651 1259 622 b 1194 521 1259 550 1230 521 l 1150 521 b 1085 586 1114 521 1085 550 b 1150 651 1085 622 1114 651 l 1194 651 z m 1085 803 b 1150 868 1085 839 1114 868 l 1194 868 b 1259 803 1230 868 1259 839 b 1194 738 1259 767 1230 738 l 1150 738 b 1085 803 1114 738 1085 767 z m 1454 651 b 1519 586 1490 651 1519 622 b 1454 521 1519 550 1490 521 l 1411 521 b 1345 586 1375 521 1345 550 b 1411 651 1345 622 1375 651 l 1454 651 z m 933 1085 b 998 1020 969 1085 998 1056 b 933 955 998 984 969 955 l 890 955 b 825 1020 854 955 825 984 b 890 1085 825 1056 854 1085 l 933 1085 z "},"":{"ha":868,"x_min":0,"x_max":0,"o":"m 304 1085 b 434 1215 304 1157 362 1215 b 564 1085 506 1215 564 1157 b 434 955 564 1013 506 955 b 304 1085 362 955 304 1013 z m 239 179 b 174 260 201 186 174 220 l 174 410 l 161 389 b 42 360 137 348 83 335 b 12 479 1 384 -12 438 l 170 742 b 357 868 211 809 280 854 b 391 868 368 867 379 868 l 434 868 b 445 867 438 868 442 868 b 641 691 542 859 623 788 l 657 603 b 868 347 777 580 868 474 l 868 260 b 781 174 868 212 829 174 l 629 174 l 629 -87 b 543 -174 629 -135 591 -174 b 456 -87 495 -174 456 -135 l 456 174 l 412 174 l 412 -87 b 326 -174 412 -135 374 -174 b 239 -87 278 -174 239 -135 l 239 179 z "},"":{"ha":1563,"x_min":0,"x_max":0,"o":"m 1388 435 l 1390 1 b 1389 -21 1390 -7 1390 -14 l 1389 -65 b 1280 -174 1389 -125 1340 -174 l 1237 -174 b 1228 -173 1234 -174 1231 -171 b 1217 -174 1224 -171 1220 -174 l 1063 -174 b 955 -65 1003 -174 955 -125 l 955 174 b 868 260 955 222 916 260 l 694 260 b 608 174 646 260 608 222 l 608 -65 b 499 -174 608 -125 559 -174 l 347 -174 b 335 -173 343 -174 339 -173 b 326 -174 332 -173 329 -174 l 282 -174 b 174 -65 222 -174 174 -125 l 174 239 b 174 246 174 241 174 244 l 174 435 l 87 435 b 0 522 38 435 0 473 b 27 587 0 547 8 568 l 723 1194 b 782 1215 742 1213 763 1215 b 840 1196 801 1215 823 1210 l 1128 942 l 1128 1042 b 1215 1128 1128 1090 1167 1128 l 1302 1128 b 1389 1042 1350 1128 1389 1090 l 1389 713 l 1532 587 b 1562 522 1554 568 1565 547 b 1475 435 1562 473 1521 435 l 1388 435 z "},"":{"ha":1563,"x_min":0,"x_max":0,"o":"m 1388 435 l 1390 1 b 1217 -174 1391 -95 1313 -174 l 885 -174 l 781 0 l 1000 183 b 1000 250 1022 200 1021 233 l 680 501 b 618 442 638 532 588 483 l 781 217 l 549 24 b 540 -32 533 10 527 -11 l 625 -174 l 347 -174 b 174 0 252 -174 174 -96 l 174 435 l 87 435 b 0 522 38 435 0 473 b 27 587 0 547 8 568 l 723 1194 b 782 1215 742 1213 763 1215 b 840 1196 801 1215 823 1210 l 1532 587 b 1562 522 1554 568 1565 547 b 1475 435 1562 473 1521 435 l 1388 435 z "},"":{"ha":1563,"x_min":0,"x_max":0,"o":"m 1562 522 b 1475 435 1562 473 1521 435 l 1388 435 l 1390 1 b 1217 -174 1391 -95 1313 -174 l 347 -174 b 174 0 252 -174 174 -96 l 174 435 l 87 435 b 0 522 38 435 0 473 b 27 587 0 547 8 568 l 723 1194 b 782 1215 742 1213 763 1215 b 840 1196 801 1215 823 1210 l 1532 587 b 1562 522 1554 568 1565 547 l 1562 522 z m 890 586 l 890 738 b 846 781 890 762 870 781 l 716 781 b 673 738 692 781 673 762 l 673 586 l 521 586 b 477 543 497 586 477 566 l 477 412 b 521 369 477 388 497 369 l 673 369 l 673 217 b 716 174 673 193 692 174 l 846 174 b 890 217 870 174 890 193 l 890 369 l 1042 369 b 1085 412 1066 369 1085 388 l 1085 543 b 1042 586 1085 566 1066 586 l 890 586 z "},"":{"ha":868,"x_min":0,"x_max":0,"o":"m 521 1215 b 608 1128 569 1215 608 1176 l 608 1034 b 833 938 691 1020 768 986 b 851 816 872 909 879 854 b 729 799 819 777 767 770 b 521 868 671 842 599 868 b 174 521 329 868 174 713 b 521 174 174 329 329 174 b 729 243 599 174 671 199 b 851 226 767 272 819 264 b 833 104 879 187 872 135 b 608 7 768 55 691 21 l 608 -87 b 521 -174 608 -135 569 -174 b 434 -87 473 -174 434 -135 l 434 7 b 0 521 188 49 0 263 b 434 1034 0 779 188 993 l 434 1128 b 521 1215 434 1176 473 1215 l 521 1215 z "},"":{"ha":1736,"x_min":0,"x_max":0,"o":"m 518 868 b 388 738 518 796 463 738 b 258 868 319 738 258 796 b 388 998 258 940 319 998 b 518 868 463 998 518 940 z m 1044 304 l 842 304 l 1070 -39 b 1047 -159 1097 -76 1086 -132 b 926 -135 1006 -186 953 -175 l 836 0 l 130 0 b 0 130 58 0 0 58 l 0 1085 b 130 1215 0 1157 58 1215 l 1606 1215 b 1736 1085 1678 1215 1736 1157 l 1736 130 b 1606 0 1736 58 1678 0 l 1144 0 l 1029 174 l 1153 174 l 1044 304 z m 171 1042 l 171 174 l 345 174 b 345 174 345 174 345 174 l 345 374 b 619 775 345 551 455 709 b 779 1015 717 814 779 909 l 779 1042 l 171 1042 z m 955 1042 l 955 1015 b 758 653 955 867 879 731 b 761 649 759 651 760 650 l 872 480 l 1065 480 b 1165 431 1104 480 1140 460 l 1379 174 l 1563 174 l 1563 1042 l 955 1042 z m 720 174 l 534 454 b 518 374 525 429 518 404 l 518 176 b 518 176 518 176 518 174 l 720 174 z "},"":{"ha":1389,"x_min":0,"x_max":0,"o":"m 781 -174 l 608 -174 l 608 543 b 456 694 608 626 540 694 b 304 543 372 694 304 626 l 304 510 b 434 317 383 480 434 414 b 217 0 434 241 337 102 b 0 317 97 102 0 238 b 130 510 0 414 51 480 l 130 543 b 456 868 130 722 276 868 b 608 831 511 868 562 854 l 608 890 b 933 1215 608 1070 753 1215 b 1259 890 1113 1215 1259 1070 l 1259 857 b 1389 664 1338 828 1389 761 b 1172 347 1389 588 1292 449 b 955 664 1052 449 955 585 b 1085 857 955 761 1006 828 l 1085 890 b 933 1042 1085 974 1017 1042 b 781 890 849 1042 781 974 l 781 -174 z "},"":{"ha":1042,"x_min":0,"x_max":0,"o":"m 955 0 l 87 0 b 0 -87 39 0 0 -39 b 87 -171 0 -135 39 -171 l 955 -171 b 1042 -87 1003 -171 1042 -132 b 955 0 1042 -41 1003 0 z m 130 651 l 434 651 l 434 350 b 521 265 434 302 473 265 b 608 350 569 265 608 304 l 608 651 l 911 651 b 998 738 959 651 998 690 b 911 825 998 786 959 825 l 608 825 l 608 1128 b 521 1215 608 1176 569 1215 b 434 1128 473 1215 434 1176 l 434 825 l 130 825 b 43 738 82 825 43 786 b 130 651 43 690 82 651 z "},"":{"ha":1563,"x_min":0,"x_max":0,"o":"m 694 1172 b 725 1213 694 1191 707 1208 b 773 1197 743 1219 763 1212 l 1381 329 b 1384 284 1390 315 1391 298 b 1345 260 1376 269 1359 260 l 738 260 b 694 304 714 260 694 280 l 694 1172 z m 575 953 b 608 911 594 948 608 931 l 608 304 b 564 260 608 280 588 260 l 217 260 b 179 282 202 260 187 271 b 179 325 172 295 172 312 l 527 933 b 575 953 536 950 556 958 l 575 953 z m 16 119 b 57 174 8 146 29 174 l 1505 174 b 1547 119 1534 174 1555 146 l 1536 79 b 1202 -174 1494 -70 1357 -174 l 358 -174 b 26 79 205 -174 69 -70 l 16 119 z "},"":{"ha":694,"x_min":0,"x_max":0,"o":"m 609 300 b 690 451 651 339 680 390 b 372 799 729 691 514 756 l 338 810 b 176 953 178 859 166 891 b 212 1011 180 978 191 997 b 399 1036 252 1040 320 1049 b 513 1003 429 1031 466 1020 b 624 1055 557 987 607 1010 b 572 1166 640 1100 617 1150 b 428 1207 514 1187 468 1200 b 111 1152 302 1228 189 1208 b 5 981 53 1111 16 1051 b 85 741 -14 866 27 792 b 5 590 43 705 15 652 b 287 253 -34 353 183 286 l 322 243 b 518 89 498 190 531 164 b 461 18 515 68 505 38 b 294 6 419 -1 360 -5 b 144 53 249 13 193 34 l 117 63 b 6 12 72 80 22 57 b 56 -99 -11 -32 12 -80 l 82 -109 b 267 -165 139 -131 204 -155 b 363 -174 300 -171 332 -174 b 532 -140 426 -174 483 -162 b 690 61 619 -101 675 -30 b 609 300 708 175 669 249 z m 176 562 b 279 646 185 617 233 638 b 322 633 282 645 322 633 b 518 480 498 580 531 554 b 416 395 510 425 461 403 b 338 419 401 400 338 419 b 176 562 178 469 166 501 z "},"":{"ha":1389,"x_min":0,"x_max":0,"o":"m 781 347 l 781 868 l 174 868 b 87 955 126 868 87 907 b 174 1042 87 1003 126 1042 l 1172 1042 b 1215 1085 1196 1042 1215 1061 b 1172 1128 1215 1109 1196 1128 l 174 1128 b 0 955 78 1128 0 1051 b 174 781 0 859 78 781 l 181 781 b 694 347 223 535 436 347 l 781 347 z m 521 629 b 456 694 485 629 456 659 b 521 760 456 730 485 760 b 586 694 557 760 586 730 b 521 629 586 658 557 629 z m 612 132 b 649 48 599 98 616 61 l 665 42 b 608 -22 633 38 608 11 b 673 -87 608 -58 637 -87 l 868 -87 l 868 103 l 696 169 b 612 132 663 182 625 168 z m 1387 438 b 1378 483 1385 453 1381 468 l 1040 237 b 1042 217 1041 230 1042 224 b 1040 203 1042 212 1041 207 l 1285 94 b 1387 438 1359 187 1399 307 z m 955 95 l 955 -85 b 1221 27 1056 -75 1148 -35 l 1003 124 b 955 95 989 111 973 101 z m 1351 570 b 891 868 1275 748 1093 868 l 868 868 l 868 347 l 911 347 b 998 314 945 347 975 334 l 1351 570 z "},"":{"ha":1389,"x_min":0,"x_max":0,"o":"m 1085 1215 b 1172 1128 1133 1215 1172 1176 l 1172 1079 b 1270 1046 1206 1073 1239 1062 l 1297 1032 b 1336 916 1340 1011 1358 959 b 1220 877 1315 873 1263 856 l 1192 891 b 1106 911 1165 904 1136 911 l 1101 911 b 955 765 1020 911 955 846 b 1047 630 955 706 991 652 l 1188 573 b 1389 276 1309 525 1389 407 l 1389 267 b 1172 -29 1389 128 1298 11 l 1172 -87 b 1085 -174 1172 -135 1133 -174 b 998 -87 1037 -174 998 -135 l 998 -34 b 884 15 955 -25 919 -8 l 820 58 b 796 178 780 85 769 141 b 916 202 822 218 876 229 l 980 160 b 1078 130 1009 141 1043 130 b 1215 267 1154 130 1215 192 l 1215 276 b 1123 412 1215 336 1179 390 l 982 468 b 781 765 861 517 781 634 b 998 1068 781 906 872 1025 l 998 1128 b 1085 1215 998 1176 1037 1215 l 1085 1215 z m 0 1042 b 87 1128 0 1090 39 1128 l 304 1128 b 694 738 519 1128 694 954 b 462 381 694 578 599 441 l 601 32 b 553 -81 619 -12 598 -63 b 440 -32 509 -98 458 -77 l 288 347 l 174 347 l 174 0 b 87 -87 174 -48 135 -87 b 0 0 39 -87 0 -48 l 0 1042 z m 174 521 l 304 521 b 521 738 424 521 521 618 b 304 955 521 858 424 955 l 174 955 l 174 521 z "},"":{"ha":1215,"x_min":0,"x_max":0,"o":"m 434 998 b 564 1128 434 1070 492 1128 l 651 1128 b 781 998 723 1128 781 1070 l 781 43 b 651 -87 781 -28 723 -87 l 564 -87 b 434 43 492 -87 434 -28 l 434 998 z m 0 477 b 130 608 0 549 58 608 l 217 608 b 347 477 289 608 347 549 l 347 43 b 217 -87 347 -28 289 -87 l 130 -87 b 0 43 58 -87 0 -28 l 0 477 z m 1085 955 b 1215 825 1157 955 1215 897 l 1215 43 b 1085 -87 1215 -28 1157 -87 l 998 -87 b 868 43 926 -87 868 -28 l 868 825 b 998 955 868 897 926 955 l 1085 955 z "},"":{"ha":1389,"x_min":0,"x_max":0,"o":"m 1389 781 b 1215 608 1389 685 1311 608 l 760 608 l 760 434 l 885 434 b 930 325 942 434 971 364 l 738 133 b 648 133 715 107 674 107 l 456 325 b 504 434 417 364 447 434 l 629 434 l 629 608 l 174 608 b 0 781 78 608 0 685 l 0 955 b 174 1128 0 1051 78 1128 l 1215 1128 b 1389 955 1311 1128 1389 1051 l 1389 781 z m 848 87 l 1215 87 l 1215 260 l 1022 260 l 1042 283 b 1082 434 1088 327 1098 384 l 1215 434 b 1389 260 1311 434 1389 356 l 1389 87 b 1215 -87 1389 -9 1311 -87 l 174 -87 b 0 87 78 -87 0 -9 l 0 260 b 174 434 0 356 78 434 l 304 434 b 345 283 291 384 299 327 l 367 260 l 174 260 l 174 87 l 541 87 l 587 43 b 802 43 646 -18 742 -18 l 848 87 z "},"":{"ha":1389,"x_min":0,"x_max":0,"o":"m 174 -87 b 0 87 78 -87 0 -9 l 0 260 b 174 434 0 356 78 434 l 1215 434 b 1389 260 1311 434 1389 356 l 1389 87 b 1215 -87 1389 -9 1311 -87 l 174 -87 z m 1215 87 l 1215 260 l 174 260 l 174 87 l 1215 87 z m 781 781 b 608 608 781 685 703 608 l 174 608 b 0 781 78 608 0 685 l 0 955 b 174 1128 0 1051 78 1128 l 998 1128 b 1215 911 1118 1128 1215 1031 l 1215 868 l 1319 868 b 1364 759 1376 868 1405 798 l 1172 567 b 1082 567 1149 541 1108 541 l 890 759 b 938 868 852 798 881 868 l 1042 868 l 1042 911 b 998 955 1042 935 1022 955 l 781 955 l 781 781 z "},"":{"ha":1389,"x_min":0,"x_max":0,"o":"m 1389 87 b 1215 -87 1389 -9 1311 -87 l 174 -87 b 0 87 78 -87 0 -9 l 0 260 b 174 434 0 356 78 434 l 1215 434 b 1389 260 1311 434 1389 356 l 1389 87 z m 608 608 l 174 608 b 0 781 78 608 0 685 l 0 955 b 174 1128 0 1051 78 1128 l 998 1128 b 1215 911 1118 1128 1215 1031 l 1215 868 l 1319 868 b 1364 759 1376 868 1405 798 l 1172 567 b 1082 567 1149 541 1108 541 l 890 759 b 938 868 852 798 881 868 l 1042 868 l 1042 911 b 998 955 1042 935 1022 955 l 781 955 l 781 781 b 608 608 781 685 703 608 l 608 608 z m 174 781 l 608 781 l 608 955 l 174 955 l 174 781 z "},"":{"ha":1389,"x_min":0,"x_max":0,"o":"m 0 521 b 694 1215 0 904 311 1215 b 1389 521 1078 1215 1389 904 b 694 -174 1389 137 1078 -174 b 0 521 311 -174 0 137 z m 585 237 l 653 193 b 718 174 670 180 695 174 b 809 219 754 174 789 190 l 844 261 b 868 331 859 281 868 306 b 844 402 868 357 859 382 l 795 464 b 764 519 782 481 771 502 l 736 589 b 709 608 732 600 721 608 b 686 596 700 608 691 603 l 658 557 b 602 536 645 542 623 531 b 580 550 593 538 585 545 l 568 566 b 485 608 548 592 517 608 b 402 566 452 608 421 592 l 387 547 b 371 534 383 541 378 537 l 276 489 b 226 340 220 462 197 394 l 235 323 b 364 270 260 276 314 254 l 406 283 b 460 283 423 289 442 289 l 566 246 b 585 237 572 244 579 241 l 585 237 z m 743 829 b 645 859 717 857 680 866 l 540 838 b 531 755 499 829 492 773 l 647 704 b 691 694 661 698 676 694 l 772 694 b 803 769 811 694 830 741 l 743 829 z m 716 0 l 760 0 b 803 43 783 0 803 20 b 760 87 803 67 783 87 l 716 87 b 673 43 692 87 673 67 b 716 0 673 20 692 0 z m 1170 404 b 1115 432 1162 427 1137 439 b 1087 377 1092 424 1080 400 l 1109 312 b 1164 284 1117 289 1141 279 b 1191 339 1187 292 1197 317 l 1170 404 z m 1116 186 b 1116 248 1133 203 1133 231 b 1054 248 1099 265 1071 265 l 968 161 b 968 100 951 144 951 116 b 1029 100 984 82 1012 82 l 1116 186 z "},"":{"ha":1736,"x_min":0,"x_max":0,"o":"m 649 774 b 716 781 672 781 694 781 l 1020 781 b 1149 750 1066 781 1110 770 b 1154 756 1150 752 1152 754 l 1328 929 b 1450 929 1361 963 1416 963 b 1450 807 1484 895 1484 841 l 1277 633 b 1271 628 1273 631 1273 630 b 1301 521 1288 595 1298 559 l 1476 521 b 1563 434 1524 521 1563 482 b 1476 347 1563 386 1524 347 l 1302 347 b 1295 269 1302 320 1300 294 l 1711 -57 b 1722 -149 1739 -79 1745 -120 b 1631 -160 1700 -177 1659 -182 l 25 1099 b 14 1190 -3 1121 -8 1162 b 105 1201 36 1219 77 1224 l 649 774 z m 1128 955 l 1128 945 b 1051 868 1128 903 1094 868 l 685 868 b 608 945 642 868 608 903 l 608 955 b 868 1215 608 1099 722 1215 b 1128 955 1012 1215 1128 1099 l 1128 955 z m 435 521 b 452 599 437 550 443 574 l 825 305 l 825 -85 b 580 23 731 -75 646 -36 l 409 -148 b 286 -148 375 -182 320 -182 b 286 -25 252 -114 252 -59 l 460 148 b 476 161 464 153 470 158 b 434 347 449 218 434 280 l 260 347 b 174 434 212 347 174 386 b 260 521 174 482 212 521 l 435 521 z m 911 -85 l 911 237 l 1169 34 b 911 -85 1101 -31 1011 -75 l 911 -85 z "},"":{"ha":1563,"x_min":0,"x_max":0,"o":"m 0 1042 b 174 1215 0 1138 78 1215 l 608 1215 l 608 868 b 694 781 608 820 646 781 l 1042 781 l 1042 677 b 694 217 841 620 694 436 b 894 -172 694 57 773 -85 b 868 -174 886 -173 877 -174 l 174 -174 b 0 0 78 -174 0 -96 l 0 1042 z m 694 868 l 694 1215 l 1042 868 l 694 868 z m 1563 217 b 1172 -174 1563 1 1388 -174 b 781 217 956 -174 781 1 b 1172 608 781 433 956 608 b 1563 217 1388 608 1563 433 z m 1293 334 l 1128 170 l 1051 248 b 989 248 1034 265 1006 265 b 989 186 972 231 972 203 l 1098 78 b 1159 78 1115 61 1142 61 l 1354 273 b 1354 334 1372 290 1372 318 b 1293 334 1338 352 1310 352 l 1293 334 z "},"":{"ha":1563,"x_min":0,"x_max":0,"o":"m 0 1042 b 174 1215 0 1138 78 1215 l 608 1215 l 608 868 b 694 781 608 820 646 781 l 1042 781 l 1042 677 b 694 217 841 620 694 436 b 894 -172 694 57 773 -85 b 868 -174 886 -173 877 -174 l 174 -174 b 0 0 78 -174 0 -96 l 0 1042 z m 694 868 l 694 1215 l 1042 868 l 694 868 z m 781 217 b 1172 608 781 433 956 608 b 1563 217 1388 608 1563 433 b 1172 -174 1563 1 1388 -174 b 781 217 956 -174 781 1 z m 1333 317 b 1333 378 1350 333 1350 361 b 1271 378 1316 395 1288 395 l 1172 278 l 1072 378 b 1011 378 1056 395 1028 395 b 1011 317 994 361 994 333 l 1111 217 l 1011 117 b 1011 56 994 101 994 73 b 1072 56 1028 39 1056 39 l 1172 156 l 1271 56 b 1333 56 1288 39 1316 39 b 1333 117 1350 73 1350 101 l 1233 217 l 1333 317 z "},"":{"ha":1736,"x_min":0,"x_max":0,"o":"m 0 794 b 17 850 0 814 6 833 l 222 1157 b 330 1215 246 1194 286 1215 l 1406 1215 b 1514 1157 1450 1215 1490 1194 l 1719 850 b 1736 794 1730 833 1736 814 b 1645 695 1736 742 1696 699 b 1432 781 1590 748 1515 781 b 1220 694 1350 781 1274 748 l 100 694 b 0 794 45 694 0 739 l 0 794 z m 1042 608 l 1042 -43 b 911 -174 1042 -115 983 -174 l 304 -174 b 174 -43 232 -174 174 -115 l 174 608 l 347 608 l 347 174 l 868 174 l 868 608 l 1042 608 z m 1432 694 b 1649 477 1552 694 1649 597 l 1649 347 b 1736 260 1697 347 1736 308 l 1736 -87 b 1649 -174 1736 -135 1697 -174 l 1215 -174 b 1128 -87 1167 -174 1128 -135 l 1128 260 b 1215 347 1128 308 1167 347 l 1215 477 b 1432 694 1215 597 1312 694 z m 1432 564 b 1345 477 1384 564 1345 525 l 1345 347 l 1519 347 l 1519 477 b 1432 564 1519 525 1480 564 z "},"":{"ha":1389,"x_min":0,"x_max":0,"o":"m 521 1150 b 586 1215 521 1186 550 1215 l 803 1215 b 868 1150 839 1215 868 1186 b 803 1085 868 1114 839 1085 l 760 1085 l 760 994 b 983 901 843 983 919 950 l 1047 966 l 1017 997 b 1017 1089 991 1022 991 1063 b 1109 1089 1042 1114 1083 1114 l 1262 935 b 1262 843 1288 910 1288 869 b 1170 843 1237 818 1195 818 l 1139 874 l 1075 809 b 1168 586 1123 745 1156 669 l 1259 586 l 1259 629 b 1324 694 1259 665 1288 694 b 1389 629 1360 694 1389 665 l 1389 412 b 1324 347 1389 376 1360 347 b 1259 412 1288 347 1259 376 l 1259 456 l 1168 456 b 1075 232 1156 372 1123 296 l 1139 168 l 1170 199 b 1262 199 1195 224 1237 224 b 1262 107 1288 173 1288 132 l 1109 -47 b 1017 -47 1083 -72 1042 -72 b 1017 45 991 -21 991 20 l 1047 76 l 983 140 b 760 48 919 92 843 59 l 760 -43 l 803 -43 b 868 -109 839 -43 868 -72 b 803 -174 868 -145 839 -174 l 586 -174 b 521 -109 550 -174 521 -145 b 586 -43 521 -72 550 -43 l 629 -43 l 629 48 b 406 140 546 59 470 92 l 342 76 l 372 45 b 372 -47 398 20 398 -21 b 280 -47 347 -72 305 -72 l 127 107 b 127 199 101 132 101 173 b 219 199 152 224 193 224 l 249 168 l 314 232 b 221 456 266 296 233 372 l 130 456 l 130 412 b 65 347 130 376 101 347 b 0 412 29 347 0 376 l 0 629 b 65 694 0 665 29 694 b 130 629 101 694 130 665 l 130 586 l 221 586 b 314 809 233 669 266 745 l 249 874 l 219 843 b 127 843 193 818 152 818 b 127 935 101 869 101 910 l 280 1089 b 372 1089 305 1114 347 1114 b 372 997 398 1063 398 1022 l 342 966 l 406 901 b 629 994 470 950 546 983 l 629 1085 l 586 1085 b 521 1150 550 1085 521 1114 l 521 1150 z m 521 738 b 391 608 449 738 391 680 b 521 477 391 536 449 477 b 651 608 593 477 651 536 b 521 738 651 680 593 738 z m 825 326 b 890 391 861 326 890 355 b 825 456 890 427 861 456 b 760 391 789 456 760 427 b 825 326 760 355 789 326 z "},"":{"ha":1736,"x_min":0,"x_max":0,"o":"m 364 999 l 454 1089 b 546 1089 479 1114 520 1114 b 546 997 571 1063 571 1022 l 515 966 l 580 901 b 801 994 643 950 720 983 l 801 1085 l 757 1085 b 692 1150 723 1085 692 1114 b 757 1215 692 1186 723 1215 l 977 1215 b 1042 1150 1013 1215 1042 1186 b 977 1085 1042 1114 1013 1085 l 933 1085 l 933 994 b 1156 901 1016 983 1093 950 l 1221 966 l 1190 997 b 1190 1089 1165 1022 1165 1063 b 1282 1089 1216 1114 1257 1114 l 1436 935 b 1436 843 1461 910 1461 869 b 1344 843 1410 818 1369 818 l 1313 874 l 1249 809 b 1341 586 1297 745 1330 669 l 1432 586 l 1432 629 b 1497 694 1432 665 1461 694 b 1563 629 1533 694 1563 665 l 1563 412 b 1497 347 1563 376 1533 347 b 1432 412 1461 347 1432 376 l 1432 456 l 1341 456 b 1281 280 1332 393 1311 333 l 1711 -57 b 1722 -149 1739 -79 1745 -120 b 1631 -160 1700 -177 1659 -182 l 25 1099 b 14 1190 -3 1121 -8 1162 b 105 1201 36 1219 77 1224 l 364 999 z m 405 636 l 1089 97 b 933 48 1041 72 988 55 l 933 -43 l 977 -43 b 1042 -109 1013 -43 1042 -72 b 977 -174 1042 -145 1013 -174 l 757 -174 b 692 -109 723 -174 692 -145 b 757 -43 692 -72 723 -43 l 801 -43 l 801 48 b 580 140 720 59 643 92 l 515 76 l 546 45 b 546 -47 571 20 571 -21 b 454 -47 520 -72 479 -72 l 300 107 b 300 199 275 132 275 173 b 392 199 326 224 367 224 l 421 168 l 487 232 b 395 456 439 296 406 372 l 301 456 l 301 412 b 236 347 301 376 275 347 b 171 412 203 347 171 376 l 171 629 b 236 694 171 665 203 694 b 301 629 275 694 301 665 l 301 586 l 395 586 b 405 636 397 603 401 620 l 405 636 z "},"":{"ha":1736,"x_min":0,"x_max":0,"o":"m 955 738 b 1042 651 1003 738 1042 699 b 955 564 1042 603 1003 564 l 866 564 l 866 0 l 920 0 b 1064 -169 954 -67 1004 -122 b 998 -174 1042 -172 1021 -174 l 564 -174 b 130 260 324 -174 130 21 l 130 277 l 111 260 b 19 260 86 232 44 232 b 19 350 -6 283 -6 324 l 171 502 b 263 502 196 527 238 527 l 413 350 b 413 260 440 324 440 283 b 323 260 390 232 348 232 l 304 277 l 304 260 b 564 0 304 117 418 0 l 694 0 l 694 564 l 608 564 b 521 651 560 564 521 603 b 608 738 521 699 560 738 l 637 738 b 521 955 567 785 521 864 b 781 1215 521 1099 635 1215 b 1042 955 925 1215 1042 1099 b 925 738 1042 864 993 785 l 955 738 z m 779 868 b 866 955 829 868 866 907 b 779 1042 866 1003 829 1042 b 692 955 733 1042 692 1003 b 779 868 692 907 733 868 z m 1736 217 b 1345 -174 1736 1 1561 -174 b 955 217 1130 -174 955 1 b 1345 608 955 433 1130 608 b 1736 217 1561 608 1736 433 z m 1467 334 l 1302 170 l 1224 248 b 1163 248 1207 265 1180 265 b 1163 186 1146 231 1146 203 l 1271 78 b 1333 78 1288 61 1316 61 l 1528 273 b 1528 334 1545 290 1545 318 b 1467 334 1511 352 1484 352 l 1467 334 z "},"":{"ha":1736,"x_min":0,"x_max":0,"o":"m 955 738 b 1042 651 1003 738 1042 699 b 955 564 1042 603 1003 564 l 866 564 l 866 0 l 920 0 b 1064 -169 954 -67 1004 -122 b 998 -174 1042 -172 1021 -174 l 564 -174 b 130 260 324 -174 130 21 l 130 277 l 111 260 b 19 260 86 232 44 232 b 19 350 -6 283 -6 324 l 171 502 b 263 502 196 527 238 527 l 413 350 b 413 260 440 324 440 283 b 323 260 390 232 348 232 l 304 277 l 304 260 b 564 0 304 117 418 0 l 694 0 l 694 564 l 608 564 b 521 651 560 564 521 603 b 608 738 521 699 560 738 l 637 738 b 521 955 567 785 521 864 b 781 1215 521 1099 635 1215 b 1042 955 925 1215 1042 1099 b 925 738 1042 864 993 785 l 955 738 z m 779 868 b 866 955 829 868 866 907 b 779 1042 866 1003 829 1042 b 692 955 733 1042 692 1003 b 779 868 692 907 733 868 z m 955 217 b 1345 608 955 433 1130 608 b 1736 217 1561 608 1736 433 b 1345 -174 1736 1 1561 -174 b 955 217 1130 -174 955 1 z m 1345 -43 b 1411 22 1382 -43 1411 -14 b 1345 87 1411 58 1382 87 b 1280 22 1309 87 1280 58 b 1345 -43 1280 -14 1309 -43 z m 1300 434 l 1300 217 b 1343 174 1300 193 1322 174 b 1386 217 1369 174 1386 193 l 1386 434 b 1343 477 1386 458 1369 477 b 1300 434 1322 477 1300 458 z "},"":{"ha":1736,"x_min":0,"x_max":0,"o":"m 955 738 b 1042 651 1003 738 1042 699 b 955 564 1042 603 1003 564 l 866 564 l 866 0 l 920 0 b 1064 -169 954 -67 1004 -122 b 998 -174 1042 -172 1021 -174 l 564 -174 b 130 260 324 -174 130 21 l 130 277 l 111 260 b 19 260 86 232 44 232 b 19 350 -6 283 -6 324 l 171 502 b 263 502 196 527 238 527 l 413 350 b 413 260 440 324 440 283 b 323 260 390 232 348 232 l 304 277 l 304 260 b 564 0 304 117 418 0 l 694 0 l 694 564 l 608 564 b 521 651 560 564 521 603 b 608 738 521 699 560 738 l 637 738 b 521 955 567 785 521 864 b 781 1215 521 1099 635 1215 b 1042 955 925 1215 1042 1099 b 925 738 1042 864 993 785 l 955 738 z m 779 868 b 866 955 829 868 866 907 b 779 1042 866 1003 829 1042 b 692 955 733 1042 692 1003 b 779 868 692 907 733 868 z m 955 217 b 1345 608 955 433 1130 608 b 1736 217 1561 608 1736 433 b 1345 -174 1736 1 1561 -174 b 955 217 1130 -174 955 1 z m 1506 317 b 1506 378 1523 333 1523 361 b 1445 378 1490 395 1462 395 l 1345 278 l 1246 378 b 1185 378 1229 395 1201 395 b 1185 317 1168 361 1168 333 l 1284 217 l 1185 117 b 1185 56 1168 101 1168 73 b 1246 56 1201 39 1229 39 l 1345 156 l 1445 56 b 1506 56 1462 39 1490 39 b 1506 117 1523 73 1523 101 l 1407 217 l 1506 317 z "},"":{"ha":1736,"x_min":0,"x_max":0,"o":"m 955 738 b 1042 651 1003 738 1042 699 b 955 564 1042 603 1003 564 l 866 564 l 866 0 l 998 0 b 1042 4 1013 0 1028 1 l 1042 -87 b 1062 -169 1042 -114 1049 -145 b 998 -174 1041 -172 1020 -174 l 564 -174 b 130 260 324 -174 130 21 l 130 277 l 111 260 b 19 260 86 232 44 232 b 19 350 -6 283 -6 324 l 171 502 b 263 502 196 527 238 527 l 413 350 b 413 260 440 324 440 283 b 323 260 390 232 348 232 l 304 277 l 304 260 b 564 0 304 117 418 0 l 694 0 l 694 564 l 608 564 b 521 651 560 564 521 603 b 608 738 521 699 560 738 l 637 738 b 521 955 567 785 521 864 b 781 1215 521 1099 635 1215 b 1042 955 925 1215 1042 1099 b 925 738 1042 864 993 785 l 955 738 z m 779 868 b 866 955 829 868 866 907 b 779 1042 866 1003 829 1042 b 692 955 733 1042 692 1003 b 779 868 692 907 733 868 z m 1432 694 b 1649 477 1552 694 1649 597 l 1649 347 b 1736 260 1697 347 1736 308 l 1736 -87 b 1649 -174 1736 -135 1697 -174 l 1215 -174 b 1128 -87 1167 -174 1128 -135 l 1128 260 b 1215 347 1128 308 1167 347 l 1215 477 b 1432 694 1215 597 1312 694 z m 1432 564 b 1345 477 1384 564 1345 525 l 1345 347 l 1519 347 l 1519 477 b 1432 564 1519 525 1480 564 z "},"":{"ha":1563,"x_min":0,"x_max":0,"o":"m 112 112 b 112 235 78 146 78 201 b 235 235 146 269 201 269 l 347 123 l 347 436 l 87 436 b 0 523 39 436 0 473 b 87 610 0 569 39 610 l 1042 610 l 1042 919 l 929 807 b 807 807 895 773 841 773 b 807 929 773 841 773 895 l 1067 1190 b 1190 1190 1101 1224 1156 1224 l 1450 929 b 1450 807 1484 895 1484 841 b 1328 807 1416 773 1361 773 l 1215 919 l 1215 610 l 1476 610 b 1563 523 1524 610 1563 569 b 1476 436 1563 473 1524 436 l 521 436 l 521 123 l 633 235 b 756 235 667 269 722 269 b 756 112 790 201 790 146 l 495 -148 b 373 -148 461 -182 407 -182 l 112 112 z m 347 1044 b 434 1131 347 1090 386 1131 b 521 1044 482 1131 521 1090 l 521 697 l 347 697 l 347 1044 z m 1215 350 l 1215 0 b 1128 -87 1215 -48 1176 -87 b 1042 0 1080 -87 1042 -48 l 1042 350 l 1215 350 z "},"":{"ha":1736,"x_min":0,"x_max":0,"o":"m 286 -148 l 25 112 b 25 235 -8 146 -8 201 b 148 235 59 269 114 269 l 260 123 l 260 436 l 87 436 b 0 523 39 436 0 473 b 87 610 0 569 39 610 l 781 610 l 781 919 l 669 807 b 546 807 635 773 580 773 b 546 929 512 841 512 895 l 807 1190 b 868 1215 823 1206 845 1215 b 929 1190 891 1215 913 1206 l 1190 929 b 1190 807 1224 895 1224 841 b 1067 807 1156 773 1101 773 l 955 919 l 955 610 l 1158 610 b 1128 480 1139 568 1128 524 l 1128 436 l 434 436 l 434 123 l 546 235 b 669 235 580 269 635 269 b 669 112 703 201 703 146 l 409 -148 b 286 -148 375 -182 320 -182 l 286 -148 z m 260 697 l 260 1044 b 347 1131 260 1090 299 1131 b 434 1044 395 1131 434 1090 l 434 697 l 260 697 z m 955 350 l 955 0 b 868 -87 955 -48 916 -87 b 781 0 820 -87 781 -48 l 781 350 l 955 350 z m 1432 697 b 1649 480 1552 697 1649 597 l 1649 350 b 1736 260 1697 350 1736 308 l 1736 -87 b 1649 -174 1736 -135 1697 -174 l 1215 -174 b 1128 -87 1167 -174 1128 -135 l 1128 260 b 1215 350 1128 308 1167 350 l 1215 480 b 1432 697 1215 597 1312 697 z m 1432 567 b 1345 480 1384 567 1345 525 l 1345 350 l 1519 350 l 1519 480 b 1432 567 1519 525 1480 567 z "},"":{"ha":1736,"x_min":0,"x_max":0,"o":"m 781 1085 b 911 1215 781 1157 840 1215 l 1172 1215 b 1302 1085 1244 1215 1302 1157 l 1302 694 l 1411 694 l 1411 890 b 1476 955 1411 926 1440 955 b 1541 890 1512 955 1541 926 l 1541 694 l 1606 694 b 1736 564 1678 694 1736 636 l 1736 -43 b 1606 -174 1736 -115 1678 -174 l 911 -174 b 781 -43 840 -174 781 -115 l 781 1085 z m 955 911 b 998 868 955 888 974 868 l 1085 868 b 1128 911 1109 868 1128 888 l 1128 998 b 1085 1042 1128 1022 1109 1042 l 998 1042 b 955 998 974 1042 955 1022 l 955 911 z m 998 781 b 955 738 974 781 955 762 l 955 651 b 998 608 955 627 974 608 l 1085 608 b 1128 651 1109 608 1128 627 l 1128 738 b 1085 781 1128 762 1109 781 l 998 781 z m 955 391 b 998 347 955 367 974 347 l 1085 347 b 1128 391 1109 347 1128 367 l 1128 477 b 1085 521 1128 501 1109 521 l 998 521 b 955 477 974 521 955 501 l 955 391 z m 1432 521 b 1389 477 1408 521 1389 501 l 1389 391 b 1432 347 1389 367 1408 347 l 1519 347 b 1563 391 1543 347 1563 367 l 1563 477 b 1519 521 1563 501 1543 521 l 1432 521 z m 1389 130 b 1432 87 1389 106 1408 87 l 1519 87 b 1563 130 1543 87 1563 106 l 1563 217 b 1519 260 1563 241 1543 260 l 1432 260 b 1389 217 1408 260 1389 241 l 1389 130 z m 669 582 b 669 460 703 548 703 493 l 452 243 b 329 243 418 209 363 209 b 329 365 295 276 295 331 l 398 434 l 87 434 b 0 521 39 434 0 473 b 87 608 0 569 39 608 l 398 608 l 329 677 b 329 799 295 710 295 765 b 452 799 363 833 418 833 l 669 582 z "},"":{"ha":1563,"x_min":0,"x_max":0,"o":"m 694 350 l 694 919 l 626 850 b 503 850 592 816 537 816 b 503 973 469 884 469 939 l 720 1190 b 843 1190 754 1224 809 1224 l 1060 973 b 1060 850 1093 939 1093 884 b 937 850 1026 816 971 816 l 868 919 l 868 350 b 781 260 868 299 829 260 b 694 350 733 260 694 299 z m 731 71 b 831 71 761 92 801 92 b 1042 0 890 29 967 0 b 1252 71 1115 0 1192 29 l 1252 71 b 1358 66 1284 94 1328 92 b 1495 -2 1397 34 1446 9 b 1560 -107 1542 -13 1571 -60 b 1456 -171 1549 -153 1500 -182 b 1298 -104 1389 -156 1334 -126 b 1042 -174 1219 -146 1131 -174 b 824 -122 955 -174 877 -147 b 781 -101 808 -115 793 -108 b 739 -122 769 -108 755 -115 b 521 -174 685 -147 607 -174 b 264 -104 429 -174 343 -146 b 107 -171 228 -126 173 -156 b 2 -107 60 -182 13 -153 b 67 -2 -9 -60 20 -13 b 204 66 116 9 165 34 b 311 71 235 92 278 94 l 311 71 b 521 0 371 29 448 0 b 731 71 595 0 670 29 l 731 71 z m 521 85 b 361 141 467 86 409 107 b 149 132 296 186 209 182 b 47 81 120 108 83 89 b 0 62 30 77 14 71 l 0 567 b 130 697 0 636 58 697 l 521 697 l 521 85 z m 1563 567 l 1563 65 b 1515 81 1548 71 1532 77 b 1414 132 1479 89 1443 108 b 1202 141 1354 182 1267 186 b 1042 85 1153 107 1093 85 l 1042 697 l 1432 697 b 1563 567 1504 697 1563 636 l 1563 567 z "},"":{"ha":1563,"x_min":0,"x_max":0,"o":"m 649 1215 b 779 1085 723 1215 779 1157 l 779 521 l 1128 521 l 1128 919 l 1060 850 b 937 850 1026 816 971 816 b 937 973 903 884 903 939 l 1154 1190 b 1277 1190 1188 1224 1243 1224 l 1494 973 b 1494 850 1528 939 1528 884 b 1371 850 1460 816 1405 816 l 1302 919 l 1302 521 l 1432 521 b 1563 391 1504 521 1563 463 l 1563 130 b 1548 70 1563 109 1557 88 b 1515 81 1538 75 1527 78 b 1414 132 1479 89 1443 108 b 1202 141 1354 182 1267 186 b 1042 85 1153 107 1093 85 b 881 141 988 85 931 106 b 681 141 821 183 741 183 b 521 85 635 109 578 85 b 361 141 467 85 409 107 b 149 132 296 186 209 182 b 47 81 120 108 83 89 b 15 70 36 78 25 75 b 0 130 5 88 0 109 l 0 391 b 130 521 0 463 58 521 l 174 521 l 174 1085 b 304 1215 174 1157 232 1215 l 649 1215 z m 1042 0 b 1252 71 1115 0 1192 29 l 1252 71 b 1358 66 1284 94 1328 92 b 1495 -2 1397 34 1446 9 b 1560 -107 1542 -13 1571 -60 b 1456 -171 1549 -153 1500 -182 b 1298 -104 1389 -156 1334 -126 b 1042 -174 1219 -146 1131 -174 b 824 -122 955 -174 877 -147 b 781 -101 808 -115 793 -108 b 739 -122 769 -108 755 -115 b 521 -174 685 -147 607 -174 b 264 -104 429 -174 343 -146 b 107 -171 228 -126 173 -156 b 2 -107 60 -182 13 -153 b 67 -2 -9 -60 20 -13 b 204 66 116 9 165 34 b 311 71 235 92 278 94 l 311 71 b 521 0 371 29 448 0 b 731 71 595 0 670 29 b 831 71 761 92 801 92 b 1042 0 890 29 967 0 l 1042 0 z "},"":{"ha":1563,"x_min":0,"x_max":0,"o":"m 779 1215 b 868 1128 829 1215 868 1176 l 868 781 b 779 694 868 733 829 694 b 692 781 733 694 692 733 l 692 919 l 148 373 b 25 373 114 339 59 339 b 25 495 -8 407 -8 461 l 572 1042 l 432 1042 b 345 1128 386 1042 345 1081 b 432 1215 345 1176 386 1215 l 779 1215 z m 1563 998 b 1432 868 1563 926 1504 868 b 1302 998 1360 868 1302 926 b 1432 1128 1302 1070 1360 1128 b 1563 998 1504 1128 1563 1070 z m 1215 651 b 1085 521 1215 579 1157 521 b 955 651 1013 521 955 579 b 1085 781 955 723 1013 781 b 1215 651 1157 781 1215 723 z m 955 304 b 1085 434 955 376 1013 434 b 1215 304 1157 434 1215 376 b 1085 174 1215 232 1157 174 b 955 304 1013 174 955 232 z m 1215 -43 b 1085 -174 1215 -115 1157 -174 b 955 -43 1013 -174 955 -115 b 1085 87 955 28 1013 87 b 1215 -43 1157 87 1215 28 z m 1563 -43 b 1432 -174 1563 -115 1504 -174 b 1302 -43 1360 -174 1302 -115 b 1432 87 1302 28 1360 87 b 1563 -43 1504 87 1563 28 z m 605 304 b 735 434 605 376 666 434 b 868 304 810 434 868 376 b 735 174 868 232 810 174 b 605 304 666 174 605 232 z m 868 -43 b 735 -174 868 -115 810 -174 b 605 -43 666 -174 605 -115 b 735 87 605 28 666 87 b 868 -43 810 87 868 28 z m 258 -43 b 388 87 258 28 319 87 b 518 -43 463 87 518 28 b 388 -174 518 -115 463 -174 b 258 -43 319 -174 258 -115 z m 1563 304 b 1432 174 1563 232 1504 174 b 1302 304 1360 174 1302 232 b 1432 434 1302 376 1360 434 b 1563 304 1504 434 1563 376 z m 1302 651 b 1432 781 1302 723 1360 781 b 1563 651 1504 781 1563 723 b 1432 521 1563 579 1504 521 b 1302 651 1360 521 1302 579 z "},"":{"ha":1563,"x_min":0,"x_max":0,"o":"m 1476 87 b 1563 0 1524 87 1563 48 b 1476 -87 1563 -48 1524 -87 l 87 -87 b 0 0 39 -87 0 -48 b 87 87 0 48 39 87 l 1476 87 z m 1277 199 b 1154 199 1243 165 1188 165 l 894 460 b 894 582 860 493 860 548 b 1016 582 927 616 982 616 l 1128 470 l 1128 1042 b 1215 1128 1128 1090 1167 1128 b 1302 1042 1263 1128 1302 1090 l 1302 470 l 1414 582 b 1537 582 1448 616 1503 616 b 1537 460 1571 548 1571 493 l 1277 199 z m 669 460 l 409 199 b 286 199 375 165 320 165 l 25 460 b 25 582 -8 493 -8 548 b 148 582 59 616 114 616 l 260 470 l 260 1042 b 347 1128 260 1090 299 1128 b 434 1042 395 1128 434 1090 l 434 470 l 546 582 b 669 582 580 616 635 616 b 669 460 703 548 703 493 l 669 460 z "},"":{"ha":1736,"x_min":0,"x_max":0,"o":"m 453 1150 l 453 830 l 518 892 b 608 892 544 918 585 918 b 608 803 636 867 636 826 l 434 629 b 345 629 411 601 370 601 l 171 803 b 171 892 146 826 146 867 b 263 892 196 918 238 918 l 323 830 l 323 1150 b 388 1215 323 1186 355 1215 b 453 1150 427 1215 453 1186 l 453 1150 z m 974 673 b 866 564 974 613 928 564 b 757 673 808 564 757 613 b 866 781 757 733 808 781 b 974 673 928 781 974 733 z m 497 412 b 388 304 497 352 451 304 b 280 412 331 304 280 352 b 388 521 280 472 331 521 b 497 412 451 521 497 472 z m 1235 412 b 1343 521 1235 472 1286 521 b 1452 412 1405 521 1452 472 b 1343 304 1452 352 1405 304 b 1235 412 1286 304 1235 352 z m 540 -87 b 453 -174 540 -135 504 -174 l 323 -174 b 236 -87 278 -174 236 -135 l 236 18 l 166 -118 b 78 -144 149 -149 109 -161 b 51 -56 46 -127 34 -88 l 154 135 b 364 260 196 212 276 260 l 417 260 b 540 226 461 260 504 248 l 631 395 b 841 523 673 473 754 523 l 895 523 b 1105 395 982 523 1063 473 l 1196 226 b 1319 260 1232 248 1275 260 l 1372 260 b 1582 135 1460 260 1541 212 l 1685 -56 b 1659 -144 1702 -88 1690 -127 b 1570 -118 1627 -161 1587 -149 l 1495 18 l 1495 -87 b 1408 -174 1495 -135 1459 -174 l 1278 -174 b 1191 -87 1232 -174 1191 -135 l 1191 18 l 1121 -118 b 1032 -144 1104 -149 1064 -161 b 1006 -56 1001 -127 989 -88 l 1105 127 b 1093 143 1100 132 1096 137 l 1018 278 l 1018 130 b 931 43 1018 82 981 43 l 801 43 b 714 130 755 43 714 82 l 714 278 l 643 143 b 632 127 638 137 636 132 l 730 -56 b 704 -144 747 -88 735 -127 b 616 -118 672 -161 632 -149 l 540 18 l 540 -87 z m 1126 803 b 1126 892 1101 826 1101 867 b 1216 892 1151 918 1192 918 l 1278 830 l 1278 1150 b 1343 1215 1278 1186 1309 1215 b 1408 1150 1382 1215 1408 1186 l 1408 830 l 1473 892 b 1563 892 1498 918 1540 918 b 1563 803 1590 867 1590 826 l 1389 629 b 1299 629 1366 601 1325 601 l 1126 803 z "},"":{"ha":1736,"x_min":0,"x_max":0,"o":"m 87 1042 b 174 955 135 1042 174 1003 l 174 87 b 87 0 174 39 135 0 b 0 87 39 0 0 39 l 0 955 b 87 1042 0 1003 39 1042 z m 669 843 b 669 720 703 809 703 754 l 557 608 l 1179 608 l 1067 720 b 1067 843 1033 754 1033 809 b 1190 843 1101 876 1156 876 l 1450 582 b 1450 460 1484 548 1484 493 l 1190 199 b 1067 199 1156 165 1101 165 b 1067 322 1033 233 1033 288 l 1179 434 l 557 434 l 669 322 b 669 199 703 288 703 233 b 546 199 635 165 580 165 l 286 460 b 286 582 252 493 252 548 l 546 843 b 669 843 580 876 635 876 l 669 843 z m 1736 87 b 1649 0 1736 39 1697 0 b 1563 87 1601 0 1563 39 l 1563 955 b 1649 1042 1563 1003 1601 1042 b 1736 955 1697 1042 1736 1003 l 1736 87 z "},"":{"ha":1389,"x_min":0,"x_max":0,"o":"m 697 956 b 605 947 667 956 637 953 l 605 1123 b 697 1130 637 1127 667 1130 b 1107 971 855 1130 999 1070 l 1187 1051 b 1261 1020 1214 1078 1261 1059 l 1261 734 b 1218 691 1261 710 1242 691 l 932 691 b 901 765 893 691 874 738 l 984 848 b 697 956 908 915 808 956 l 697 956 z m 264 522 b 272 434 264 492 267 463 l 96 434 b 90 522 92 463 90 492 b 245 927 90 678 148 820 l 165 1007 b 193 1081 137 1035 157 1081 l 481 1081 b 525 1038 505 1081 525 1062 l 525 752 b 451 721 525 713 478 694 l 368 804 b 264 522 303 728 264 630 l 264 522 z m 494 271 l 415 192 b 697 88 491 127 590 88 b 781 96 726 88 754 91 l 781 -80 b 697 -85 754 -84 726 -85 b 292 69 542 -85 400 -25 l 208 -15 b 134 15 181 -43 134 -23 l 134 301 b 177 345 134 325 153 345 l 463 345 b 494 271 499 345 521 298 l 494 271 z m 945 314 l 1023 235 b 1131 522 1091 312 1131 412 b 1123 608 1131 551 1129 580 l 1299 608 b 1305 522 1303 580 1305 551 b 1146 112 1305 364 1245 221 l 1230 28 b 1200 -46 1258 1 1238 -46 l 914 -46 b 870 -2 890 -46 870 -26 l 870 283 b 945 314 870 322 917 342 l 945 314 z "},"":{"ha":1389,"x_min":0,"x_max":0,"o":"m 669 807 b 546 807 635 773 580 773 b 546 929 512 841 512 895 l 807 1190 b 929 1190 841 1224 895 1224 l 1190 929 b 1190 807 1224 895 1224 841 b 1067 807 1156 773 1101 773 l 955 919 l 955 174 b 1128 0 955 78 1033 0 l 1302 0 b 1389 -87 1350 0 1389 -39 b 1302 -174 1389 -135 1350 -174 l 1128 -174 b 781 174 937 -174 781 -18 b 608 347 781 269 703 347 l 296 347 l 409 235 b 409 112 442 201 442 146 b 286 112 375 78 320 78 l 25 373 l 25 373 b 0 434 10 388 0 410 l 7 467 b 25 495 11 480 17 487 l 286 756 b 409 756 320 790 375 790 b 409 633 442 722 442 667 l 296 523 l 608 523 b 781 474 671 523 730 504 l 781 919 l 669 807 z m 0 434 b 7 467 0 446 2 457 b 0 434 2 457 0 445 z m 0 434 l 0 436 l 0 434 l 0 434 z "},"":{"ha":1736,"x_min":0,"x_max":0,"o":"m 25 1190 b 148 1190 59 1224 114 1224 l 432 904 l 432 957 b 518 1044 432 1003 473 1044 b 605 957 569 1044 605 1003 l 605 697 b 601 661 605 683 605 671 b 582 633 597 653 591 642 l 582 633 b 554 614 574 625 562 618 b 518 610 544 610 532 610 l 258 610 b 171 697 212 610 171 646 b 258 784 171 742 212 784 l 311 784 l 25 1067 b 25 1190 -8 1101 -8 1156 l 25 1190 z m 1042 521 b 868 347 1042 425 964 347 b 694 521 772 347 694 425 b 868 694 694 617 772 694 b 1042 521 964 694 1042 617 z m 260 260 b 174 347 212 260 174 299 b 260 434 174 395 212 434 l 521 434 l 521 434 b 582 409 545 434 566 424 l 582 409 b 601 380 591 400 597 391 b 608 350 605 370 608 359 l 608 87 b 521 0 608 39 569 0 b 434 87 473 0 434 39 l 434 138 l 148 -148 b 25 -148 114 -182 59 -182 b 25 -25 -8 -114 -8 -59 l 311 260 l 260 260 z m 1215 1042 b 1302 955 1263 1042 1302 1003 l 1302 904 l 1588 1190 b 1711 1190 1622 1224 1677 1224 b 1711 1067 1745 1156 1745 1101 l 1425 781 l 1476 781 b 1562 694 1524 781 1562 742 b 1476 608 1562 646 1524 608 l 1215 608 b 1154 633 1191 608 1170 617 l 1154 633 b 1135 661 1146 642 1137 653 b 1128 694 1131 671 1128 683 l 1128 697 l 1128 955 b 1215 1042 1128 1003 1167 1042 l 1215 1042 z m 1425 260 l 1711 -25 b 1711 -148 1745 -59 1745 -114 b 1588 -148 1677 -182 1622 -182 l 1302 138 l 1302 87 b 1215 0 1302 39 1263 0 b 1128 87 1167 0 1128 39 l 1128 347 b 1128 347 1128 350 1128 347 b 1135 380 1128 359 1131 370 b 1154 409 1137 393 1146 400 b 1215 434 1169 424 1191 434 b 1215 434 1215 434 1213 434 l 1476 434 b 1562 347 1524 434 1562 395 b 1476 260 1562 299 1524 260 l 1425 260 z "},"":{"ha":1389,"x_min":0,"x_max":0,"o":"m 781 991 l 807 1016 b 929 1016 841 1050 895 1050 b 929 894 963 982 963 927 l 756 720 b 633 720 722 686 667 686 l 460 894 b 460 1016 426 927 426 982 b 582 1016 493 1050 548 1050 l 605 991 l 605 1128 b 692 1215 605 1176 646 1215 b 781 1128 742 1215 781 1176 l 781 991 z m 1190 286 b 1067 286 1156 252 1101 252 l 894 460 b 894 582 860 493 860 548 l 1067 756 b 1190 756 1101 790 1156 790 b 1190 633 1224 722 1224 667 l 1165 610 l 1302 610 b 1389 523 1350 610 1389 569 b 1302 436 1389 473 1350 436 l 1165 436 l 1190 409 b 1190 286 1224 375 1224 320 l 1190 286 z m 781 521 b 694 434 781 473 742 434 b 608 521 646 434 608 473 b 694 608 608 569 646 608 b 781 521 742 608 781 569 z m 495 582 b 495 460 529 548 529 493 l 322 286 b 199 286 288 252 233 252 b 199 409 165 320 165 375 l 224 434 l 87 434 b 0 521 39 434 0 473 b 87 608 0 569 39 608 l 224 608 l 199 633 b 199 756 165 667 165 722 b 322 756 233 790 288 790 l 495 582 z m 460 25 b 460 148 426 59 426 114 l 633 322 b 756 322 667 356 722 356 l 929 148 b 929 25 963 114 963 59 b 807 25 895 -8 841 -8 l 781 51 l 781 -87 b 694 -174 781 -135 742 -174 b 608 -87 646 -174 608 -135 l 608 51 l 582 25 b 460 25 548 -8 493 -8 l 460 25 z "},"":{"ha":1736,"x_min":0,"x_max":0,"o":"m 41 1175 b 133 1175 66 1200 107 1200 l 304 1004 l 304 1107 b 369 1174 304 1143 333 1174 b 434 1107 405 1174 434 1143 l 434 846 b 369 781 434 810 405 781 l 109 781 b 41 846 73 781 41 810 b 109 911 41 882 73 911 l 212 911 l 41 1082 b 41 1175 15 1108 15 1149 l 41 1175 z m 362 554 b 868 911 430 690 604 911 b 1374 554 1132 911 1306 690 b 1374 488 1384 533 1384 509 b 868 130 1306 352 1132 130 b 362 488 604 130 430 352 b 362 554 352 509 352 533 l 362 554 z m 868 347 b 1042 521 964 347 1042 425 b 868 694 1042 617 964 694 b 694 521 772 694 694 617 b 868 347 694 425 772 347 z m 1603 1175 b 1693 1175 1629 1200 1670 1200 b 1693 1082 1721 1149 1721 1108 l 1524 911 l 1628 911 b 1693 846 1664 911 1693 882 b 1628 781 1693 810 1664 781 l 1367 781 b 1302 846 1331 781 1302 810 l 1302 1107 b 1367 1174 1302 1143 1331 1174 b 1432 1107 1403 1174 1432 1143 l 1432 1004 l 1603 1175 z m 41 -41 l 212 130 l 109 130 b 41 195 73 130 41 159 b 109 260 41 231 73 260 l 369 260 b 434 195 405 260 434 231 l 434 -65 b 369 -130 434 -101 405 -130 b 304 -65 333 -130 304 -101 l 304 38 l 133 -130 b 41 -130 107 -158 66 -158 b 41 -41 15 -107 15 -66 l 41 -41 z m 1432 38 l 1432 -65 b 1367 -130 1432 -101 1403 -130 b 1302 -65 1331 -130 1302 -101 l 1302 195 b 1367 260 1302 231 1331 260 l 1628 260 b 1693 195 1664 260 1693 231 b 1628 130 1693 159 1664 130 l 1524 130 l 1693 -41 b 1693 -130 1721 -66 1721 -107 b 1603 -130 1670 -158 1629 -158 l 1432 38 z "},"":{"ha":1215,"x_min":0,"x_max":0,"o":"m 807 1190 b 929 1190 841 1224 895 1224 l 1190 929 b 1190 807 1224 895 1224 841 l 929 546 b 807 546 895 512 841 512 b 807 669 773 580 773 635 l 919 781 l 347 781 b 174 608 251 781 174 703 l 174 521 b 87 434 174 473 135 434 b 0 521 39 434 0 473 l 0 608 b 347 955 0 799 155 955 l 919 955 l 807 1067 b 807 1190 773 1101 773 1156 l 807 1190 z m 546 495 b 669 495 580 529 635 529 l 929 235 b 929 112 963 201 963 146 l 669 -148 b 546 -148 635 -182 580 -182 b 546 -25 512 -114 512 -59 l 658 87 l 260 87 b 174 0 212 87 174 48 l 174 -87 b 87 -174 174 -135 135 -174 b 0 -87 39 -174 0 -135 l 0 0 b 260 260 0 146 117 260 l 658 260 l 546 373 b 546 495 512 407 512 461 l 546 495 z "},"":{"ha":1389,"x_min":0,"x_max":0,"o":"m 677 1146 b 799 1146 710 1180 765 1180 b 799 1024 833 1113 833 1058 l 731 957 l 1128 957 b 1389 697 1272 957 1389 841 l 1389 610 b 1302 523 1389 560 1350 523 b 1215 610 1254 523 1215 560 l 1215 697 b 1128 784 1215 742 1176 784 l 731 784 l 799 712 b 799 590 833 678 833 624 b 677 590 765 556 710 556 l 460 807 b 460 929 426 841 426 895 l 677 1146 z m 929 235 b 929 112 963 201 963 146 l 712 -105 b 590 -105 678 -139 624 -139 b 590 18 556 -71 556 -16 l 658 87 l 260 87 b 174 0 212 87 174 48 l 174 -87 b 87 -174 174 -135 135 -174 b 0 -87 39 -174 0 -135 l 0 0 b 260 260 0 146 117 260 l 658 260 l 590 329 b 590 452 556 363 556 418 b 712 452 624 486 678 486 l 929 235 z m 1389 174 b 1215 0 1389 78 1311 0 b 1042 174 1120 0 1042 78 b 1215 347 1042 269 1120 347 b 1389 174 1311 347 1389 269 z m 347 868 b 174 694 347 772 270 694 b 0 868 78 694 0 772 b 174 1042 0 964 78 1042 b 347 868 270 1042 347 964 z "},"":{"ha":1563,"x_min":0,"x_max":0,"o":"m 87 955 b 0 1042 39 955 0 994 b 87 1128 0 1090 39 1128 l 1476 1128 b 1563 1042 1524 1128 1563 1090 b 1476 955 1563 994 1524 955 l 87 955 z m 286 843 b 409 843 320 876 375 876 l 669 582 b 669 460 703 548 703 493 b 546 460 635 426 580 426 l 434 572 l 434 0 b 347 -87 434 -48 395 -87 b 260 0 299 -87 260 -48 l 260 572 l 148 460 b 25 460 114 426 59 426 b 25 582 -8 493 -8 548 l 286 843 z m 894 582 l 1154 843 b 1277 843 1188 876 1243 876 l 1537 582 b 1537 460 1571 548 1571 493 b 1414 460 1503 426 1448 426 l 1302 572 l 1302 0 b 1215 -87 1302 -48 1263 -87 b 1128 0 1167 -87 1128 -48 l 1128 572 l 1016 460 b 894 460 982 426 927 426 b 894 582 860 493 860 548 l 894 582 z "},"":{"ha":1389,"x_min":0,"x_max":0,"o":"m 694 1215 b 781 1128 742 1215 781 1176 l 781 411 b 868 260 833 381 868 325 b 694 87 868 165 790 87 b 521 260 599 87 521 165 b 608 411 521 325 556 381 l 608 1128 b 694 1215 608 1176 646 1215 z m 434 868 l 434 260 b 694 0 434 117 548 0 b 955 260 838 0 955 117 l 955 868 l 1259 868 b 1389 738 1331 868 1389 810 l 1389 -43 b 1259 -174 1389 -115 1331 -174 l 130 -174 b 0 -43 58 -174 0 -115 l 0 738 b 130 868 0 810 58 868 l 434 868 z "},"":{"ha":868,"x_min":0,"x_max":0,"o":"m 608 1215 b 673 1153 644 1215 673 1186 b 608 1085 673 1114 644 1088 l 586 1085 l 586 833 b 781 521 701 777 781 658 l 781 0 b 608 -174 781 -96 703 -174 l 260 -174 b 87 0 165 -174 87 -96 l 87 521 b 282 833 87 658 166 777 l 282 1085 l 260 1085 b 195 1150 224 1085 195 1114 b 258 1215 193 1186 224 1215 l 608 1215 z m 434 174 b 564 304 506 174 564 217 b 434 521 564 391 434 521 b 304 304 434 521 304 391 b 434 174 304 232 362 174 z "},"":{"ha":868,"x_min":0,"x_max":0,"o":"m 543 1215 b 608 1150 579 1215 608 1186 l 608 1042 l 260 1042 l 260 1150 b 326 1215 260 1186 289 1215 l 543 1215 z m 87 804 b 150 903 87 846 111 885 l 216 934 b 311 955 246 948 278 955 l 557 955 b 652 934 590 955 622 948 l 718 903 b 781 804 754 885 781 846 b 730 711 781 765 761 731 b 781 610 761 687 781 650 b 723 502 781 562 758 522 b 781 393 758 476 781 436 b 723 282 781 345 758 305 b 781 174 758 259 781 219 b 723 65 781 128 758 88 b 781 -43 758 42 781 2 b 651 -174 781 -115 723 -174 l 217 -174 b 87 -43 145 -174 87 -115 b 145 65 87 2 110 42 b 87 174 110 88 87 128 b 145 282 87 219 110 259 b 87 393 110 305 87 345 b 145 502 87 436 110 476 b 87 610 110 522 87 562 b 138 711 87 650 107 687 b 87 804 107 731 87 765 l 87 804 z m 304 521 l 564 521 b 608 564 588 521 608 540 b 564 608 608 588 588 608 l 304 608 b 260 564 280 608 260 588 b 304 521 260 540 280 521 z m 304 260 b 260 217 280 260 260 241 b 304 174 260 193 280 174 l 564 174 b 608 217 588 174 608 193 b 564 260 608 241 588 260 l 304 260 z "},"":{"ha":1563,"x_min":0,"x_max":0,"o":"m 260 868 b 265 868 262 868 263 868 b 477 1042 285 967 372 1042 b 588 1011 516 1042 554 1031 b 781 1128 624 1081 697 1128 b 974 1011 865 1128 938 1081 b 1085 1042 1006 1031 1044 1042 b 1298 868 1190 1042 1275 967 b 1302 868 1299 868 1301 868 b 1476 694 1398 868 1476 790 b 1452 608 1476 663 1467 633 l 110 608 b 87 694 95 633 87 663 b 260 868 87 790 165 868 l 260 868 z m 43 447 b 118 521 43 487 77 521 l 1445 521 b 1519 447 1486 521 1519 487 b 1212 22 1519 249 1391 81 b 1215 0 1214 15 1215 8 b 1128 -87 1215 -48 1176 -87 l 434 -87 b 347 0 386 -87 347 -48 b 350 22 347 8 348 15 b 43 447 172 81 43 249 l 43 447 z "},"":{"ha":1736,"x_min":0,"x_max":0,"o":"m 694 1085 b 825 1215 694 1157 753 1215 l 1606 1215 b 1736 1085 1678 1215 1736 1157 l 1736 -43 b 1606 -174 1736 -115 1678 -174 l 1034 -174 b 1042 -130 1039 -158 1042 -145 l 1042 528 b 1128 651 1092 546 1128 594 l 1128 738 b 998 868 1128 810 1070 868 l 694 868 l 694 1085 z m 1550 273 b 1550 334 1567 290 1567 318 l 1376 508 b 1315 508 1359 525 1332 525 l 1141 334 b 1141 273 1124 318 1124 290 b 1203 273 1158 256 1186 256 l 1302 373 l 1302 43 b 1345 0 1302 20 1322 0 b 1389 43 1369 0 1389 20 l 1389 373 l 1488 273 b 1550 273 1505 256 1533 256 l 1550 273 z m 0 738 b 43 781 0 762 19 781 l 998 781 b 1042 738 1022 781 1042 762 l 1042 651 b 998 608 1042 627 1022 608 l 43 608 b 0 651 19 608 0 627 l 0 738 z m 955 -87 b 868 -174 955 -135 916 -174 l 174 -174 b 87 -87 126 -174 87 -135 l 87 521 l 955 521 l 955 -87 z m 391 347 b 347 304 367 347 347 328 b 391 260 347 280 367 260 l 651 260 b 694 304 675 260 694 280 b 651 347 694 328 675 347 l 391 347 z "},"":{"ha":1563,"x_min":0,"x_max":0,"o":"m 1476 1128 b 1563 1042 1524 1128 1563 1090 b 1476 955 1563 994 1524 955 l 1367 955 l 1367 781 l 1563 781 l 1563 434 b 1302 174 1416 434 1302 320 l 1302 0 b 1215 -87 1302 -48 1263 -87 l 1128 -87 b 1042 0 1080 -87 1042 -48 l 1042 174 b 781 434 1042 320 925 434 b 521 174 635 434 521 320 l 521 0 b 434 -87 521 -48 482 -87 l 347 -87 b 260 0 299 -87 260 -48 l 260 174 b 0 434 260 320 144 434 l 0 781 l 195 781 l 195 955 l 87 955 b 0 1042 39 955 0 994 b 87 1128 0 1090 39 1128 l 1476 1128 z m 1237 955 l 1020 955 l 1020 781 l 1237 781 l 1237 955 z m 673 955 l 673 781 l 890 781 l 890 955 l 673 955 z m 543 955 l 326 955 l 326 781 l 543 781 l 543 955 z "},"":{"ha":1736,"x_min":0,"x_max":0,"o":"m 1563 1128 b 1649 1042 1611 1128 1649 1090 b 1563 955 1649 994 1611 955 l 1454 955 l 1454 781 l 1649 781 l 1649 585 b 1345 694 1567 653 1461 694 b 918 429 1158 694 996 586 b 868 434 902 432 885 434 b 608 174 722 434 608 320 l 608 0 b 521 -87 608 -48 569 -87 l 434 -87 b 347 0 386 -87 347 -48 l 347 174 b 87 434 347 320 231 434 l 87 781 l 282 781 l 282 955 l 174 955 b 87 1042 126 955 87 994 b 174 1128 87 1090 126 1128 l 1562 1128 z m 1324 955 l 1107 955 l 1107 781 l 1324 781 l 1324 955 z m 760 955 l 760 781 l 977 781 l 977 955 l 760 955 z m 629 955 l 412 955 l 412 781 l 629 781 l 629 955 z m 1736 217 b 1345 -174 1736 1 1561 -174 b 955 217 1130 -174 955 1 b 1345 608 955 433 1130 608 b 1736 217 1561 608 1736 433 z m 1467 334 l 1302 170 l 1224 248 b 1163 248 1207 265 1180 265 b 1163 186 1146 231 1146 203 l 1271 78 b 1333 78 1288 61 1316 61 l 1528 273 b 1528 334 1545 290 1545 318 b 1467 334 1511 352 1484 352 l 1467 334 z "},"":{"ha":1736,"x_min":0,"x_max":0,"o":"m 1563 1128 b 1649 1042 1611 1128 1649 1090 b 1563 955 1649 994 1611 955 l 1454 955 l 1454 781 l 1649 781 l 1649 585 b 1345 694 1567 653 1461 694 b 918 429 1158 694 996 586 b 868 434 902 432 885 434 b 608 174 722 434 608 320 l 608 0 b 521 -87 608 -48 569 -87 l 434 -87 b 347 0 386 -87 347 -48 l 347 174 b 87 434 347 320 231 434 l 87 781 l 282 781 l 282 955 l 174 955 b 87 1042 126 955 87 994 b 174 1128 87 1090 126 1128 l 1562 1128 z m 1324 955 l 1107 955 l 1107 781 l 1324 781 l 1324 955 z m 760 955 l 760 781 l 977 781 l 977 955 l 760 955 z m 629 955 l 412 955 l 412 781 l 629 781 l 629 955 z m 955 217 b 1345 608 955 433 1130 608 b 1736 217 1561 608 1736 433 b 1345 -174 1736 1 1561 -174 b 955 217 1130 -174 955 1 z m 1345 -43 b 1411 22 1382 -43 1411 -14 b 1345 87 1411 58 1382 87 b 1280 22 1309 87 1280 58 b 1345 -43 1280 -14 1309 -43 z m 1300 434 l 1300 217 b 1343 174 1300 193 1322 174 b 1386 217 1369 174 1386 193 l 1386 434 b 1343 477 1386 458 1369 477 b 1300 434 1322 477 1300 458 z "},"":{"ha":1736,"x_min":0,"x_max":0,"o":"m 1563 1128 b 1649 1042 1611 1128 1649 1090 b 1563 955 1649 994 1611 955 l 1454 955 l 1454 781 l 1649 781 l 1649 585 b 1345 694 1567 653 1461 694 b 918 429 1158 694 996 586 b 868 434 902 432 885 434 b 608 174 722 434 608 320 l 608 0 b 521 -87 608 -48 569 -87 l 434 -87 b 347 0 386 -87 347 -48 l 347 174 b 87 434 347 320 231 434 l 87 781 l 282 781 l 282 955 l 174 955 b 87 1042 126 955 87 994 b 174 1128 87 1090 126 1128 l 1562 1128 z m 1324 955 l 1107 955 l 1107 781 l 1324 781 l 1324 955 z m 760 955 l 760 781 l 977 781 l 977 955 l 760 955 z m 629 955 l 412 955 l 412 781 l 629 781 l 629 955 z m 955 217 b 1345 608 955 433 1130 608 b 1736 217 1561 608 1736 433 b 1345 -174 1736 1 1561 -174 b 955 217 1130 -174 955 1 z m 1506 317 b 1506 378 1523 333 1523 361 b 1445 378 1490 395 1462 395 l 1345 278 l 1246 378 b 1185 378 1229 395 1201 395 b 1185 317 1168 361 1168 333 l 1284 217 l 1185 117 b 1185 56 1168 101 1168 73 b 1246 56 1201 39 1229 39 l 1345 156 l 1445 56 b 1506 56 1462 39 1490 39 b 1506 117 1523 73 1523 101 l 1407 217 l 1506 317 z "},"":{"ha":1736,"x_min":0,"x_max":0,"o":"m 87 1042 b 174 1128 87 1090 126 1128 l 1563 1128 b 1649 1042 1611 1128 1649 1090 b 1563 955 1649 994 1611 955 l 1454 955 l 1454 781 l 1432 781 b 1128 477 1264 781 1128 645 l 1128 411 b 1064 345 1102 395 1079 372 b 868 436 1016 400 946 436 b 608 174 722 436 608 320 l 608 0 b 521 -87 608 -48 569 -87 l 434 -87 b 347 0 386 -87 347 -48 l 347 174 b 87 436 347 320 231 436 l 87 784 l 282 784 l 282 957 l 174 957 b 87 1044 126 957 87 994 l 87 1042 z m 1107 781 l 1324 781 l 1324 955 l 1107 955 l 1107 781 z m 977 781 l 977 955 l 760 955 l 760 781 l 977 781 z m 412 781 l 629 781 l 629 955 l 412 955 l 412 781 z m 1432 694 b 1649 477 1552 694 1649 597 l 1649 347 b 1736 260 1697 347 1736 308 l 1736 -87 b 1649 -174 1736 -135 1697 -174 l 1215 -174 b 1128 -87 1167 -174 1128 -135 l 1128 260 b 1215 347 1128 308 1167 347 l 1215 477 b 1432 694 1215 597 1312 694 z m 1432 564 b 1345 477 1384 564 1345 525 l 1345 347 l 1519 347 l 1519 477 b 1432 564 1519 525 1480 564 z "},"":{"ha":1563,"x_min":0,"x_max":0,"o":"m 0 955 b 87 1042 0 1003 39 1042 l 1476 1042 b 1563 955 1524 1042 1563 1003 l 1563 858 b 1485 781 1563 816 1528 781 b 1302 598 1384 781 1302 699 l 1302 259 b 1202 228 1267 259 1232 249 b 1042 172 1153 194 1093 172 l 1042 174 l 1042 521 b 781 781 1042 667 925 781 b 521 521 635 781 521 667 l 521 174 l 518 172 b 361 228 467 173 409 194 b 260 259 330 249 295 259 l 260 598 b 77 781 260 699 178 781 b 0 858 35 781 0 816 l 0 955 z m 1042 87 b 1252 158 1115 87 1192 116 l 1252 158 b 1358 153 1284 181 1328 179 b 1495 85 1397 121 1446 96 b 1560 -20 1542 74 1571 27 b 1456 -85 1549 -66 1500 -95 b 1298 -17 1389 -69 1334 -40 b 1042 -87 1219 -59 1131 -87 b 824 -36 955 -87 877 -60 b 781 -15 808 -28 793 -21 b 739 -36 769 -21 755 -28 b 521 -87 685 -60 607 -87 b 264 -17 429 -87 343 -59 b 107 -85 228 -40 173 -69 b 2 -20 60 -95 13 -66 b 67 85 -9 27 20 74 b 204 153 116 96 165 121 b 311 158 235 179 278 181 l 311 158 b 521 87 371 116 448 87 b 731 158 595 87 670 116 b 831 158 761 179 801 179 b 1042 87 890 116 967 87 l 1042 87 z "},"":{"ha":1215,"x_min":0,"x_max":0,"o":"m 260 781 l 130 781 l 130 803 b 543 1215 130 1031 315 1215 l 673 1215 b 1085 803 900 1215 1085 1031 l 1085 781 l 955 781 l 955 803 b 673 1085 955 959 828 1085 l 543 1085 b 260 803 387 1085 260 959 l 260 781 z m 0 608 b 87 694 0 656 39 694 l 1128 694 b 1215 608 1176 694 1215 656 b 1128 521 1215 560 1176 521 l 1115 521 l 1054 -57 b 924 -174 1045 -123 991 -174 l 291 -174 b 161 -57 224 -174 168 -123 l 101 521 l 87 521 b 0 608 39 521 0 560 l 0 608 z "},"":{"ha":1563,"x_min":0,"x_max":0,"o":"m 508 849 l 554 849 l 566 903 b 642 954 573 938 607 961 b 693 877 677 947 700 912 l 671 769 b 605 719 665 738 639 719 l 518 719 l 518 653 l 623 627 b 672 573 649 621 668 600 l 694 422 b 639 348 699 386 674 353 b 565 403 603 343 570 368 l 549 512 l 499 524 b 345 436 470 470 413 436 b 195 524 282 436 224 470 l 145 512 l 130 403 b 56 348 124 368 91 343 b 1 422 20 353 -4 386 l 22 573 b 71 627 26 600 45 621 l 171 653 l 171 719 l 84 719 b 23 769 56 719 29 738 l 1 877 b 52 954 -6 912 17 947 b 129 903 88 961 122 938 l 140 849 l 186 849 b 248 924 199 878 221 905 l 158 1123 b 190 1209 143 1156 157 1195 b 276 1177 223 1224 261 1210 l 347 1021 l 418 1177 b 504 1209 433 1210 472 1224 b 537 1123 535 1195 551 1156 l 446 924 b 508 849 474 905 495 878 l 508 849 z m 1360 340 l 1400 317 l 1438 360 b 1528 366 1462 387 1503 390 b 1536 276 1557 342 1560 301 l 1463 191 b 1381 177 1442 168 1408 162 l 1306 221 l 1275 166 l 1351 93 b 1366 22 1370 74 1376 46 l 1309 -121 b 1224 -157 1295 -154 1257 -170 b 1188 -72 1191 -144 1174 -106 l 1229 30 l 1192 65 b 1015 63 1137 34 1072 31 b 928 218 958 96 927 156 l 878 232 l 811 145 b 719 135 789 117 748 112 b 708 226 691 157 686 197 l 803 347 b 872 371 819 367 847 376 l 974 340 l 1005 394 l 930 438 b 901 515 903 454 891 486 l 937 620 b 1019 661 948 654 985 672 b 1060 578 1053 649 1069 612 l 1039 524 l 1082 501 b 1174 540 1108 522 1140 534 l 1195 755 b 1266 814 1199 791 1230 817 b 1325 742 1302 810 1328 778 l 1308 572 l 1448 671 b 1539 656 1477 692 1517 685 b 1523 566 1560 627 1553 586 l 1343 438 b 1360 340 1360 408 1365 374 l 1360 340 z "},"":{"ha":1736,"x_min":0,"x_max":0,"o":"m 0 1085 b 130 1215 0 1157 58 1215 l 911 1215 b 1042 1085 983 1215 1042 1157 l 1042 585 b 868 217 936 498 868 365 b 1013 -125 868 83 923 -39 b 911 -174 989 -155 952 -174 l 651 -174 l 651 43 b 521 174 651 115 593 174 b 391 43 449 174 391 115 l 391 -174 l 130 -174 b 0 -43 58 -174 0 -115 l 0 1085 z m 217 608 b 174 564 193 608 174 588 l 174 477 b 217 434 174 454 193 434 l 304 434 b 347 477 328 434 347 454 l 347 564 b 304 608 347 588 328 608 l 217 608 z m 434 477 b 477 434 434 454 454 434 l 564 434 b 608 477 588 434 608 454 l 608 564 b 564 608 608 588 588 608 l 477 608 b 434 564 454 608 434 588 l 434 477 z m 738 608 b 694 564 714 608 694 588 l 694 477 b 738 434 694 454 714 434 l 825 434 b 868 477 849 434 868 454 l 868 564 b 825 608 868 588 849 608 l 738 608 z m 174 825 b 217 781 174 801 193 781 l 304 781 b 347 825 328 781 347 801 l 347 911 b 304 955 347 935 328 955 l 217 955 b 174 911 193 955 174 935 l 174 825 z m 477 955 b 434 911 454 955 434 935 l 434 825 b 477 781 434 801 454 781 l 564 781 b 608 825 588 781 608 801 l 608 911 b 564 955 608 935 588 955 l 477 955 z m 694 825 b 738 781 694 801 714 781 l 825 781 b 868 825 849 781 868 801 l 868 911 b 825 955 868 935 849 955 l 738 955 b 694 911 714 955 694 935 l 694 825 z m 1736 217 b 1345 -174 1736 1 1561 -174 b 955 217 1130 -174 955 1 b 1345 608 955 433 1130 608 b 1736 217 1561 608 1736 433 z m 1337 338 l 1414 260 l 1172 260 b 1128 217 1148 260 1128 241 b 1172 174 1128 193 1148 174 l 1414 174 l 1337 96 b 1337 34 1319 79 1319 51 b 1398 34 1353 17 1381 17 l 1550 186 b 1550 248 1567 203 1567 231 l 1398 400 b 1337 400 1381 417 1353 417 b 1337 338 1319 383 1319 355 l 1337 338 z "},"":{"ha":1736,"x_min":0,"x_max":0,"o":"m 911 1215 b 1042 1085 983 1215 1042 1157 l 1042 585 b 868 217 936 498 868 365 b 1013 -125 868 83 923 -39 b 911 -174 989 -155 952 -174 l 651 -174 l 651 43 b 521 174 651 115 593 174 b 391 43 449 174 391 115 l 391 -174 l 130 -174 b 0 -43 58 -174 0 -115 l 0 1085 b 130 1215 0 1157 58 1215 l 911 1215 z m 174 477 b 217 434 174 454 193 434 l 304 434 b 347 477 328 434 347 454 l 347 564 b 304 608 347 588 328 608 l 217 608 b 174 564 193 608 174 588 l 174 477 z m 477 608 b 434 564 454 608 434 588 l 434 477 b 477 434 434 454 454 434 l 564 434 b 608 477 588 434 608 454 l 608 564 b 564 608 608 588 588 608 l 477 608 z m 694 477 b 738 434 694 454 714 434 l 825 434 b 868 477 849 434 868 454 l 868 564 b 825 608 868 588 849 608 l 738 608 b 694 564 714 608 694 588 l 694 477 z m 217 955 b 174 911 193 955 174 935 l 174 825 b 217 781 174 801 193 781 l 304 781 b 347 825 328 781 347 801 l 347 911 b 304 955 347 935 328 955 l 217 955 z m 434 825 b 477 781 434 801 454 781 l 564 781 b 608 825 588 781 608 801 l 608 911 b 564 955 608 935 588 955 l 477 955 b 434 911 454 955 434 935 l 434 825 z m 738 955 b 694 911 714 955 694 935 l 694 825 b 738 781 694 801 714 781 l 825 781 b 868 825 849 781 868 801 l 868 911 b 825 955 868 935 849 955 l 738 955 z m 1736 217 b 1345 -174 1736 1 1561 -174 b 955 217 1130 -174 955 1 b 1345 608 955 433 1130 608 b 1736 217 1561 608 1736 433 z m 1467 334 l 1302 170 l 1224 248 b 1163 248 1207 265 1180 265 b 1163 186 1146 231 1146 203 l 1271 78 b 1333 78 1288 61 1316 61 l 1528 273 b 1528 334 1545 290 1545 318 b 1467 334 1511 352 1484 352 l 1467 334 z "},"":{"ha":1736,"x_min":0,"x_max":0,"o":"m 911 1215 b 1042 1085 983 1215 1042 1157 l 1042 585 b 868 217 936 498 868 365 b 1013 -125 868 83 923 -39 b 911 -174 989 -155 952 -174 l 651 -174 l 651 43 b 521 174 651 115 593 174 b 391 43 449 174 391 115 l 391 -174 l 130 -174 b 0 -43 58 -174 0 -115 l 0 1085 b 130 1215 0 1157 58 1215 l 911 1215 z m 174 477 b 217 434 174 454 193 434 l 304 434 b 347 477 328 434 347 454 l 347 564 b 304 608 347 588 328 608 l 217 608 b 174 564 193 608 174 588 l 174 477 z m 477 608 b 434 564 454 608 434 588 l 434 477 b 477 434 434 454 454 434 l 564 434 b 608 477 588 434 608 454 l 608 564 b 564 608 608 588 588 608 l 477 608 z m 694 477 b 738 434 694 454 714 434 l 825 434 b 868 477 849 434 868 454 l 868 564 b 825 608 868 588 849 608 l 738 608 b 694 564 714 608 694 588 l 694 477 z m 217 955 b 174 911 193 955 174 935 l 174 825 b 217 781 174 801 193 781 l 304 781 b 347 825 328 781 347 801 l 347 911 b 304 955 347 935 328 955 l 217 955 z m 434 825 b 477 781 434 801 454 781 l 564 781 b 608 825 588 781 608 801 l 608 911 b 564 955 608 935 588 955 l 477 955 b 434 911 454 955 434 935 l 434 825 z m 738 955 b 694 911 714 955 694 935 l 694 825 b 738 781 694 801 714 781 l 825 781 b 868 825 849 781 868 801 l 868 911 b 825 955 868 935 849 955 l 738 955 z m 955 217 b 1345 608 955 433 1130 608 b 1736 217 1561 608 1736 433 b 1345 -174 1736 1 1561 -174 b 955 217 1130 -174 955 1 z m 1345 -43 b 1411 22 1382 -43 1411 -14 b 1345 87 1411 58 1382 87 b 1280 22 1309 87 1280 58 b 1345 -43 1280 -14 1309 -43 z m 1300 434 l 1300 217 b 1343 174 1300 193 1322 174 b 1386 217 1369 174 1386 193 l 1386 434 b 1343 477 1386 458 1369 477 b 1300 434 1322 477 1300 458 z "},"":{"ha":1736,"x_min":0,"x_max":0,"o":"m 911 1215 b 1042 1085 983 1215 1042 1157 l 1042 585 b 868 217 936 498 868 365 b 1013 -125 868 83 923 -39 b 911 -174 989 -155 952 -174 l 651 -174 l 651 43 b 521 174 651 115 593 174 b 391 43 449 174 391 115 l 391 -174 l 130 -174 b 0 -43 58 -174 0 -115 l 0 1085 b 130 1215 0 1157 58 1215 l 911 1215 z m 174 477 b 217 434 174 454 193 434 l 304 434 b 347 477 328 434 347 454 l 347 564 b 304 608 347 588 328 608 l 217 608 b 174 564 193 608 174 588 l 174 477 z m 477 608 b 434 564 454 608 434 588 l 434 477 b 477 434 434 454 454 434 l 564 434 b 608 477 588 434 608 454 l 608 564 b 564 608 608 588 588 608 l 477 608 z m 694 477 b 738 434 694 454 714 434 l 825 434 b 868 477 849 434 868 454 l 868 564 b 825 608 868 588 849 608 l 738 608 b 694 564 714 608 694 588 l 694 477 z m 217 955 b 174 911 193 955 174 935 l 174 825 b 217 781 174 801 193 781 l 304 781 b 347 825 328 781 347 801 l 347 911 b 304 955 347 935 328 955 l 217 955 z m 434 825 b 477 781 434 801 454 781 l 564 781 b 608 825 588 781 608 801 l 608 911 b 564 955 608 935 588 955 l 477 955 b 434 911 454 955 434 935 l 434 825 z m 738 955 b 694 911 714 955 694 935 l 694 825 b 738 781 694 801 714 781 l 825 781 b 868 825 849 781 868 801 l 868 911 b 825 955 868 935 849 955 l 738 955 z m 955 217 b 1345 608 955 433 1130 608 b 1736 217 1561 608 1736 433 b 1345 -174 1736 1 1561 -174 b 955 217 1130 -174 955 1 z m 1506 317 b 1506 378 1523 333 1523 361 b 1445 378 1490 395 1462 395 l 1345 278 l 1246 378 b 1185 378 1229 395 1201 395 b 1185 317 1168 361 1168 333 l 1284 217 l 1185 117 b 1185 56 1168 101 1168 73 b 1246 56 1201 39 1229 39 l 1345 156 l 1445 56 b 1506 56 1462 39 1490 39 b 1506 117 1523 73 1523 101 l 1407 217 l 1506 317 z "},"":{"ha":1736,"x_min":0,"x_max":0,"o":"m 911 1215 b 1042 1085 983 1215 1042 1157 l 1042 -43 b 911 -174 1042 -115 983 -174 l 651 -174 l 651 43 b 521 174 651 115 593 174 b 391 43 449 174 391 115 l 391 -174 l 130 -174 b 0 -43 58 -174 0 -115 l 0 1085 b 130 1215 0 1157 58 1215 l 911 1215 z m 174 477 b 217 434 174 454 193 434 l 304 434 b 347 477 328 434 347 454 l 347 564 b 304 608 347 588 328 608 l 217 608 b 174 564 193 608 174 588 l 174 477 z m 477 608 b 434 564 454 608 434 588 l 434 477 b 477 434 434 454 454 434 l 564 434 b 608 477 588 434 608 454 l 608 564 b 564 608 608 588 588 608 l 477 608 z m 694 477 b 738 434 694 454 714 434 l 825 434 b 868 477 849 434 868 454 l 868 564 b 825 608 868 588 849 608 l 738 608 b 694 564 714 608 694 588 l 694 477 z m 217 955 b 174 911 193 955 174 935 l 174 825 b 217 781 174 801 193 781 l 304 781 b 347 825 328 781 347 801 l 347 911 b 304 955 347 935 328 955 l 217 955 z m 434 825 b 477 781 434 801 454 781 l 564 781 b 608 825 588 781 608 801 l 608 911 b 564 955 608 935 588 955 l 477 955 b 434 911 454 955 434 935 l 434 825 z m 738 955 b 694 911 714 955 694 935 l 694 825 b 738 781 694 801 714 781 l 825 781 b 868 825 849 781 868 801 l 868 911 b 825 955 868 935 849 955 l 738 955 z m 1215 1215 b 1302 1128 1263 1215 1302 1176 l 1693 1128 b 1736 1085 1717 1128 1736 1109 l 1736 738 b 1693 694 1736 714 1717 694 l 1302 694 l 1302 -174 l 1128 -174 l 1128 1128 b 1215 1215 1128 1176 1167 1215 z "},"":{"ha":1563,"x_min":0,"x_max":0,"o":"m 911 1215 b 1042 1085 983 1215 1042 1157 l 1042 690 b 955 477 988 635 955 560 l 955 411 b 868 260 903 381 868 325 l 868 -87 b 891 -174 868 -119 876 -148 l 651 -174 l 651 43 b 521 174 651 115 593 174 b 391 43 449 174 391 115 l 391 -174 l 130 -174 b 0 -43 58 -174 0 -115 l 0 1085 b 130 1215 0 1157 58 1215 l 911 1215 z m 174 477 b 217 434 174 454 193 434 l 304 434 b 347 477 328 434 347 454 l 347 564 b 304 608 347 588 328 608 l 217 608 b 174 564 193 608 174 588 l 174 477 z m 477 608 b 434 564 454 608 434 588 l 434 477 b 477 434 434 454 454 434 l 564 434 b 608 477 588 434 608 454 l 608 564 b 564 608 608 588 588 608 l 477 608 z m 694 477 b 738 434 694 454 714 434 l 825 434 b 868 477 849 434 868 454 l 868 564 b 825 608 868 588 849 608 l 738 608 b 694 564 714 608 694 588 l 694 477 z m 217 955 b 174 911 193 955 174 935 l 174 825 b 217 781 174 801 193 781 l 304 781 b 347 825 328 781 347 801 l 347 911 b 304 955 347 935 328 955 l 217 955 z m 434 825 b 477 781 434 801 454 781 l 564 781 b 608 825 588 781 608 801 l 608 911 b 564 955 608 935 588 955 l 477 955 b 434 911 454 955 434 935 l 434 825 z m 738 955 b 694 911 714 955 694 935 l 694 825 b 738 781 694 801 714 781 l 825 781 b 868 825 849 781 868 801 l 868 911 b 825 955 868 935 849 955 l 738 955 z m 1259 694 b 1476 477 1379 694 1476 597 l 1476 347 b 1563 260 1524 347 1563 308 l 1563 -87 b 1476 -174 1563 -135 1524 -174 l 1042 -174 b 955 -87 994 -174 955 -135 l 955 260 b 1042 347 955 308 994 347 l 1042 477 b 1259 694 1042 597 1139 694 z m 1259 564 b 1172 477 1211 564 1172 525 l 1172 347 l 1345 347 l 1345 477 b 1259 564 1345 525 1307 564 z "},"":{"ha":1042,"x_min":0,"x_max":0,"o":"m 868 911 l 868 825 b 825 781 868 801 849 781 b 781 825 801 781 781 801 l 781 911 b 825 955 781 935 801 955 b 868 911 849 955 868 935 z m 911 1215 b 1042 1085 983 1215 1042 1157 l 1042 -43 b 911 -174 1042 -115 983 -174 l 651 -174 l 651 43 b 521 174 651 115 593 174 b 391 43 449 174 391 115 l 391 -174 l 130 -174 b 0 -43 58 -174 0 -115 l 0 1085 b 130 1215 0 1157 58 1215 l 911 1215 z m 174 477 b 217 434 174 454 193 434 l 304 434 b 347 477 328 434 347 454 l 347 564 b 304 608 347 588 328 608 l 217 608 b 174 564 193 608 174 588 l 174 477 z m 477 608 b 434 564 454 608 434 588 l 434 477 b 477 434 434 454 454 434 l 564 434 b 608 477 588 434 608 454 l 608 564 b 564 608 608 588 588 608 l 477 608 z m 694 477 b 738 434 694 454 714 434 l 825 434 b 868 477 849 434 868 454 l 868 564 b 825 608 868 588 849 608 l 738 608 b 694 564 714 608 694 588 l 694 477 z m 456 1042 b 412 998 432 1042 412 1022 l 412 760 b 477 694 412 723 441 694 l 564 694 b 629 760 600 694 629 723 l 629 825 b 586 868 629 849 610 868 b 543 825 562 868 543 849 l 543 781 l 499 781 l 499 955 l 586 955 b 629 998 610 955 629 974 b 586 1042 629 1022 610 1042 l 456 1042 z m 694 825 b 825 694 694 753 753 694 b 955 825 897 694 955 753 l 955 911 b 825 1042 955 983 897 1042 b 694 911 753 1042 694 983 l 694 825 z m 166 1022 b 118 1040 156 1038 136 1045 b 87 998 99 1034 87 1017 l 87 738 b 130 694 87 714 106 694 b 174 738 154 694 174 714 l 174 855 l 268 714 b 316 696 278 698 298 691 b 347 738 335 702 347 719 l 347 998 b 304 1042 347 1022 328 1042 b 260 998 280 1042 260 1022 l 260 881 l 166 1022 z "},"":{"ha":1563,"x_min":0,"x_max":0,"o":"m 0 1085 b 130 1215 0 1157 58 1215 l 911 1215 b 1042 1085 983 1215 1042 1157 l 1042 654 l 927 608 l 738 608 b 694 564 714 608 694 588 l 694 391 b 695 384 694 388 695 386 b 963 -163 701 226 760 -9 b 911 -174 947 -170 930 -174 l 651 -174 l 651 43 b 521 174 651 115 593 174 b 391 43 449 174 391 115 l 391 -174 l 130 -174 b 0 -43 58 -174 0 -115 l 0 1085 z m 217 608 b 174 564 193 608 174 588 l 174 477 b 217 434 174 454 193 434 l 304 434 b 347 477 328 434 347 454 l 347 564 b 304 608 347 588 328 608 l 217 608 z m 434 477 b 477 434 434 454 454 434 l 564 434 b 608 477 588 434 608 454 l 608 564 b 564 608 608 588 588 608 l 477 608 b 434 564 454 608 434 588 l 434 477 z m 174 825 b 217 781 174 801 193 781 l 304 781 b 347 825 328 781 347 801 l 347 911 b 304 955 347 935 328 955 l 217 955 b 174 911 193 955 174 935 l 174 825 z m 477 955 b 434 911 454 955 434 935 l 434 825 b 477 781 434 801 454 781 l 564 781 b 608 825 588 781 608 801 l 608 911 b 564 955 608 935 588 955 l 477 955 z m 694 825 b 738 781 694 801 714 781 l 825 781 b 868 825 849 781 868 801 l 868 911 b 825 955 868 935 849 955 l 738 955 b 694 911 714 955 694 935 l 694 825 z m 1148 603 b 1196 603 1163 609 1181 609 l 1522 473 b 1563 412 1546 463 1563 439 b 1197 -169 1563 241 1492 -46 b 1147 -169 1181 -175 1163 -175 b 781 412 852 -46 781 241 b 822 473 781 439 795 463 l 1148 603 z m 1172 473 l 1172 -37 b 1431 371 1357 52 1420 231 l 1172 473 z "},"":{"ha":1042,"x_min":0,"x_max":0,"o":"m 911 1215 b 1042 1085 983 1215 1042 1157 l 1042 -43 b 911 -174 1042 -115 983 -174 l 651 -174 l 651 43 b 521 174 651 115 593 174 b 391 43 449 174 391 115 l 391 -174 l 130 -174 b 0 -43 58 -174 0 -115 l 0 1085 b 130 1215 0 1157 58 1215 l 911 1215 z m 174 477 b 217 434 174 454 193 434 l 304 434 b 347 477 328 434 347 454 l 347 564 b 304 608 347 588 328 608 l 217 608 b 174 564 193 608 174 588 l 174 477 z m 477 608 b 434 564 454 608 434 588 l 434 477 b 477 434 434 454 454 434 l 564 434 b 608 477 588 434 608 454 l 608 564 b 564 608 608 588 588 608 l 477 608 z m 694 477 b 738 434 694 454 714 434 l 825 434 b 868 477 849 434 868 454 l 868 564 b 825 608 868 588 849 608 l 738 608 b 694 564 714 608 694 588 l 694 477 z m 644 1022 b 595 1040 633 1038 613 1045 b 564 998 577 1034 564 1017 l 564 738 b 608 694 564 714 584 694 b 651 738 632 694 651 714 l 651 855 l 745 714 b 794 696 756 698 776 691 b 825 738 812 702 825 719 l 825 998 b 781 1042 825 1022 805 1042 b 738 998 757 1042 738 1022 l 738 881 l 644 1022 z m 304 998 b 260 1042 304 1022 284 1042 b 217 998 236 1042 217 1022 l 217 825 b 347 694 217 753 275 694 b 477 825 419 694 477 753 l 477 998 b 434 1042 477 1022 458 1042 b 391 998 410 1042 391 1022 l 391 825 b 347 781 391 801 371 781 b 304 825 323 781 304 801 l 304 998 z "},"":{"ha":1736,"x_min":0,"x_max":0,"o":"m 911 1215 b 1042 1085 983 1215 1042 1157 l 1042 218 b 868 -78 938 160 868 49 b 895 -174 868 -113 878 -146 l 651 -174 l 651 43 b 521 174 651 115 593 174 b 391 43 449 174 391 115 l 391 -174 l 130 -174 b 0 -43 58 -174 0 -115 l 0 1085 b 130 1215 0 1157 58 1215 l 911 1215 z m 174 477 b 217 434 174 454 193 434 l 304 434 b 347 477 328 434 347 454 l 347 564 b 304 608 347 588 328 608 l 217 608 b 174 564 193 608 174 588 l 174 477 z m 477 608 b 434 564 454 608 434 588 l 434 477 b 477 434 434 454 454 434 l 564 434 b 608 477 588 434 608 454 l 608 564 b 564 608 608 588 588 608 l 477 608 z m 694 477 b 738 434 694 454 714 434 l 825 434 b 868 477 849 434 868 454 l 868 564 b 825 608 868 588 849 608 l 738 608 b 694 564 714 608 694 588 l 694 477 z m 217 955 b 174 911 193 955 174 935 l 174 825 b 217 781 174 801 193 781 l 304 781 b 347 825 328 781 347 801 l 347 911 b 304 955 347 935 328 955 l 217 955 z m 434 825 b 477 781 434 801 454 781 l 564 781 b 608 825 588 781 608 801 l 608 911 b 564 955 608 935 588 955 l 477 955 b 434 911 454 955 434 935 l 434 825 z m 738 955 b 694 911 714 955 694 935 l 694 825 b 738 781 694 801 714 781 l 825 781 b 868 825 849 781 868 801 l 868 911 b 825 955 868 935 849 955 l 738 955 z m 1563 477 b 1345 260 1563 358 1465 260 b 1128 477 1226 260 1128 358 b 1345 694 1128 597 1226 694 b 1563 477 1465 694 1563 597 z m 955 -79 b 1207 174 955 60 1068 174 l 1484 174 b 1736 -79 1623 174 1736 60 b 1641 -174 1736 -131 1694 -174 l 1050 -174 b 955 -79 997 -174 955 -131 l 955 -79 z "},"":{"ha":1736,"x_min":0,"x_max":0,"o":"m 0 1085 b 130 1215 0 1157 58 1215 l 911 1215 b 1042 1085 983 1215 1042 1157 l 1042 -43 b 911 -174 1042 -115 983 -174 l 651 -174 l 651 43 b 521 174 651 115 593 174 b 391 43 449 174 391 115 l 391 -174 l 130 -174 b 0 -43 58 -174 0 -115 l 0 1085 z m 217 608 b 174 564 193 608 174 588 l 174 477 b 217 434 174 454 193 434 l 304 434 b 347 477 328 434 347 454 l 347 564 b 304 608 347 588 328 608 l 217 608 z m 434 477 b 477 434 434 454 454 434 l 564 434 b 608 477 588 434 608 454 l 608 564 b 564 608 608 588 588 608 l 477 608 b 434 564 454 608 434 588 l 434 477 z m 738 608 b 694 564 714 608 694 588 l 694 477 b 738 434 694 454 714 434 l 825 434 b 868 477 849 434 868 454 l 868 564 b 825 608 868 588 849 608 l 738 608 z m 174 825 b 217 781 174 801 193 781 l 304 781 b 347 825 328 781 347 801 l 347 911 b 304 955 347 935 328 955 l 217 955 b 174 911 193 955 174 935 l 174 825 z m 477 955 b 434 911 454 955 434 935 l 434 825 b 477 781 434 801 454 781 l 564 781 b 608 825 588 781 608 801 l 608 911 b 564 955 608 935 588 955 l 477 955 z m 694 825 b 738 781 694 801 714 781 l 825 781 b 868 825 849 781 868 801 l 868 911 b 825 955 868 935 849 955 l 738 955 b 694 911 714 955 694 935 l 694 825 z m 1736 694 l 1736 651 b 1519 434 1736 531 1639 434 l 1476 434 l 1476 477 b 1693 694 1476 597 1573 694 l 1736 694 z m 1519 130 l 1476 130 l 1476 174 b 1693 391 1476 294 1573 391 l 1736 391 l 1736 347 b 1519 130 1736 227 1639 130 z m 1519 -174 l 1476 -174 l 1476 -130 b 1693 87 1476 -10 1573 87 l 1736 87 l 1736 43 b 1519 -174 1736 -76 1639 -174 z m 1389 -130 l 1389 -174 l 1345 -174 b 1128 43 1226 -174 1128 -76 l 1128 87 l 1172 87 b 1389 -130 1292 87 1389 -10 z m 1345 130 b 1128 347 1226 130 1128 227 l 1128 391 l 1172 391 b 1389 174 1292 391 1389 294 l 1389 130 l 1345 130 z m 1389 477 l 1389 434 l 1345 434 b 1128 651 1226 434 1128 531 l 1128 694 l 1172 694 b 1389 477 1292 694 1389 597 z m 1432 1128 b 1497 1063 1468 1128 1497 1099 l 1497 781 b 1432 716 1497 745 1468 716 b 1367 781 1396 716 1367 745 l 1367 1063 b 1432 1128 1367 1099 1396 1128 z m 1693 868 b 1628 803 1693 832 1664 803 b 1563 868 1592 803 1563 832 l 1563 955 b 1628 1020 1563 991 1592 1020 b 1693 955 1664 1020 1693 991 l 1693 868 z m 1237 1020 b 1302 955 1273 1020 1302 991 l 1302 868 b 1237 803 1302 832 1273 803 b 1172 868 1201 803 1172 832 l 1172 955 b 1237 1020 1172 991 1201 1020 z "},"":{"ha":1389,"x_min":0,"x_max":0,"o":"m 545 900 l 633 1170 b 694 1215 641 1197 666 1215 b 756 1170 723 1215 748 1197 l 850 881 l 1041 951 b 1107 936 1065 960 1092 954 b 1125 868 1127 918 1133 891 l 1055 676 l 1344 583 b 1389 521 1371 574 1389 549 b 1344 459 1389 493 1371 468 l 1064 368 l 1208 95 b 1194 21 1221 70 1216 39 b 1120 8 1176 -1 1145 -6 l 847 151 l 756 -129 b 694 -174 748 -155 723 -174 b 633 -129 666 -174 641 -155 l 542 151 l 269 8 b 193 21 244 -6 213 -1 b 181 95 173 39 168 70 l 325 368 l 45 459 b 0 521 18 468 0 493 b 45 583 0 549 18 574 l 315 670 l 11 1113 b 19 1196 -6 1139 -3 1174 b 102 1204 41 1218 76 1222 l 545 900 z "},"":{"ha":1215,"x_min":0,"x_max":0,"o":"m 673 933 b 608 868 673 897 644 868 b 543 933 572 868 543 897 l 543 1150 b 608 1215 543 1186 572 1215 b 673 1150 644 1215 673 1186 l 673 933 z m 417 781 l 798 781 b 1002 637 887 781 971 723 l 1079 422 b 1172 282 1134 399 1172 345 l 1172 -87 b 1085 -174 1172 -135 1133 -174 l 1042 -174 b 955 -87 994 -174 955 -135 l 955 0 l 260 0 l 260 -87 b 174 -174 260 -135 222 -174 l 130 -174 b 43 -87 82 -174 43 -135 l 43 282 b 136 422 43 345 82 399 l 213 637 b 417 781 244 723 326 781 l 417 781 z m 417 608 b 377 579 399 608 382 596 l 325 434 l 891 434 l 839 579 b 798 608 830 596 816 608 l 417 608 z m 260 152 b 326 217 296 152 326 181 b 260 282 326 253 296 282 b 195 217 224 282 195 253 b 260 152 195 181 224 152 z m 955 282 b 890 217 919 282 890 253 b 955 152 890 181 919 152 b 1020 217 991 152 1020 181 b 955 282 1020 253 991 282 z m 19 1109 b 111 1109 44 1135 86 1135 l 241 979 b 241 889 267 954 267 913 b 149 889 216 862 175 862 l 19 1017 b 19 1109 -6 1043 -6 1084 l 19 1109 z m 1104 1109 b 1194 1109 1130 1135 1171 1135 b 1194 1017 1222 1084 1222 1043 l 1064 889 b 974 889 1041 862 999 862 b 974 979 949 913 949 954 l 1104 1109 z "},"":{"ha":1389,"x_min":0,"x_max":0,"o":"m 518 463 b 538 477 520 471 529 477 l 851 477 b 871 463 860 477 869 471 l 906 347 l 480 347 l 518 463 z m 391 174 b 456 239 391 210 420 239 b 521 174 492 239 521 210 b 456 109 521 138 492 109 b 391 174 420 109 391 138 z m 998 174 b 933 109 998 138 969 109 b 868 174 897 109 868 138 b 933 239 868 210 897 239 b 998 174 969 239 998 210 z m 1389 521 l 1389 0 b 1215 -174 1389 -96 1311 -174 l 1042 -174 l 347 -174 l 174 -174 b 0 0 78 -174 0 -96 l 0 521 b 694 1215 0 904 311 1215 b 1389 521 1078 1215 1389 904 z m 1042 -174 b 1128 -87 1090 -174 1128 -135 l 1128 195 b 1052 327 1128 252 1098 301 l 995 503 b 851 608 975 565 917 608 l 538 608 b 394 503 472 608 414 565 l 337 327 b 260 195 291 301 260 252 l 260 -87 b 347 -174 260 -135 299 -174 b 434 -87 395 -174 434 -135 l 434 0 l 955 0 l 955 -87 b 1042 -174 955 -135 994 -174 l 1042 -174 z "},"":{"ha":1389,"x_min":0,"x_max":0,"o":"m 215 1042 b 388 1215 215 1138 295 1215 b 562 1042 486 1215 562 1138 b 388 868 562 946 486 868 b 215 1042 295 868 215 946 l 215 1042 z m 282 -174 b 195 -87 234 -174 195 -135 l 195 400 l 160 345 b 41 317 135 304 81 292 b 13 439 0 343 -12 396 l 154 659 b 374 781 201 735 285 781 l 407 781 b 628 659 497 781 580 735 l 768 439 b 741 317 793 396 781 343 b 621 345 700 292 646 304 l 586 400 l 586 -87 b 499 -174 586 -135 547 -174 b 412 -87 451 -174 412 -135 l 412 260 l 369 260 l 369 -87 b 282 -174 369 -135 330 -174 l 282 -174 z m 1172 1172 l 1172 856 b 1215 781 1198 841 1215 813 l 1215 485 l 1259 499 l 1259 651 b 1302 694 1259 675 1278 694 l 1345 694 b 1389 651 1369 694 1389 675 l 1389 422 b 1359 381 1389 403 1377 387 l 1215 333 l 1215 260 l 1345 260 b 1389 217 1369 260 1389 241 l 1389 174 b 1345 130 1389 150 1369 130 l 1226 130 l 1289 -120 b 1246 -174 1296 -147 1275 -174 l 1085 -174 b 1042 -130 1061 -174 1042 -154 l 1042 130 l 998 130 b 911 217 950 130 911 169 l 911 608 b 998 694 911 656 950 694 l 998 781 b 1042 856 998 813 1016 841 l 1042 1128 b 998 1172 1018 1128 998 1148 b 1042 1215 998 1196 1018 1215 l 1128 1215 b 1172 1172 1152 1215 1172 1196 l 1172 1172 z "},"":{"ha":1736,"x_min":0,"x_max":0,"o":"m 258 1042 b 432 1215 258 1138 338 1215 b 605 1042 530 1215 605 1138 b 432 868 605 946 530 868 b 258 1042 338 868 258 946 z m 239 -87 l 239 130 l 190 130 b 149 187 161 130 140 159 l 234 441 l 156 338 b 34 321 127 300 73 292 b 18 443 -4 350 -11 405 l 177 656 b 434 781 238 734 333 781 b 691 656 535 781 630 734 l 850 443 b 834 321 879 405 872 350 b 712 338 796 292 741 300 l 634 441 l 716 187 b 678 130 728 159 707 130 l 629 130 l 629 -87 b 543 -174 629 -135 591 -174 b 456 -87 495 -174 456 -135 l 456 130 l 412 130 l 412 -87 b 326 -174 412 -135 374 -174 b 239 -87 278 -174 239 -135 l 239 -87 z m 1128 1042 b 1302 1215 1128 1138 1206 1215 b 1476 1042 1398 1215 1476 1138 b 1302 868 1476 946 1398 868 b 1128 1042 1206 868 1128 946 l 1128 1042 z m 1280 174 l 1280 -87 b 1194 -174 1280 -135 1242 -174 b 1107 -87 1146 -174 1107 -135 l 1107 400 l 1072 345 b 950 317 1046 304 993 292 b 925 439 911 343 899 396 l 1065 659 b 1285 784 1113 735 1196 784 l 1319 784 b 1539 659 1408 784 1491 735 l 1679 439 b 1652 317 1705 396 1693 343 b 1532 345 1612 292 1558 304 l 1497 400 l 1497 -87 b 1411 -174 1497 -135 1459 -174 b 1324 -87 1363 -174 1324 -135 l 1324 174 l 1280 174 z "},"":{"ha":1389,"x_min":0,"x_max":0,"o":"m 1032 224 b 1128 43 1088 185 1128 119 b 911 -174 1128 -76 1031 -174 b 694 43 792 -174 694 -76 b 704 109 694 66 698 88 l 310 455 b 217 434 282 441 250 434 b 0 651 97 434 0 531 b 217 868 0 771 97 868 b 369 805 276 868 330 844 l 868 1005 b 1085 1215 872 1122 967 1215 b 1302 998 1205 1215 1302 1118 b 1135 787 1302 895 1231 809 l 1032 224 z m 424 585 l 819 240 b 862 255 833 246 847 251 l 964 818 b 933 844 953 826 942 834 l 432 644 b 424 585 433 624 430 604 l 424 585 z "},"":{"ha":1042,"x_min":0,"x_max":0,"o":"m 766 1042 l 868 1042 b 1042 868 964 1042 1042 964 l 1042 0 b 868 -174 1042 -96 964 -174 l 174 -174 b 0 0 78 -174 0 -96 l 0 868 b 174 1042 0 964 78 1042 l 275 1042 b 521 1215 311 1143 407 1215 b 766 1042 634 1215 731 1143 z m 521 868 b 608 955 569 868 608 907 b 521 1042 608 1003 569 1042 b 434 955 473 1042 434 1003 b 521 868 434 907 473 868 z m 286 590 b 323 507 274 556 292 519 b 409 546 359 495 397 512 l 410 550 b 430 564 413 559 421 564 l 588 564 b 629 523 611 564 629 546 b 609 487 629 508 621 495 l 489 419 b 456 362 468 407 456 385 l 456 326 b 521 260 456 289 485 260 b 583 324 556 260 585 289 l 674 375 b 760 523 727 405 760 462 b 588 694 760 618 683 694 l 430 694 b 287 593 366 694 309 654 l 286 590 z m 521 174 b 434 87 473 174 434 135 b 521 0 434 39 473 0 b 608 87 569 0 608 39 b 521 174 608 135 569 174 z "},"":{"ha":1563,"x_min":0,"x_max":0,"o":"m 605 1215 b 844 1064 712 1215 803 1153 b 998 1128 884 1104 938 1128 b 1211 955 1103 1128 1188 1054 l 1215 955 b 1389 781 1311 955 1389 877 b 1215 608 1389 685 1311 608 l 345 608 b 171 781 251 608 171 685 b 345 955 171 877 251 955 b 605 1215 345 1099 461 1215 z m 251 205 b 162 183 233 174 193 164 b 139 272 131 201 121 241 l 270 489 b 359 512 288 520 326 530 b 381 422 390 493 400 455 l 251 205 z m 1270 512 b 1293 422 1301 493 1311 455 l 1163 205 b 1073 183 1144 174 1104 164 b 1051 272 1042 201 1032 241 l 1181 489 b 1270 512 1200 520 1237 530 l 1270 512 z m 555 205 b 466 183 537 174 496 164 b 443 272 435 201 425 241 l 573 489 b 663 512 592 520 630 530 b 685 422 694 493 704 455 l 555 205 z m 967 512 b 989 422 997 493 1007 455 l 859 205 b 770 183 840 174 800 164 b 747 272 739 201 729 241 l 877 489 b 967 512 896 520 933 530 l 967 512 z m 1042 0 b 1252 71 1115 0 1192 29 l 1252 71 b 1358 66 1284 94 1328 92 b 1495 -2 1397 34 1446 9 b 1560 -107 1542 -13 1571 -60 b 1456 -171 1549 -153 1500 -182 b 1298 -104 1389 -156 1334 -126 b 1042 -174 1219 -146 1131 -174 b 824 -122 955 -174 877 -147 b 781 -101 808 -115 793 -108 b 739 -122 769 -108 755 -115 b 521 -174 685 -147 607 -174 b 264 -104 429 -174 343 -146 b 107 -171 228 -126 173 -156 b 2 -107 60 -182 13 -153 b 67 -2 -9 -60 20 -13 b 204 66 116 9 165 34 b 311 71 235 92 278 94 l 311 71 b 521 0 371 29 448 0 b 731 71 595 0 670 29 b 831 71 761 92 801 92 b 1042 0 890 29 967 0 l 1042 0 z "},"":{"ha":1736,"x_min":0,"x_max":0,"o":"m 1085 1128 b 1215 998 1157 1128 1215 1070 l 1215 304 b 1085 174 1215 232 1157 174 l 723 174 l 752 87 l 955 87 b 1042 0 1003 87 1042 48 b 955 -87 1042 -48 1003 -87 l 260 -87 b 174 0 212 -87 174 -48 b 260 87 174 48 212 87 l 463 87 l 492 174 l 130 174 b 0 304 58 174 0 232 l 0 998 b 130 1128 0 1070 58 1128 l 1085 1128 z m 174 955 l 174 347 l 1042 347 l 1042 955 l 174 955 z m 1606 1128 b 1736 998 1678 1128 1736 1070 l 1736 43 b 1606 -87 1736 -28 1678 -87 l 1432 -87 b 1302 43 1360 -87 1302 -28 l 1302 998 b 1432 1128 1302 1070 1360 1128 l 1606 1128 z m 1476 955 b 1432 911 1452 955 1432 935 b 1476 868 1432 888 1452 868 l 1563 868 b 1606 911 1586 868 1606 888 b 1563 955 1606 935 1586 955 l 1476 955 z m 1476 694 l 1563 694 b 1606 738 1586 694 1606 714 b 1563 781 1606 762 1586 781 l 1476 781 b 1432 738 1452 781 1432 762 b 1476 694 1432 714 1452 694 z m 1519 130 b 1606 217 1567 130 1606 169 b 1519 304 1606 265 1567 304 b 1432 217 1471 304 1432 265 b 1519 130 1432 169 1471 130 z "},"":{"ha":1215,"x_min":0,"x_max":0,"o":"m 521 1042 b 608 1128 521 1090 560 1128 l 781 1128 b 868 1042 829 1128 868 1090 l 868 868 b 781 781 868 820 829 781 l 608 781 b 521 868 560 781 521 820 l 521 1042 z m 375 743 b 493 709 416 765 467 750 l 580 559 b 548 440 604 517 590 466 l 398 353 b 277 385 356 329 303 343 l 192 535 b 224 656 169 577 183 630 l 375 743 z m 955 694 b 1042 608 1003 694 1042 656 l 1042 434 b 955 347 1042 386 1003 347 l 781 347 b 694 434 733 347 694 386 l 694 608 b 781 694 694 656 733 694 l 955 694 z m 1128 260 b 1215 174 1176 260 1215 222 l 1215 0 b 1128 -87 1215 -48 1176 -87 l 955 -87 b 868 0 907 -87 868 -48 l 868 174 b 955 260 868 222 907 260 l 1128 260 z m 434 174 b 521 260 434 222 473 260 l 694 260 b 781 174 742 260 781 222 l 781 0 b 694 -87 781 -48 742 -87 l 521 -87 b 434 0 473 -87 434 -48 l 434 174 z m 260 260 b 347 174 308 260 347 222 l 347 0 b 260 -87 347 -48 308 -87 l 87 -87 b 0 0 39 -87 0 -48 l 0 174 b 87 260 0 222 39 260 l 260 260 z "},"":{"ha":1736,"x_min":0,"x_max":0,"o":"m 1259 1042 b 1389 911 1331 1042 1389 983 b 1337 807 1389 870 1370 832 l 1299 779 b 902 481 1118 762 967 643 l 747 365 b 642 365 716 342 673 342 l 52 807 b 0 911 19 832 0 870 b 130 1042 0 983 58 1042 l 1259 1042 z m 799 295 l 870 349 b 868 304 869 334 868 319 b 977 0 868 189 909 82 l 174 0 b 0 174 78 0 0 78 l 0 738 l 590 295 b 799 295 652 249 737 249 z m 1736 304 b 1345 -87 1736 88 1561 -87 b 955 304 1130 -87 955 88 b 1345 694 955 519 1130 694 b 1736 304 1561 694 1736 519 z m 1467 421 l 1302 257 l 1224 334 b 1163 334 1207 352 1180 352 b 1163 273 1146 318 1146 290 l 1271 165 b 1333 165 1288 148 1316 148 l 1528 360 b 1528 421 1545 377 1545 404 b 1467 421 1511 438 1484 438 l 1467 421 z "},"":{"ha":1563,"x_min":0,"x_max":0,"o":"m 1355 1185 b 1441 1208 1373 1214 1411 1224 b 1470 1123 1471 1192 1484 1155 l 1098 297 b 1115 278 1104 291 1109 284 l 1379 426 b 1462 408 1407 442 1443 434 b 1454 325 1482 382 1479 346 l 1220 89 l 1027 89 b 781 263 991 188 895 263 b 536 89 668 263 571 188 l 320 89 l 115 229 b 93 311 88 249 79 282 b 171 344 108 340 141 354 l 435 262 b 460 292 443 272 452 283 l 291 574 b 305 657 275 601 281 637 b 390 657 330 678 365 678 l 667 419 b 680 422 671 420 675 421 l 716 809 b 781 870 720 843 748 870 b 846 809 815 870 843 843 l 883 424 l 1355 1185 z m 1476 2 b 1563 -84 1524 2 1563 -39 b 1476 -171 1563 -135 1524 -171 l 87 -171 b 0 -84 39 -171 0 -135 b 87 2 0 -39 39 2 l 1476 2 z m 781 1215 b 846 1153 817 1215 846 1186 l 846 1022 b 781 957 846 984 817 957 b 716 1022 745 957 716 984 l 716 1153 b 781 1215 716 1186 745 1215 l 781 1215 z "},"":{"ha":1563,"x_min":0,"x_max":0,"o":"m 955 1215 b 1042 1128 1003 1215 1042 1176 l 1245 1128 b 1294 1021 1301 1128 1331 1063 l 1237 955 l 323 955 l 268 1021 b 317 1128 231 1063 261 1128 l 518 1128 b 605 1215 518 1176 560 1215 l 955 1215 z m 258 868 l 1302 868 b 1389 781 1350 868 1389 829 l 1389 446 b 1357 345 1389 410 1377 375 l 1217 150 b 1202 141 1212 147 1205 144 b 1064 87 1160 112 1110 92 l 1019 87 b 881 141 972 92 924 114 b 681 141 821 183 741 183 b 544 87 641 113 593 92 l 499 87 b 361 141 453 92 402 112 b 345 150 356 144 350 147 l 206 345 b 174 446 185 375 174 410 l 174 781 b 260 868 174 829 212 868 l 258 868 z m 345 434 l 1215 434 l 1215 694 l 345 694 l 345 434 z m 1042 0 b 1252 71 1115 0 1192 29 l 1252 71 b 1358 66 1284 94 1328 92 b 1495 -2 1397 34 1446 9 b 1560 -107 1542 -13 1571 -60 b 1456 -171 1549 -153 1500 -182 b 1298 -104 1389 -156 1334 -126 b 1042 -174 1219 -146 1131 -174 b 824 -122 955 -174 877 -147 b 781 -101 808 -115 793 -108 b 739 -122 769 -108 755 -115 b 521 -174 685 -147 607 -174 b 264 -104 429 -174 343 -146 b 107 -171 228 -126 173 -156 b 2 -107 60 -182 13 -153 b 67 -2 -9 -60 20 -13 b 204 66 116 9 165 34 b 311 71 235 92 278 94 l 311 71 b 521 0 371 29 448 0 b 731 71 595 0 670 29 b 831 71 761 92 801 92 b 1042 0 890 29 967 0 l 1042 0 z "},"":{"ha":1563,"x_min":0,"x_max":0,"o":"m 0 1042 b 174 1215 0 1138 78 1215 l 608 1215 l 608 868 b 694 781 608 820 646 781 l 1042 781 l 1042 677 b 694 217 841 620 694 436 b 894 -172 694 57 773 -85 b 868 -174 886 -173 877 -174 l 174 -174 b 0 0 78 -174 0 -96 l 0 1042 z m 694 868 l 694 1215 l 1042 868 l 694 868 z m 781 217 b 1172 608 781 433 956 608 b 1563 217 1388 608 1563 433 b 1172 -174 1563 1 1388 -174 b 781 217 956 -174 781 1 z m 1172 -43 b 1237 22 1208 -43 1237 -14 b 1172 87 1237 58 1208 87 b 1107 22 1136 87 1107 58 b 1172 -43 1107 -14 1136 -43 z m 1126 434 l 1126 217 b 1169 174 1126 193 1148 174 b 1213 217 1196 174 1213 193 l 1213 434 b 1169 477 1213 458 1196 477 b 1126 434 1148 477 1126 458 z "},"":{"ha":1563,"x_min":0,"x_max":0,"o":"m 0 1042 b 174 1215 0 1138 78 1215 l 608 1215 l 608 868 b 694 781 608 820 646 781 l 1042 781 l 1042 677 b 694 217 841 620 694 436 b 894 -172 694 57 773 -85 b 868 -174 886 -173 877 -174 l 174 -174 b 0 0 78 -174 0 -96 l 0 1042 z m 694 868 l 694 1215 l 1042 868 l 694 868 z m 1563 217 b 1172 -174 1563 1 1388 -174 b 781 217 956 -174 781 1 b 1172 608 781 433 956 608 b 1563 217 1388 608 1563 433 z m 1345 263 l 998 263 b 955 219 974 263 955 241 b 998 176 955 193 974 176 l 1345 176 b 1389 219 1369 176 1389 193 b 1345 263 1389 241 1369 263 z "},"":{"ha":1563,"x_min":0,"x_max":0,"o":"m 0 1042 b 174 1215 0 1138 78 1215 l 608 1215 l 608 868 b 694 781 608 820 646 781 l 1042 781 l 1042 677 b 694 217 841 620 694 436 b 894 -172 694 57 773 -85 b 868 -174 886 -173 877 -174 l 174 -174 b 0 0 78 -174 0 -96 l 0 1042 z m 694 868 l 694 1215 l 1042 868 l 694 868 z m 781 217 b 1172 608 781 433 956 608 b 1563 217 1388 608 1563 433 b 1172 -174 1563 1 1388 -174 b 781 217 956 -174 781 1 z m 1215 393 b 1172 436 1215 414 1196 436 b 1128 393 1148 436 1128 414 l 1128 263 l 998 263 b 955 219 974 263 955 241 b 998 176 955 193 974 176 l 1128 176 l 1128 46 b 1172 2 1128 20 1148 2 b 1215 46 1196 2 1215 20 l 1215 176 l 1345 176 b 1389 219 1369 176 1389 193 b 1345 263 1389 241 1369 263 l 1215 263 l 1215 393 z "},"":{"ha":1563,"x_min":0,"x_max":0,"o":"m 0 1042 b 174 1215 0 1138 78 1215 l 608 1215 l 608 868 b 694 781 608 820 646 781 l 1042 781 l 1042 677 b 694 217 841 620 694 436 b 894 -172 694 57 773 -85 b 868 -174 886 -173 877 -174 l 174 -174 b 0 0 78 -174 0 -96 l 0 1042 z m 694 868 l 694 1215 l 1042 868 l 694 868 z m 781 217 b 1172 608 781 433 956 608 b 1563 217 1388 608 1563 433 b 1172 -174 1563 1 1388 -174 b 781 217 956 -174 781 1 z m 1172 -43 b 1237 22 1208 -43 1237 -14 b 1172 87 1237 58 1208 87 b 1107 22 1136 87 1107 58 b 1172 -43 1107 -14 1136 -43 z m 998 326 b 1042 282 998 302 1018 282 b 1085 326 1066 282 1085 302 l 1085 343 b 1111 369 1085 357 1097 369 l 1221 369 b 1259 331 1242 369 1259 352 b 1239 298 1259 317 1251 304 l 1152 252 b 1128 214 1137 244 1128 230 l 1128 174 b 1172 130 1128 150 1148 130 b 1215 174 1196 130 1215 150 l 1215 187 l 1279 221 b 1345 331 1320 243 1345 287 b 1221 456 1345 400 1290 456 l 1111 456 b 998 343 1049 456 998 405 l 998 326 z "},"":{"ha":1563,"x_min":0,"x_max":0,"o":"m 0 1042 b 174 1215 0 1138 78 1215 l 608 1215 l 608 868 b 694 781 608 820 646 781 l 1042 781 l 1042 654 l 790 553 b 694 412 732 530 694 474 b 950 -153 694 259 746 10 b 868 -174 926 -166 898 -174 l 174 -174 b 0 0 78 -174 0 -96 l 0 1042 z m 694 868 l 694 1215 l 1042 868 l 694 868 z m 1148 603 b 1196 603 1163 609 1181 609 l 1522 473 b 1563 412 1546 463 1563 439 b 1197 -169 1563 241 1492 -46 b 1147 -169 1181 -175 1163 -175 b 781 412 852 -46 781 241 b 822 473 781 439 795 463 l 1148 603 z m 1172 473 l 1172 -37 b 1431 371 1357 52 1420 231 l 1172 473 z "},"":{"ha":1736,"x_min":0,"x_max":0,"o":"m 947 1048 b 1019 1128 968 1075 992 1105 b 1073 1128 1034 1142 1058 1142 b 1236 908 1140 1067 1197 986 b 1302 700 1276 832 1302 754 b 868 260 1302 461 1109 260 b 434 700 625 260 434 462 b 522 945 434 771 468 859 b 743 1205 576 1033 652 1125 b 796 1205 758 1219 779 1219 b 947 1048 850 1157 900 1105 l 947 1048 z m 1058 738 b 1039 770 1053 748 1047 759 l 941 656 b 773 870 941 656 784 857 b 651 648 692 770 651 713 b 868 436 651 515 749 436 b 1004 477 920 436 963 450 b 1058 738 1085 534 1107 648 z m 87 436 b 174 523 87 482 126 523 l 260 523 b 347 436 308 523 347 482 b 260 350 347 386 308 350 l 260 174 l 1476 174 l 1476 350 b 1389 436 1428 350 1389 386 b 1476 523 1389 482 1428 523 l 1563 523 b 1649 436 1611 523 1649 482 l 1649 174 b 1736 87 1697 174 1736 135 l 1736 -87 b 1649 -174 1736 -135 1697 -174 l 87 -174 b 0 -87 39 -174 0 -135 l 0 87 b 87 174 0 135 39 174 l 87 436 z m 868 -87 b 955 0 916 -87 955 -48 b 868 87 955 48 916 87 b 781 0 820 87 781 48 b 868 -87 781 -48 820 -87 z m 1215 87 b 1128 0 1167 87 1128 48 b 1215 -87 1128 -48 1167 -87 b 1302 0 1263 -87 1302 -48 b 1215 87 1302 48 1263 87 z m 521 -87 b 608 0 569 -87 608 -48 b 521 87 608 48 569 87 b 434 0 473 87 434 48 b 521 -87 434 -48 473 -87 z "},"":{"ha":1563,"x_min":0,"x_max":0,"o":"m 957 953 b 1329 807 1106 942 1232 880 b 1551 565 1436 728 1512 632 b 1551 477 1566 537 1566 504 b 1329 234 1512 410 1436 314 b 957 88 1232 162 1106 99 l 747 -69 b 648 -74 718 -91 679 -93 b 609 17 618 -54 602 -18 l 636 149 b 491 234 581 173 536 203 b 383 333 452 266 413 299 l 131 186 b 26 199 97 166 54 171 b 11 304 -2 227 -8 269 l 136 521 l 11 738 b 26 843 -8 772 -2 815 b 131 856 54 870 97 876 l 383 709 b 491 807 413 742 452 776 b 636 893 536 839 581 868 l 609 1025 b 648 1115 602 1060 618 1096 b 747 1111 679 1134 718 1133 l 957 953 z m 1128 608 b 1042 521 1080 608 1042 569 b 1128 434 1042 473 1080 434 b 1215 521 1176 434 1215 473 b 1128 608 1215 569 1176 608 z "},"":{"ha":1736,"x_min":0,"x_max":0,"o":"m 434 15 b 347 0 404 5 378 0 b 87 260 203 0 87 117 l 87 1042 b 0 1128 39 1042 0 1081 b 87 1215 0 1176 39 1215 l 608 1215 b 694 1128 656 1215 694 1176 b 608 1042 694 1081 656 1042 l 608 375 l 475 159 b 434 15 448 116 434 66 z m 260 781 l 434 781 l 434 1042 l 260 1042 l 260 781 z m 1389 1215 b 1476 1128 1437 1215 1476 1176 b 1389 1042 1476 1081 1437 1042 l 1389 632 l 1708 113 b 1736 15 1726 84 1736 50 b 1548 -174 1736 -89 1652 -174 l 709 -174 b 518 15 605 -174 518 -89 b 549 113 518 50 531 84 l 866 632 l 866 1042 b 779 1128 820 1042 779 1081 b 866 1215 779 1176 820 1215 l 1389 1215 z m 1042 1042 l 1042 608 b 1029 562 1042 592 1037 576 l 897 347 l 1360 347 l 1228 562 b 1215 608 1220 576 1215 592 l 1215 1042 l 1042 1042 z "},"":{"ha":1042,"x_min":0,"x_max":0,"o":"m 955 1215 b 1018 1188 979 1215 1002 1205 b 1041 1122 1035 1170 1043 1146 l 963 28 b 747 -174 955 -86 861 -174 l 295 -174 b 78 28 181 -174 87 -86 l 0 1122 b 23 1188 -1 1146 7 1170 b 87 1215 40 1205 63 1215 l 955 1215 z m 264 758 b 431 758 316 732 378 732 b 611 758 487 786 554 786 b 778 758 664 732 725 732 l 844 791 l 862 1042 l 180 1042 l 198 791 l 264 758 z "},"":{"ha":1042,"x_min":0,"x_max":0,"o":"m 694 684 b 521 521 694 594 617 521 b 347 684 425 521 347 594 b 489 937 347 751 439 874 b 553 937 505 958 536 958 b 694 684 603 874 694 751 l 694 684 z m 955 1215 b 1018 1188 979 1215 1002 1205 b 1041 1122 1035 1170 1043 1146 l 963 28 b 747 -174 955 -86 861 -174 l 295 -174 b 78 28 181 -174 87 -86 l 0 1122 b 23 1188 -1 1146 7 1170 b 87 1215 40 1205 63 1215 l 955 1215 z m 260 391 b 434 391 315 363 380 363 b 608 391 489 418 553 418 b 781 391 662 363 727 363 l 814 408 l 862 1042 l 180 1042 l 225 408 l 260 391 z "},"":{"ha":1389,"x_min":0,"x_max":0,"o":"m 433 972 b 432 955 434 966 432 960 b 258 781 432 859 356 781 b 244 782 255 781 249 782 b 195 670 223 747 207 709 b 87 611 181 624 133 598 b 29 719 41 625 15 673 b 102 884 46 777 71 833 b 84 955 92 905 84 929 b 258 1128 84 1051 165 1128 b 332 1113 286 1128 310 1123 b 496 1186 382 1144 438 1169 b 604 1128 542 1200 590 1174 b 546 1020 618 1082 592 1034 b 433 972 506 1008 468 992 l 433 972 z m 1057 1113 b 1126 1128 1079 1123 1103 1128 b 1300 955 1224 1128 1300 1051 b 1287 884 1300 929 1294 905 b 1360 719 1318 833 1340 777 b 1302 611 1374 673 1348 625 b 1194 670 1256 598 1207 624 b 1145 782 1182 709 1166 747 b 1128 781 1140 782 1134 781 b 955 955 1033 781 955 859 b 956 972 955 960 955 966 b 843 1020 921 992 883 1008 b 785 1128 797 1034 771 1082 b 893 1186 799 1174 847 1200 b 1057 1113 951 1169 1004 1144 l 1057 1113 z m 244 260 b 258 260 249 260 255 260 b 432 87 356 260 432 183 b 433 70 432 81 434 76 b 546 21 468 50 506 33 b 604 -87 592 8 618 -40 b 496 -145 590 -132 542 -158 b 332 -72 438 -125 382 -103 b 258 -87 310 -79 286 -87 b 84 87 165 -87 84 -9 b 102 158 84 112 92 136 b 29 323 71 211 46 264 b 87 431 15 368 41 417 b 195 372 133 444 181 418 b 244 260 207 332 223 295 l 244 260 z m 1287 158 b 1300 87 1294 136 1300 112 b 1126 -87 1300 -9 1224 -87 b 1057 -72 1103 -87 1079 -79 b 893 -145 1004 -103 951 -125 b 785 -87 847 -158 799 -132 b 843 21 771 -40 797 8 b 956 70 883 33 921 50 b 952 87 955 76 952 81 b 1126 260 952 183 1033 260 b 1145 260 1134 260 1140 260 b 1194 372 1166 295 1182 332 b 1302 431 1207 418 1256 444 b 1360 323 1348 417 1374 368 b 1287 158 1340 264 1318 211 l 1287 158 z m 523 519 b 618 364 523 451 561 393 b 646 276 650 347 662 308 b 559 248 630 244 591 232 b 393 519 460 298 393 400 b 471 722 393 597 422 668 l 441 752 b 461 801 421 773 436 801 l 625 801 b 653 773 640 801 653 788 l 653 608 b 605 589 653 586 623 571 l 563 630 b 523 519 538 600 523 561 l 523 519 z m 747 765 b 835 794 764 797 803 810 b 1000 523 933 744 1000 641 b 922 319 1000 445 971 373 l 952 289 b 932 241 970 271 955 241 l 768 241 b 740 269 753 241 740 253 l 740 433 b 788 455 740 458 770 471 l 830 412 b 870 523 855 442 870 480 b 776 678 870 590 832 649 b 747 765 744 694 731 733 l 747 765 z "},"":{"ha":1389,"x_min":0,"x_max":0,"o":"m 892 1073 l 1171 890 b 1194 739 1219 855 1230 787 b 1042 716 1159 690 1091 680 l 805 870 l 518 870 b 475 827 497 870 475 849 b 518 784 475 801 497 784 l 690 784 b 780 709 733 784 771 752 b 692 610 789 655 747 610 l 388 610 b 190 679 315 610 247 633 l 63 784 l 41 781 b 0 827 20 781 0 801 l 0 1085 b 41 1128 0 1109 20 1128 l 722 1128 b 892 1073 784 1128 843 1109 l 892 1073 z m 410 -32 l 44 238 b 21 390 -4 274 -14 342 b 173 413 57 438 125 448 l 498 174 l 825 174 b 868 217 849 174 868 193 b 825 260 868 241 849 260 l 613 260 b 522 333 569 260 529 290 b 608 434 513 387 555 434 l 955 434 b 1156 363 1028 434 1099 409 l 1282 260 l 1345 260 b 1389 217 1369 260 1389 241 l 1389 -43 b 1345 -87 1389 -67 1369 -87 l 578 -87 b 410 -32 516 -87 459 -67 l 410 -32 z "},"":{"ha":1736,"x_min":0,"x_max":0,"o":"m 825 1128 b 738 1042 825 1081 786 1042 b 651 1128 690 1042 651 1081 b 738 1215 651 1176 690 1215 b 825 1128 786 1215 825 1176 z m 434 998 b 521 1085 434 1046 473 1085 b 608 998 569 1085 608 1046 b 521 911 608 950 569 911 b 434 998 473 911 434 950 z m 434 868 b 521 781 482 868 521 829 l 543 781 b 608 716 579 781 608 752 l 608 673 b 606 659 608 668 607 664 b 868 260 760 592 868 439 b 434 -174 868 21 674 -174 b 0 260 194 -174 0 21 b 262 659 0 439 108 592 b 260 673 261 664 260 668 l 260 716 b 326 781 260 752 289 781 l 347 781 b 434 868 347 829 386 868 z m 434 0 b 694 260 578 0 694 117 b 434 521 694 407 578 521 b 174 260 288 521 174 407 b 434 0 174 117 288 0 z m 916 459 b 1130 659 962 548 1038 619 b 1128 675 1129 664 1128 668 l 1128 719 b 1194 784 1128 752 1157 784 l 1215 784 b 1302 870 1215 829 1254 870 b 1389 784 1350 870 1389 829 l 1411 784 b 1476 719 1447 784 1476 752 l 1476 675 b 1474 659 1476 668 1475 664 b 1736 260 1628 592 1736 439 b 1302 -174 1736 21 1542 -174 b 916 62 1131 -174 988 -78 b 955 260 941 123 955 190 b 916 459 955 331 941 397 l 916 459 z m 1302 521 b 1042 260 1156 521 1042 407 b 1302 0 1042 117 1156 0 b 1562 260 1446 0 1562 117 b 1302 521 1562 407 1446 521 z m 911 1128 b 998 1215 911 1176 950 1215 b 1085 1128 1046 1215 1085 1176 b 998 1042 1085 1081 1046 1042 b 911 1128 950 1042 911 1081 z m 1128 998 b 1215 1085 1128 1046 1167 1085 b 1302 998 1263 1085 1302 1046 b 1215 911 1302 950 1263 911 b 1128 998 1167 911 1128 950 z "},"":{"ha":1736,"x_min":0,"x_max":0,"o":"m 258 822 l 448 572 b 514 559 461 551 492 546 b 528 633 541 574 547 610 l 453 729 b 465 848 424 764 429 817 b 586 839 501 878 554 874 l 712 696 b 779 515 754 646 779 582 l 779 260 l 955 260 l 955 515 b 1024 696 955 582 979 646 l 1150 839 b 1271 848 1182 874 1235 878 b 1281 729 1307 817 1312 764 l 1208 633 b 1222 559 1189 610 1195 574 b 1288 572 1244 546 1272 551 l 1476 822 l 1476 1128 b 1563 1215 1476 1176 1514 1215 b 1649 1128 1611 1215 1649 1176 l 1649 635 b 1611 530 1649 597 1635 559 l 1379 260 l 1389 260 b 1454 195 1425 260 1454 231 b 1389 130 1454 159 1425 130 l 347 130 b 282 195 311 130 282 159 b 347 260 282 231 311 260 l 357 260 l 126 530 b 87 635 101 559 87 597 l 87 1128 b 174 1215 87 1176 126 1215 b 260 1128 222 1215 260 1176 l 258 822 z m 345 -87 b 280 -22 311 -87 280 -58 b 345 43 280 14 311 43 l 1389 43 b 1454 -22 1425 43 1454 14 b 1389 -87 1454 -58 1425 -87 l 1302 -87 l 1302 -174 l 955 -174 l 955 -87 l 779 -87 l 779 -174 l 432 -174 l 432 -87 l 345 -87 z "},"":{"ha":1736,"x_min":0,"x_max":0,"o":"m 760 1107 b 868 1215 760 1167 808 1215 b 977 1107 928 1215 977 1167 b 868 998 977 1047 928 998 b 760 1107 808 998 760 1047 z m 1019 529 b 961 456 1024 493 999 461 b 890 515 927 452 895 477 l 878 610 l 858 610 l 846 515 b 773 456 841 477 809 452 b 717 529 738 461 712 493 l 747 770 l 693 727 b 601 732 666 701 624 704 b 609 824 578 760 582 801 l 722 919 b 820 955 749 942 784 955 l 916 955 b 1012 919 952 955 987 942 l 1127 824 b 1135 732 1155 801 1158 760 b 1043 727 1112 704 1070 701 l 989 770 l 1019 529 z m 217 514 l 381 296 b 488 283 406 262 455 256 b 505 379 516 306 524 350 l 447 476 b 471 592 423 515 434 566 b 586 575 509 618 560 611 l 715 417 b 781 228 758 366 781 297 l 781 -87 b 694 -174 781 -135 742 -174 l 434 -174 b 366 -139 408 -174 383 -162 l 38 269 b 0 378 13 300 0 338 l 0 936 b 109 1044 0 993 49 1044 b 217 936 168 1044 217 993 l 217 514 z m 1736 933 l 1736 378 b 1696 269 1736 338 1723 300 l 1367 -139 b 1302 -174 1353 -162 1328 -174 l 1042 -174 b 955 -87 994 -174 955 -135 l 955 228 b 1021 417 955 297 978 366 l 1147 575 b 1265 592 1176 611 1227 618 b 1290 476 1302 566 1313 515 l 1229 379 b 1248 283 1212 350 1220 306 b 1356 296 1281 256 1330 262 l 1519 514 l 1519 933 b 1628 1042 1519 993 1568 1042 b 1736 933 1688 1042 1736 993 l 1736 933 z "},"":{"ha":1736,"x_min":0,"x_max":0,"o":"m 564 911 b 868 1215 564 1079 700 1215 b 1172 911 1036 1215 1172 1079 b 868 608 1172 744 1036 608 b 564 911 700 608 564 744 z m 217 514 l 381 296 b 488 283 406 262 455 256 b 505 379 516 306 524 350 l 447 476 b 471 592 423 515 434 566 b 586 575 509 618 560 611 l 715 417 b 781 228 758 366 781 297 l 781 -87 b 694 -174 781 -135 742 -174 l 434 -174 b 366 -139 408 -174 383 -162 l 38 269 b 0 378 13 300 0 338 l 0 936 b 109 1044 0 993 49 1044 b 217 936 168 1044 217 993 l 217 514 z m 1736 933 l 1736 378 b 1696 269 1736 338 1723 300 l 1367 -139 b 1302 -174 1353 -162 1328 -174 l 1042 -174 b 955 -87 994 -174 955 -135 l 955 228 b 1021 417 955 297 978 366 l 1147 575 b 1265 592 1176 611 1227 618 b 1290 476 1302 566 1313 515 l 1229 379 b 1248 283 1212 350 1220 306 b 1356 296 1281 256 1330 262 l 1519 514 l 1519 933 b 1628 1042 1519 993 1568 1042 b 1736 933 1688 1042 1736 993 l 1736 933 z "}}}
